<svg width="12" height="11" viewBox="0 0 12 11" fill="none" xmlns="http://www.w3.org/2000/svg">
<path fill-rule="evenodd" clip-rule="evenodd" d="M4.30346 0.559998C4.15509 0.559899 4.0082 0.588314 3.87108 0.6436C3.73396 0.698886 3.60933 0.779962 3.50434 0.882216C3.39936 0.984471 3.31606 1.10593 3.25918 1.23959C3.20231 1.37324 3.173 1.51652 3.1729 1.66123C3.1729 2.16051 3.5193 2.5967 4.01518 2.72429V5.53794L2.62892 3.64871C2.75431 3.46716 2.82175 3.25337 2.82175 3.03475C2.82165 2.89 2.79231 2.74667 2.7354 2.61298C2.6785 2.4793 2.59516 2.35781 2.49011 2.25555C2.38507 2.15329 2.26043 2.07225 2.12325 2.017C1.98608 1.96174 1.83904 1.93335 1.69062 1.93352C1.54225 1.93342 1.3953 1.96184 1.25818 2.01712C1.12106 2.07241 0.996497 2.15348 0.89151 2.25574C0.786522 2.35799 0.703221 2.47945 0.646347 2.61311C0.589473 2.74676 0.560099 2.89004 0.559998 3.03475C0.576803 3.57437 1.06031 3.99699 1.67901 4.13543L3.36598 9.64078C3.36598 9.84276 4.48237 10.0064 5.86015 10.0064C7.23793 10.0064 8.35463 9.84276 8.35463 9.64078L10.0414 4.13543C10.6601 3.99674 11.1438 3.57437 11.1603 3.03475C11.1602 2.89004 11.1309 2.74676 11.074 2.61311C11.0171 2.47945 10.9338 2.35799 10.8289 2.25574C10.7239 2.15348 10.5992 2.07241 10.4621 2.01712C10.325 1.96184 10.1781 1.93342 10.0297 1.93352C9.88135 1.93339 9.73438 1.96179 9.59724 2.01706C9.46009 2.07233 9.33539 2.15342 9.23038 2.25568C9.12536 2.35793 9.04204 2.47937 8.98515 2.61305C8.92826 2.74672 8.89896 2.89002 8.89886 3.03475C8.89886 3.25337 8.96605 3.46716 9.09145 3.64871L7.70543 5.53819V2.72404C7.94632 2.66225 8.15947 2.52455 8.31177 2.33232C8.46407 2.14009 8.54693 1.90416 8.54747 1.66123C8.54737 1.51652 8.51805 1.37324 8.46118 1.23959C8.40431 1.10593 8.32101 0.984471 8.21602 0.882216C8.11103 0.779962 7.9864 0.698886 7.84929 0.6436C7.71217 0.588314 7.56522 0.559899 7.41684 0.559998C7.26845 0.559866 7.12148 0.588267 6.98434 0.643538C6.84719 0.698809 6.72255 0.779897 6.61754 0.882155C6.51253 0.984412 6.4292 1.10585 6.37231 1.23953C6.31542 1.3732 6.28613 1.5165 6.28603 1.66123C6.28603 2.02056 6.46747 2.35694 6.77023 2.5622L5.86015 5.17559L4.95007 2.5622C5.09931 2.46123 5.22133 2.32655 5.30569 2.16967C5.39006 2.0128 5.43426 1.83837 5.43459 1.66123C5.43449 1.5165 5.40519 1.3732 5.3483 1.23953C5.29141 1.10585 5.20809 0.984412 5.10308 0.882155C4.99806 0.779897 4.87343 0.698809 4.73628 0.643538C4.59913 0.588267 4.45185 0.559866 4.30346 0.559998Z" fill="#121638"/>
<path opacity="0.18" fill-rule="evenodd" clip-rule="evenodd" d="M10.121 1.84607C10.3669 2.09484 10.9739 3.18784 9.58421 4.04831L8.24166 7.44122C8.24166 7.44122 7.41759 9.97287 6.61971 10.6228C6.61971 10.6228 7.78812 10.6532 8.32912 10.2758L8.73501 8.56197L9.90525 5.11643L10.1323 4.04804C10.7508 3.90952 11.2347 3.48714 11.2512 2.94745C11.2512 2.33941 10.7456 1.84633 10.121 1.84607Z" fill="#121638"/>
<path opacity="0.18" fill-rule="evenodd" clip-rule="evenodd" d="M4.30333 0.559998C4.23472 0.559998 4.16795 0.567068 4.10274 0.578328C4.88623 1.04601 4.72597 2.09135 4.51779 2.43779L5.86008 4.62117L5.65924 4.16711L4.94986 2.56217C5.0981 2.46301 5.21977 2.32902 5.30422 2.17194C5.38867 2.01485 5.43334 1.83946 5.4343 1.66112C5.4343 1.05308 4.92812 0.559998 4.30359 0.559998H4.30333ZM7.40584 0.559998C7.33723 0.559998 7.27045 0.567068 7.20525 0.578328C8.38467 0.910889 7.66455 2.23406 7.37441 2.34064L7.69441 4.98385V2.72426C8.18984 2.59674 8.53576 2.16048 8.53654 1.66112C8.53654 1.05308 8.03037 0.560259 7.40584 0.559998ZM1.66614 1.92167C1.59754 1.92167 1.53076 1.92847 1.46556 1.94C2.31477 2.25423 2.25664 3.06599 2.08041 3.6159L3.99067 5.52616L2.60439 3.63684C2.73008 3.45511 2.79711 3.24144 2.79711 3.02278C2.79711 2.41448 2.29068 1.92167 1.66614 1.92167Z" fill="#121638"/>
<path fill-rule="evenodd" clip-rule="evenodd" d="M1.09679 2.29966C1.09679 2.29966 0.239725 2.98233 1.12848 3.69013C1.07113 3.54611 0.890969 2.7045 1.09679 2.29966ZM3.83741 0.862316C3.7434 0.821728 2.97249 1.43788 3.53575 2.21063C3.56167 2.08546 3.31683 1.22473 3.83741 0.862316ZM7.01743 0.837178C6.92342 0.79659 6.09987 1.40725 6.67518 2.19911C6.63119 2.05404 6.4869 1.0904 7.01743 0.837178ZM1.84649 3.98918L3.26237 8.60235L3.54727 10.2199L3.73109 10.279V9.35995L1.84649 3.98918ZM9.62869 2.22398C9.53468 2.1834 8.71925 2.81762 9.29037 3.5977C9.23538 3.34003 9.02013 2.45756 9.62869 2.22398Z" fill="#121638"/>
<path fill-rule="evenodd" clip-rule="evenodd" d="M4.30346 0.559998C4.15509 0.559899 4.0082 0.588314 3.87108 0.6436C3.73396 0.698886 3.60933 0.779962 3.50434 0.882216C3.39936 0.984471 3.31606 1.10593 3.25918 1.23959C3.20231 1.37324 3.173 1.51652 3.1729 1.66123C3.1729 2.16051 3.5193 2.5967 4.01518 2.72429V5.53794L2.62892 3.64871C2.75431 3.46716 2.82175 3.25337 2.82175 3.03475C2.82165 2.89 2.79231 2.74667 2.7354 2.61298C2.6785 2.4793 2.59516 2.35781 2.49011 2.25555C2.38507 2.15329 2.26043 2.07225 2.12325 2.017C1.98608 1.96174 1.83904 1.93335 1.69062 1.93352C1.54225 1.93342 1.3953 1.96184 1.25818 2.01712C1.12106 2.07241 0.996497 2.15348 0.89151 2.25574C0.786522 2.35799 0.703221 2.47945 0.646347 2.61311C0.589473 2.74676 0.560099 2.89004 0.559998 3.03475C0.576803 3.57437 1.06031 3.99699 1.67901 4.13543L3.36598 9.64078C3.36598 9.84276 4.48237 10.0064 5.86015 10.0064C7.23793 10.0064 8.35463 9.84276 8.35463 9.64078L10.0414 4.13543C10.6601 3.99674 11.1438 3.57437 11.1603 3.03475C11.1602 2.89004 11.1309 2.74676 11.074 2.61311C11.0171 2.47945 10.9338 2.35799 10.8289 2.25574C10.7239 2.15348 10.5992 2.07241 10.4621 2.01712C10.325 1.96184 10.1781 1.93342 10.0297 1.93352C9.88135 1.93339 9.73438 1.96179 9.59724 2.01706C9.46009 2.07233 9.33539 2.15342 9.23038 2.25568C9.12536 2.35793 9.04204 2.47937 8.98515 2.61305C8.92826 2.74672 8.89896 2.89002 8.89886 3.03475C8.89886 3.25337 8.96605 3.46716 9.09145 3.64871L7.70543 5.53819V2.72404C7.94632 2.66225 8.15947 2.52455 8.31177 2.33232C8.46407 2.14009 8.54693 1.90416 8.54747 1.66123C8.54737 1.51652 8.51805 1.37324 8.46118 1.23959C8.40431 1.10593 8.32101 0.984471 8.21602 0.882216C8.11103 0.779962 7.9864 0.698886 7.84929 0.6436C7.71217 0.588314 7.56522 0.559899 7.41684 0.559998C7.26845 0.559866 7.12148 0.588267 6.98434 0.643538C6.84719 0.698809 6.72255 0.779897 6.61754 0.882155C6.51253 0.984412 6.4292 1.10585 6.37231 1.23953C6.31542 1.3732 6.28613 1.5165 6.28603 1.66123C6.28603 2.02056 6.46747 2.35694 6.77023 2.5622L5.86015 5.17559L4.95007 2.5622C5.09931 2.46123 5.22133 2.32655 5.30569 2.16967C5.39006 2.0128 5.43426 1.83837 5.43459 1.66123C5.43449 1.5165 5.40519 1.3732 5.3483 1.23953C5.29141 1.10585 5.20809 0.984412 5.10308 0.882155C4.99806 0.779897 4.87343 0.698809 4.73628 0.643538C4.59913 0.588267 4.45185 0.559866 4.30346 0.559998Z" fill="#121638"/>
</svg>
