<svg width="19" height="20" viewBox="0 0 19 20" fill="none" xmlns="http://www.w3.org/2000/svg">
<path d="M1.94123 16.8066C1.83154 16.6832 3.62763 13.3378 3.62763 13.3378L4.27203 13.9685C4.28574 13.9822 2.05091 16.93 1.94123 16.8066Z" fill="#DEA259"/>
<path d="M3.12034 18.0816C3.01066 17.9582 5.98586 15.5588 5.98586 15.5588L6.63026 16.1895C6.63026 16.1895 3.21632 18.205 3.12034 18.0816Z" fill="#DEA259"/>
<path d="M0.199976 19.8229C0.0902908 19.6995 4.82045 14.4757 4.82045 14.4757L5.46485 15.1064C5.47856 15.1201 0.309661 19.96 0.199976 19.8229Z" fill="#DEA259"/>
<path d="M18.8053 1.19015C19.0795 2.20474 19.4771 5.41302 16.0357 8.93665L10.6886 3.64435C14.1162 0.134433 17.3245 0.51833 18.3528 0.765122C18.5859 0.806254 18.7504 0.970781 18.8053 1.19015Z" fill="#DEA259"/>
<path d="M10.0716 15.1201L15.3639 9.70444L9.98935 4.3573L4.71076 9.77299L10.0716 15.1201Z" fill="#DEA259"/>
<path d="M3.99781 10.4996L3.69618 10.8013C3.23002 11.2949 3.23002 12.0901 3.7236 12.5562L7.37062 16.1073C7.8642 16.5872 8.64571 16.5734 9.12558 16.0799L9.37237 15.8331L3.99781 10.4996Z" fill="#DEA259"/>
</svg>
