<svg width="175" height="107" viewBox="0 0 175 107" fill="none" xmlns="http://www.w3.org/2000/svg">
<path d="M146.598 50.875C146.174 50.5893 145.744 50.2969 145.313 50.0045C142.132 47.8435 138.844 45.6085 135.289 44.449C131.584 43.2425 126.234 41.962 122.35 42.0023C122.327 42.0057 122.303 41.9922 122.286 41.9754C122.269 41.9586 122.263 41.9351 122.263 41.9116C122.263 41.8947 122.404 40.1908 122.034 38.5742C121.274 39.7371 121.069 41.1755 120.874 42.5703C120.81 43.0341 120.739 43.5147 120.652 43.9785C119.643 49.3155 115.252 53.9401 109.972 55.2239C108.372 55.6138 106.038 55.8524 104.024 54.7736C102.255 53.8258 101.034 51.9202 100.917 49.9171C100.873 49.1677 101.098 48.4417 101.3 47.8031C101.623 46.7646 101.905 45.8673 101.007 45.1649C99.7398 44.1701 96.3267 44.3851 95.0456 45.5245C95.3885 46.1126 95.6407 46.7142 95.7954 47.3393C95.8022 47.3662 95.8089 47.3965 95.8156 47.4267C95.8223 47.3931 95.8324 47.3595 95.8459 47.3259C96.0443 46.7344 96.4343 46.3815 96.9522 46.3344C97.5305 46.2807 98.1627 46.6268 98.4586 47.1612C98.7075 47.6082 98.6671 48.1056 98.3477 48.5291C97.9139 49.1004 97.0127 49.2718 96.4209 48.8954C96.3469 48.8484 96.2796 48.798 96.2225 48.7408C96.4276 49.5037 96.3973 50.9724 96.0308 51.9236C95.9568 52.1185 95.8021 52.2697 95.6105 52.3437C95.4255 52.4142 95.2238 52.4042 95.0489 52.3168C93.8485 51.7051 93.1928 50.2398 92.6648 48.7879C92.6547 48.929 92.6446 49.0702 92.6278 49.208C92.3151 51.7958 90.8692 54.0241 89.6418 55.6776C89.3795 56.0272 88.7036 56.3196 88.2799 56.2691C88.0782 56.2456 87.937 56.1482 87.8697 55.9902C87.8596 55.97 87.8596 55.9465 87.8697 55.923C88.5893 54.293 88.976 52.5756 89.0399 50.8884C88.7978 52.552 88.3203 54.1888 87.6276 55.7112C87.5637 55.849 87.4359 55.9398 87.2846 55.9566C87.1333 55.9734 86.9921 55.9129 86.9013 55.7919C86.5448 55.3214 86.528 54.5887 86.5112 53.8863C86.5078 53.7653 86.5045 53.651 86.5011 53.5368C86.4171 53.9165 86.3061 54.2896 86.1716 54.6559C86.1615 54.6828 86.1346 54.7063 86.1043 54.7097C85.3276 54.8341 85.072 54.0879 84.7189 53.0595C84.2347 51.6446 83.5017 49.5105 80.936 47.8435C80.8855 48.0485 80.7914 48.2703 80.6401 48.5056C80.4316 48.8316 80.1357 49.1945 79.7893 49.5676C80.9561 49.2954 81.9548 49.5037 82.6946 50.1826C83.1015 50.5557 85.1191 53.0696 84.2851 54.0577C84.0296 54.3602 83.6631 54.5719 83.2226 54.6727C82.4592 54.8441 81.7598 54.9786 81.0839 55.1063C77.4422 55.802 74.8093 56.3061 69.5198 61.6163C68.4808 62.6581 67.2602 64.2579 66.016 66.0661C66.4464 65.8442 66.8398 65.7501 67.1795 65.8241C67.852 65.9686 68.3093 66.5904 68.6691 67.1785C69.0558 67.8171 69.54 71.3325 67.7881 74.4615C66.7927 76.236 64.7752 78.2996 60.7467 78.8609L71.5979 78.8205C71.6719 78.5819 71.6618 78.3601 71.5206 78.1484C71.4668 78.0677 71.4063 77.9938 71.3457 77.9165C71.2247 77.7619 71.0969 77.6039 71.0229 77.4123C70.727 76.646 71.4231 75.9873 72.0956 75.3488C72.5496 74.9186 73.017 74.4783 73.1851 74.0078C73.2624 73.7927 73.1683 73.5473 72.9733 73.4633C72.7917 73.3827 72.6336 73.46 72.3915 73.5742C72.0519 73.7355 71.5879 73.954 70.7775 73.8565C70.4513 73.8162 70.4042 73.9607 70.3269 74.2027C70.2294 74.5153 70.0915 74.9387 69.2004 74.9152C69.0726 74.9118 68.8574 74.8345 68.6691 74.6295C68.5178 74.4648 68.3396 74.1691 68.3665 73.6986C68.4236 72.6567 69.1096 72.0484 69.8359 71.4065C70.1352 71.141 70.4446 70.8687 70.7203 70.5562C71.2684 69.931 72.1561 68.6707 71.9275 67.2592C71.9241 67.2289 71.9342 67.1987 71.9578 67.1819C71.9813 67.1617 72.0115 67.1583 72.0385 67.1684C72.4588 67.3163 72.8152 67.6322 73.0304 68.0221L73.1414 66.9735C73.1448 66.95 73.1582 66.9264 73.175 66.913C73.1952 66.8995 73.2187 66.8928 73.2423 66.8996C73.6088 66.9836 73.8005 67.3129 73.982 67.6322C74.0426 67.733 74.1031 67.8406 74.167 67.9347C74.2275 68.0187 74.3587 68.1498 74.5302 68.3178C75.4751 69.2421 77.6204 71.3527 77.1934 75.2278C77.2539 75.1774 77.3144 75.1337 77.3682 75.09L77.3918 75.0732C77.9399 74.6631 78.0105 73.833 77.8323 73.1877C77.728 72.8079 77.5565 72.445 77.3884 72.0887C77.19 71.672 76.9849 71.2384 76.8874 70.7713C76.8201 70.452 76.8537 70.1361 76.9882 69.884C77.2539 69.3731 77.7381 69.3093 78.2089 69.2421C78.414 69.2152 78.6292 69.1849 78.8175 69.1177C79.4228 68.8993 79.8162 68.1834 79.6851 67.5549L78.3232 67.7935C78.2997 67.7969 78.2728 67.7902 78.256 67.7767C78.2358 67.7599 78.2257 67.7364 78.2257 67.7129L78.2324 66.0123C78.2324 65.9888 78.2425 65.9652 78.2627 65.9484C78.2829 65.9316 78.3098 65.9249 78.3333 65.9316L79.6346 66.1837L79.3858 64.7385C79.3824 64.715 79.3892 64.6881 79.406 64.6713C79.4228 64.6511 79.4463 64.6411 79.4699 64.6411L81.1478 64.6478C81.1714 64.6478 81.1949 64.6579 81.2117 64.6747C81.2285 64.6915 81.2352 64.715 81.2319 64.7385L81.0839 66.1602L82.3315 65.8711C82.3584 65.8644 82.3819 65.8711 82.4021 65.8879C82.4223 65.9047 82.4323 65.9283 82.4323 65.9552L82.429 67.6423C82.429 67.6658 82.4189 67.6894 82.3987 67.7062C82.3785 67.723 82.355 67.7297 82.3281 67.723L81.0268 67.481C80.8754 68.1498 81.3025 68.9228 81.9548 69.1379C82.0961 69.1849 82.2575 69.2152 82.4122 69.2454C82.8493 69.3295 83.2999 69.4202 83.4613 69.8369C83.5588 70.0924 83.4916 70.3646 83.4075 70.6402L82.6644 73.0869C82.4996 73.6314 82.3886 74.1893 82.698 74.5623C82.8123 74.7001 82.9737 74.7942 83.1452 74.8917C83.31 74.9858 83.4815 75.0866 83.616 75.2345C83.9489 75.6075 83.922 76.2327 83.5555 76.5721C83.4243 76.6931 83.2696 76.7704 83.115 76.8477C82.9502 76.9317 82.7921 77.009 82.6778 77.1334C82.4592 77.372 82.429 77.7383 82.4155 78.0946C82.4088 78.2626 82.4122 78.434 82.4088 78.6021C83.0477 78.8777 83.69 79.1398 84.312 79.3717C84.3221 79.3583 84.3322 79.3482 84.3423 79.3347C84.9778 78.6155 86.2926 76.6729 84.8265 74.196C84.46 73.5742 85.1191 73.1676 85.7008 72.8079C85.8286 72.7273 85.9564 72.65 86.0741 72.5693C86.1413 72.5223 86.2153 72.4719 86.2926 72.4248C85.7748 72.119 85.3377 71.7795 85.2132 71.4065C84.961 70.6267 85.2939 69.9613 86.0875 69.6723C86.6154 69.4773 87.2308 69.6454 87.5805 70.0789C87.8361 70.3948 87.9437 70.7074 87.8966 71.0132C87.8058 71.598 87.1703 72.0484 86.6121 72.4147C86.8206 72.5324 87.0324 72.6399 87.2308 72.7441C87.9403 73.1138 88.5019 73.4062 88.5019 73.7087C88.5019 73.8498 88.4447 74.0481 88.3707 74.3237C88.1253 75.2244 87.7117 76.7301 88.5591 78.4071C88.5893 78.4676 88.6801 78.5953 88.7843 78.7466C89.1441 79.2608 89.3963 79.6406 89.3526 79.8254C89.3459 79.8557 89.3325 79.8792 89.3224 79.9061H89.4703C89.699 78.9113 89.8772 77.3451 89.9949 74.6867C90.0184 74.1388 90.0352 73.2112 90.0453 72.529C90.0487 72.2232 89.8469 71.9543 89.5409 71.8635C89.1139 71.7358 88.5893 71.4065 88.4481 70.9763C88.3707 70.741 88.4212 70.499 88.5893 70.2772C88.7339 70.089 88.9289 69.9176 89.1172 69.7529C89.5409 69.3799 89.9411 69.0303 89.8806 68.4691C89.8839 66.9937 89.7965 66.2778 89.2585 65.6493L89.2181 65.6023C89.124 65.4914 89.0231 65.3804 88.976 65.2326C88.9188 65.0477 88.976 64.8024 89.171 64.7251C89.3022 64.6713 89.4333 64.7184 89.5477 64.7553C89.6149 64.7788 89.6788 64.799 89.7393 64.8024C89.8705 64.8091 89.9949 64.7251 90.126 64.6377C90.2605 64.547 90.4018 64.4495 90.5733 64.4394C90.738 64.4327 90.8793 64.4999 91.0171 64.5671C91.1382 64.6276 91.2559 64.6881 91.3736 64.678C91.4005 64.678 91.4274 64.6713 91.4509 64.6646C91.3702 64.6175 91.2962 64.5503 91.2256 64.4697C90.9936 64.1974 90.8557 63.7672 91.0743 63.4177C91.1752 63.2564 91.3467 63.1488 91.5316 63.1287C91.6863 63.1152 91.8275 63.1589 91.9385 63.2564C92.0663 63.3706 92.147 63.5488 92.1503 63.7403C92.1571 63.9722 92.0629 64.1873 91.9923 64.3319C91.9486 64.4159 91.8948 64.5066 91.8275 64.5906C91.9116 64.5839 91.9957 64.5604 92.0864 64.5369C92.2378 64.4965 92.3958 64.4562 92.5572 64.4865C92.6816 64.51 92.7859 64.5738 92.8868 64.6377C92.9843 64.6982 93.0784 64.7553 93.1793 64.7688C93.2903 64.7822 93.4147 64.752 93.5357 64.7217C93.7308 64.6713 93.9527 64.6142 94.1309 64.7654C94.2486 64.8629 94.3024 65.0309 94.2722 65.199C94.2318 65.4141 94.1007 65.5653 93.9729 65.7132L93.9056 65.7905C93.4517 66.3383 93.0549 67.4743 93.1793 68.4321C93.2432 68.9261 93.4349 69.2891 93.7476 69.5109C93.8115 69.5546 93.8787 69.6017 93.9527 69.6487C94.3192 69.8907 94.7732 70.1898 94.8236 70.6637C94.8707 71.104 94.3226 71.4569 93.8855 71.7392C93.677 71.8736 93.4618 72.0114 93.408 72.1055C93.4012 72.2601 93.3575 73.3591 93.3878 74.0313C93.418 74.6262 93.4214 75.1807 93.4281 75.7185C93.4483 77.4291 93.4618 78.8541 94.1982 80.3094C94.2385 80.0472 94.2587 79.7616 94.2587 79.4591C94.2587 79.4456 94.2654 79.4389 94.2722 79.4288C94.2856 79.3986 94.3091 79.3751 94.3428 79.3751C95.6004 79.3717 97.961 79.3717 100.594 79.3717C100.567 79.365 100.56 79.3482 100.55 79.3179C100.543 79.2978 100.547 79.2742 100.56 79.2541C100.56 79.2541 100.56 79.2541 100.56 79.2507C102.067 76.2696 103.644 73.4936 106.374 72.25C108.506 71.2788 111.206 71.3426 114.623 72.4416C115.309 72.6634 116.005 72.9121 116.674 73.1507C118.597 73.8397 120.588 74.5489 122.643 74.7068C127.646 74.3237 131.856 73.2919 136.45 72.082C136.83 71.9812 137.3 71.8568 137.64 71.5678C137.65 71.5577 137.66 71.5342 137.674 71.5039C137.193 69.8403 136.789 61.3575 137.509 58.6621C137.697 57.9597 137.949 57.6169 138.276 57.6169C138.561 57.6169 138.783 57.8286 138.938 58.2487C139.493 59.7476 139.126 63.6362 138.857 65.8174C138.578 68.0759 138.111 70.7914 137.838 71.5207C137.859 71.5812 137.879 71.6216 137.896 71.6417C138.151 71.7862 138.481 71.7829 138.77 71.7694C142.183 71.588 145.051 69.7697 146.86 68.2741C147.086 68.0893 147.355 67.854 147.664 67.5784C149.066 63.8344 153.34 59.9829 156.461 58.4705C153.36 55.7348 150.038 53.1872 146.598 50.875Z" fill="#DEA259"/>
<path d="M89.3325 79.9292C89.1442 80.4333 88.6062 80.4804 88.3035 80.5073C87.4965 80.5711 86.0136 80.1745 84.3692 79.5696L84.3356 79.6065C84.1137 79.8553 83.8817 80.1107 83.7304 80.4064C83.5723 80.7156 83.4815 81.1694 83.6967 81.5155C83.9321 81.8987 84.9611 82.2952 86.0371 82.4196C86.9921 82.5305 87.779 82.4129 88.2497 82.1003C88.3103 82.0499 88.3741 81.9961 88.438 81.9457C88.4616 81.9188 88.4851 81.8953 88.5053 81.8684C88.8819 81.4483 89.2148 81.0752 89.4804 79.9326H89.3325V79.9292Z" fill="#DC9947"/>
<path d="M156.612 58.5815C155.711 59.8217 150.701 64.8361 147.977 67.3131C149.477 63.6968 153.599 60.0234 156.612 58.5815Z" fill="#E3B172"/>
<path d="M147.338 70.3109C145.842 70.6268 144.11 71.0066 142.244 71.4132C136.978 72.566 131.012 73.87 127.377 74.391C126.328 74.5422 125.296 74.6766 124.27 74.717C128.611 74.2565 132.418 73.3155 136.527 72.2333C136.921 72.1291 137.415 71.998 137.781 71.6855C137.802 71.7258 137.825 71.756 137.845 71.7661C138.148 71.9409 138.508 71.9375 138.82 71.9207C142.277 71.7359 145.182 69.8975 147.008 68.3851C147.177 68.2473 147.372 68.0793 147.587 67.8877C147.405 68.4355 147.291 68.98 147.25 69.511C147.227 69.7899 147.227 70.0756 147.338 70.3109Z" fill="#E3B172"/>
<path d="M137.858 58.2323C137.993 57.9264 138.144 57.7719 138.309 57.7719C138.497 57.7719 138.649 57.9096 138.773 58.192C139.742 60.3799 138.309 69.2828 137.798 71.2019C137.384 69.1349 136.9 60.4437 137.858 58.2323Z" fill="#DEA259"/>
<path d="M120.417 74.6836H118.958C118.91 74.6836 118.873 74.7205 118.873 74.7676V76.5858H117.37V74.7676C117.37 74.7205 117.333 74.6836 117.286 74.6836H115.521C115.474 74.6836 115.437 74.7205 115.437 74.7676V76.5858H113.867V74.7676C113.867 74.7205 113.83 74.6836 113.782 74.6836H112.31C112.286 74.6836 112.266 74.6936 112.249 74.7104C112.232 74.7273 112.226 74.7474 112.226 74.7709L112.303 78.2662C112.303 78.283 112.31 78.2965 112.316 78.3099L112.986 79.3148C110.83 78.6729 107.044 78.152 100.991 79.1501C100.924 79.1602 100.86 79.1703 100.806 79.1804C102.279 76.28 103.832 73.5946 106.469 72.3948C108.56 71.4403 111.22 71.5076 114.596 72.5931C115.282 72.8149 115.975 73.0603 116.644 73.3023C118.443 73.9475 120.303 74.6096 122.226 74.8281C121.695 75.0936 121.261 75.7254 121.086 76.3001L120.494 77.4563V74.7709C120.501 74.7205 120.464 74.6836 120.417 74.6836Z" fill="#E3B172"/>
<path d="M119.603 87.7106C119.714 88.0769 120.003 88.534 120.336 89.065C121.046 90.1875 121.927 91.5857 121.843 93.1417C121.812 93.6996 120.467 93.9483 117.834 93.8811C117.717 93.8778 117.626 93.8744 117.565 93.8744C116.083 93.8677 114.872 93.8106 113.756 93.6896C113.083 93.6156 112.468 93.5249 111.873 93.4106C111.778 93.3938 111.688 93.377 111.607 93.3636C111.328 93.3165 111.146 93.2863 111.055 93.1653C110.988 93.0745 110.965 92.9199 110.981 92.6813C111.052 91.5218 111.63 90.6345 112.242 89.6901C112.616 89.1154 113.006 88.5206 113.261 87.8585C113.581 87.0384 113.883 80.6595 113.893 80.3906C113.893 80.3738 113.89 80.3537 113.88 80.3402L112.471 78.2296L112.394 74.8452H113.698V76.6634C113.698 76.7105 113.735 76.7475 113.782 76.7475H115.521C115.568 76.7475 115.605 76.7105 115.605 76.6634V74.8452H117.202V76.6634C117.202 76.7105 117.239 76.7475 117.286 76.7475H118.958C119.005 76.7475 119.042 76.7105 119.042 76.6634V74.8452H120.333V77.7456L119.812 78.7976L119.502 79.4025C119.496 79.4126 119.496 79.4227 119.496 79.4362L119.042 80.3503C119.035 80.3604 119.035 80.3738 119.032 80.3839C119.032 80.441 118.84 85.1664 119.603 87.7106Z" fill="#E3B172"/>
<path d="M112.558 79.3651C110.817 79.3651 105.561 79.3617 100.994 79.3617C100.9 79.3617 100.806 79.3617 100.712 79.3617C100.776 79.355 100.87 79.3382 101.021 79.3147C106.694 78.377 110.366 78.7803 112.558 79.3651Z" fill="#E3B172"/>
<path d="M89.6085 71.6959C89.2084 71.5783 88.7443 71.2724 88.63 70.9195C88.5695 70.7381 88.6098 70.5532 88.7443 70.3751C88.8788 70.2003 89.057 70.0424 89.2487 69.8743C89.6859 69.4912 90.1398 69.0912 90.0692 68.4527C90.0726 66.9436 89.9818 66.2042 89.4068 65.5321L89.3664 65.485C89.279 65.3842 89.1949 65.2867 89.1579 65.1725C89.1243 65.0616 89.1546 64.9103 89.2554 64.87C89.3294 64.8397 89.4168 64.87 89.5144 64.9036C89.5883 64.9305 89.6657 64.9574 89.7497 64.9607C89.938 64.9641 90.0927 64.8666 90.2407 64.7658C90.3617 64.6818 90.4761 64.6045 90.6038 64.5978C90.7215 64.5843 90.8392 64.6482 90.9637 64.7087C91.1015 64.7759 91.2394 64.8431 91.4008 64.8364C91.5084 64.8297 91.5992 64.7927 91.6799 64.7389C91.6833 64.7389 91.6866 64.7389 91.6866 64.7389C91.8447 64.7658 91.9993 64.7255 92.1473 64.6885C92.2852 64.6515 92.4163 64.6179 92.5441 64.6415C92.6382 64.6616 92.7257 64.712 92.8198 64.7692C92.9274 64.8364 93.0417 64.9036 93.1763 64.9238C93.3175 64.9439 93.4621 64.907 93.5999 64.8734C93.7782 64.8297 93.9328 64.7893 94.0472 64.8801C94.1178 64.9406 94.1514 65.0481 94.1312 65.1557C94.101 65.3237 93.99 65.4548 93.8723 65.5926L93.8051 65.6732C93.3276 66.2479 92.9106 67.441 93.0418 68.4426C93.1124 68.977 93.3309 69.3903 93.6806 69.6391C93.7445 69.6861 93.8152 69.7332 93.8891 69.7802C94.2422 70.0155 94.6457 70.2776 94.6861 70.6708C94.7231 71.0103 94.222 71.3296 93.8219 71.585C93.5495 71.7598 93.3377 71.8942 93.2738 72.0353C93.2704 72.0454 93.2671 72.0555 93.2671 72.0656C93.2671 72.079 93.2132 73.2957 93.2469 74.025C93.2738 74.6165 93.2805 75.171 93.2872 75.7054C93.3074 77.5169 93.3242 79.0091 94.1783 80.5652C93.8084 82.3162 92.5777 83.1161 91.5185 83.4791C89.7296 84.0941 87.8431 83.7513 87.6279 83.5799C87.981 82.7027 88.3139 82.3297 88.6333 81.9701C89.3563 81.1601 89.928 80.5182 90.1835 74.677C90.2071 74.1258 90.2239 73.1982 90.234 72.5126C90.2373 72.1395 89.9851 71.8068 89.6085 71.6959Z" fill="#DC9947"/>
<path d="M91.6427 64.5567C91.5284 64.513 91.4343 64.4256 91.3704 64.3517C91.1787 64.1265 91.061 63.7769 91.2359 63.498C91.3098 63.3804 91.4343 63.2997 91.5688 63.2896C91.5822 63.2896 91.5957 63.2863 91.6091 63.2863C91.6999 63.2863 91.7806 63.3165 91.8445 63.3736C91.9387 63.4577 91.9958 63.5921 91.9992 63.7366C92.0025 63.8845 91.9588 64.0458 91.858 64.2475C91.8176 64.3382 91.7436 64.4659 91.6427 64.5567Z" fill="#DC9947"/>
<path d="M87.4631 83.553C87.4531 83.5766 87.4396 83.6371 87.5001 83.6942C87.7792 83.9698 90.0625 84.2891 91.9085 83.5161C92.8366 83.1262 93.9093 82.3465 94.3027 80.7837C94.444 81.019 94.602 81.2542 94.7836 81.4962C94.8677 81.6037 94.9719 81.7214 95.0896 81.8592C95.5166 82.3431 96.1051 83.0019 96.2463 83.9127C96.3069 84.3092 96.0378 84.6857 95.6444 84.7596C94.1615 85.0285 92.6685 84.978 91.0881 84.9276C90.4828 84.9075 89.8573 84.8873 89.2218 84.8839C88.6468 84.8806 87.7019 84.5344 87.4867 83.916C87.3656 83.5665 87.4934 83.1598 87.8599 82.7229C87.7322 82.9447 87.5977 83.2136 87.4631 83.553Z" fill="#DC9947"/>
<path d="M86.4744 72.509C86.7031 72.6401 86.9452 72.7645 87.1772 72.8854C87.7321 73.1745 88.3575 73.5005 88.3575 73.6988C88.3575 73.8164 88.3004 74.0181 88.2331 74.2701C87.9977 75.1339 87.5538 76.7404 88.4315 78.4746C88.4651 78.5451 88.5559 78.6729 88.6702 78.8342C88.8552 79.0997 89.2419 79.6509 89.2116 79.7786C89.104 80.2357 88.6971 80.3062 88.2936 80.3398C87.5303 80.4037 86.0978 80.0172 84.4972 79.429C85.1596 78.6729 86.5013 76.6631 84.9915 74.1054C84.7259 73.6584 85.1428 73.356 85.812 72.9459C85.9431 72.8653 86.0743 72.7846 86.192 72.7006C86.276 72.6401 86.3736 72.5763 86.4744 72.509Z" fill="#DC9947"/>
<path d="M86.4711 72.3139C85.96 72.0148 85.506 71.6854 85.3951 71.346C85.1698 70.6503 85.4589 70.0823 86.1685 69.8235C86.2962 69.7765 86.4307 69.7529 86.5652 69.7529C86.9116 69.7529 87.2546 69.9042 87.4765 70.1764C87.7052 70.4553 87.796 70.7209 87.7556 70.9796C87.6682 71.5174 87.0192 71.9543 86.4711 72.3139Z" fill="#DC9947"/>
<path d="M80.0217 92.6373C82.4596 92.56 83.9021 92.2475 84.3056 91.7064C84.4469 91.5148 84.4637 91.2997 84.3527 91.0645C84.1812 90.7015 83.8046 90.5032 83.4986 90.3721C82.362 89.8848 80.9531 89.7168 79.524 89.9016C79.1137 89.9554 77.7216 90.1638 76.9381 90.6847C76.5178 90.9636 76.3429 91.2863 76.4102 91.6526C76.4842 92.0559 76.881 92.2777 77.2206 92.4256C77.2508 92.4391 77.2811 92.4525 77.3114 92.4659C76.622 92.4391 76.084 92.3954 75.8385 92.3584C75.6301 92.3248 75.4317 92.2878 75.2938 92.1635C74.9945 91.8946 75.1391 91.3737 75.1896 91.2224C75.4081 90.5704 75.8486 90.0125 76.279 89.4748C76.5144 89.179 76.7565 88.8765 76.9617 88.5539C78.0478 86.8701 78.1453 84.8065 78.2395 82.8102C78.2764 82.0305 78.3134 81.2272 78.4076 80.4576C78.4244 80.3332 78.4412 80.2055 78.458 80.0812C78.532 79.5468 78.6094 78.9956 78.5522 78.4478C78.4715 77.6647 78.0949 77.0161 77.5468 76.7169C77.3854 76.6296 77.1466 76.2229 77.1029 76.0179C77.0962 75.9843 77.0995 75.9708 77.0962 75.9708C77.1029 75.9675 77.1163 75.9641 77.1332 75.9641C77.1533 75.9776 77.1769 75.9876 77.197 75.9977C78.1352 76.7371 80.1528 77.8092 82.2544 78.7234C82.2107 81.0659 82.3284 83.4252 82.6243 85.7476C82.7218 86.5071 82.8463 87.3104 83.2027 88.0027C83.3607 88.3119 83.6802 88.6883 84.0501 89.1252C84.9782 90.2209 86.1316 91.582 85.2102 92.4995C84.8538 92.8524 84.3225 92.9835 83.8517 93.0675C82.009 93.3902 80.0687 93.2457 78.2865 92.6575C78.838 92.6575 79.4332 92.6575 80.0217 92.6373Z" fill="#E3B172"/>
<path d="M77.799 92.4758C77.6275 92.4086 77.456 92.3414 77.2879 92.2675C76.9886 92.1364 76.6355 91.9415 76.575 91.6188C76.5212 91.3231 76.6691 91.0643 77.0323 90.8223C77.8024 90.3115 79.2617 90.1031 79.5442 90.0661C80.943 89.888 82.3217 90.0527 83.4314 90.5265C83.7105 90.6475 84.0535 90.8257 84.2014 91.1349C84.2855 91.313 84.2754 91.4676 84.1712 91.6054C83.5592 92.4254 80.1057 92.5363 77.799 92.4758Z" fill="#E3B172"/>
<path d="M82.2575 78.5246C80.6132 77.8053 79.0294 76.9987 77.9937 76.34C78.6359 76.5753 79.3118 76.7164 79.9944 76.7534C80.2769 76.7668 80.5728 76.7635 80.8317 76.6257C81.0873 76.4879 81.3059 76.172 81.205 75.856C81.1243 75.604 80.8755 75.4292 80.4619 75.3385C79.4262 75.1133 78.34 75.2578 77.3951 75.7384C77.3245 75.7754 77.2472 75.7787 77.1799 75.7821C77.1631 75.7687 77.153 75.7552 77.1396 75.7418C77.153 75.6544 77.1597 75.5737 77.1732 75.4897C77.2438 75.4057 77.3548 75.3149 77.4826 75.2208L77.5061 75.204C78.1618 74.7167 78.1854 73.7891 78.0105 73.1405C77.9029 72.7472 77.728 72.3742 77.5565 72.0146C77.3615 71.6046 77.1631 71.1845 77.069 70.7341C77.0084 70.4518 77.0387 70.1762 77.153 69.9611C77.3783 69.5275 77.802 69.4704 78.2492 69.4099C78.4644 69.3797 78.6864 69.3494 78.8915 69.2755C79.6111 69.0167 80.0516 68.1765 79.8465 67.4371C79.8364 67.3968 79.7961 67.3665 79.7523 67.3766L78.4107 67.6119L78.4174 66.1129L79.7355 66.3717C79.7624 66.3784 79.7893 66.3683 79.8095 66.3482C79.8297 66.328 79.8398 66.3011 79.833 66.2742L79.5808 64.8055L81.0638 64.8123L80.9158 66.2608C80.9124 66.2877 80.9225 66.3146 80.9427 66.3314C80.9629 66.3482 80.9898 66.3583 81.0167 66.3515L82.2777 66.0591L82.2743 67.5379L80.9965 67.2993C80.9528 67.2892 80.9124 67.3161 80.899 67.3598C80.6703 68.1395 81.1478 69.0436 81.9179 69.2956C82.0692 69.3461 82.234 69.3763 82.3954 69.4099C82.8056 69.4906 83.1923 69.5645 83.3201 69.8972C83.4008 70.1023 83.3369 70.3442 83.2629 70.5929L82.5198 73.0396C82.3483 73.6009 82.2239 74.2361 82.5837 74.673C82.7182 74.8343 82.8998 74.9385 83.0746 75.0394C83.236 75.1335 83.3873 75.2208 83.5017 75.3486C83.7707 75.651 83.7471 76.1753 83.4512 76.4509C83.3403 76.5551 83.199 76.6257 83.0511 76.6996C82.8796 76.787 82.7014 76.8744 82.5635 77.0223C82.3046 77.3046 82.2709 77.7045 82.2575 78.091C82.2575 78.2288 82.2609 78.3767 82.2575 78.5246Z" fill="#E3B172"/>
<path d="M77.4154 75.9134C77.4322 75.9067 77.4524 75.9 77.4726 75.8899C78.3805 75.4261 79.4296 75.2883 80.4283 75.5034C80.7781 75.5807 80.9865 75.7151 81.0471 75.9067C81.1177 76.1285 80.9529 76.3738 80.7545 76.478C80.5326 76.5957 80.2636 76.599 80.0046 76.5856C79.1102 76.5385 78.2191 76.3066 77.4154 75.9134Z" fill="#E3B172"/>
<path d="M71.7258 78.9921C75.2162 79.3013 76.5881 80.696 77.1262 81.8152C77.3346 82.2454 77.3279 82.7428 77.1093 83.173C76.8941 83.5998 76.5074 83.8955 76.0434 83.9863C73.4542 84.4938 71.5072 83.7981 70.4614 83.425C70.1521 83.3141 69.957 83.015 69.9738 82.6789C70.0411 81.5564 70.6464 80.6792 71.1306 79.9734C71.3828 79.6172 71.6047 79.2945 71.7258 78.9921Z" fill="#DC9947"/>
<path d="M84.5982 45.5684C86.0374 47.4236 86.7233 49.8669 86.535 52.2161C86.1887 49.9207 85.3985 47.716 84.5982 45.5684Z" fill="#E3B172"/>
<path d="M95.9736 48.0149C95.9366 47.82 95.9333 47.5982 96.0072 47.3797C96.1821 46.8554 96.5251 46.5428 96.969 46.5025C97.4767 46.4555 98.0484 46.7647 98.314 47.2419C98.5326 47.6351 98.499 48.0552 98.2165 48.4249C97.8332 48.9291 97.0362 49.0837 96.515 48.7509C96.2191 48.5627 96.0711 48.3039 95.9736 48.0149Z" fill="#E3B172"/>
<path d="M97.6617 6.70665C100.103 3.59785 104.044 1.70233 108.758 1.36624C115.87 0.862115 121.98 3.25505 125.101 7.76532C127.784 11.6438 127.777 17.2732 126.409 20.6307C125.366 20.8323 124.364 21.4037 123.584 22.2506C122.871 23.027 122.407 23.968 122.249 24.9292C121.852 22.7245 120.494 20.5668 118.486 19.0074C115.749 16.88 111.845 15.6264 108.244 15.6264C107.524 15.6264 106.818 15.6768 106.136 15.781C105.554 15.8684 104.975 16.0566 104.414 16.2414C103.583 16.5103 102.726 16.7892 101.872 16.7355C101.387 16.7052 100.893 16.6582 100.416 16.6077C99.8777 16.554 99.3195 16.5002 98.768 16.4699L98.5124 16.4565C97.4835 16.396 95.9333 16.3053 95.1296 16.9909C94.8371 17.2396 94.6757 17.5824 94.5815 17.9554C94.4874 14.151 94.9111 10.2087 97.6617 6.70665Z" fill="#DC9947"/>
<path d="M124.812 24.8249C123.914 24.9829 122.972 25.4971 122.357 25.8836C122.357 25.8802 122.357 25.8769 122.357 25.8735C122.3 24.6401 122.791 23.363 123.709 22.3614C124.439 21.5683 125.363 21.0272 126.332 20.8154C126.207 21.1112 126.073 21.4069 125.935 21.7195C125.481 22.7311 125.017 23.7696 124.812 24.8249Z" fill="#E3B172"/>
<path d="M124.957 24.9697C125.367 24.9125 125.757 24.9428 126.093 25.1075C126.688 25.4032 127.048 25.9578 127.085 26.6333C127.125 27.3727 126.759 28.102 126.154 28.4952C125.569 28.8716 124.859 29.0161 124.21 29.1069C124.829 28.3507 124.842 27.2887 124.856 26.3443C124.859 26.0384 124.866 25.7494 124.886 25.4805C124.903 25.3091 124.926 25.1377 124.957 24.9697Z" fill="#E3B172"/>
<path d="M94.5348 20.7853C94.5617 21.3297 94.592 21.8675 94.6289 22.4086C94.5583 21.8776 94.5348 21.3365 94.5348 20.7853Z" fill="#121A44"/>
<path d="M94.6154 18.9366V18.9332C94.6624 18.2442 94.7499 17.5351 95.2374 17.1184C95.9907 16.4798 97.5005 16.5672 98.5026 16.6243L98.7615 16.6378C99.3096 16.6646 99.8644 16.7218 100.399 16.7755C100.877 16.8226 101.371 16.873 101.862 16.9033C102.746 16.957 103.62 16.6747 104.464 16.3991C105.019 16.2176 105.594 16.0328 106.159 15.9454C110.218 15.3304 115.127 16.6176 118.379 19.1416C120.635 20.8926 122.058 23.4132 122.186 25.8835C122.186 25.8936 122.186 25.9036 122.186 25.9137C122.189 25.9574 122.226 25.9944 122.27 25.9944C122.276 25.9944 122.283 25.9944 122.29 25.991C122.293 26.0011 122.297 26.0078 122.3 26.0179C122.323 26.0582 122.377 26.0683 122.418 26.0448C123.006 25.6717 123.917 25.1676 124.778 25.0029C124.751 25.1575 124.731 25.3121 124.718 25.4701C124.694 25.7457 124.691 26.0381 124.684 26.3473C124.671 27.332 124.654 28.4512 123.931 29.167C123.904 29.1939 123.897 29.2309 123.914 29.2645C123.931 29.2981 123.964 29.3149 124.001 29.3116C124.728 29.2174 125.558 29.083 126.241 28.6427C126.9 28.2193 127.293 27.4295 127.25 26.6296C127.209 25.8936 126.813 25.2852 126.164 24.9626C125.814 24.7878 125.407 24.7509 124.987 24.8046C125.195 23.7897 125.646 22.778 126.086 21.7967C126.241 21.4471 126.389 21.1178 126.527 20.7851C126.722 20.7514 126.92 20.7313 127.119 20.7246C127.969 20.6943 128.544 20.9665 128.823 21.5278C129.042 21.9714 129.076 22.4722 129.096 23.0335C129.153 24.7173 129.065 28.8578 127.045 30.9752C126.241 31.8188 125.205 32.2523 123.968 32.2691C123.806 32.2691 123.652 32.259 123.507 32.2355C123.453 31.4961 123.315 30.7971 123.08 30.219C123.067 30.1887 123.04 30.1686 123.009 30.1686C122.727 30.145 122.468 30.2862 122.297 30.5584C122.078 30.9012 122.061 31.3482 122.249 31.6675C122.458 32.0204 122.848 32.2691 123.342 32.3767C123.43 33.9294 123.161 35.6535 122.7 36.7458C121.92 38.5942 120.568 40.1705 119.475 41.3401C117.226 43.7464 113.433 46.9561 108.147 48.5827C106.415 49.1171 104.562 48.4718 102.642 46.667C102.06 46.1192 101.203 44.6102 100.332 42.8155C100.823 42.7113 101.32 42.6206 101.821 42.5433C103.099 44.0052 105.382 44.5665 107.299 43.8405C108.254 43.4776 109.115 42.8256 109.717 41.9988C109.737 41.9719 109.737 41.9383 109.724 41.9114C109.71 41.8845 109.683 41.8711 109.646 41.8644C107.057 41.8946 104.411 41.9786 101.889 42.3618C101.845 42.308 101.801 42.2542 101.761 42.2004C102.437 41.4947 103.449 41.1115 104.421 41.2056C104.518 41.2157 104.616 41.2292 104.71 41.2426C104.892 41.2695 105.073 41.293 105.265 41.2897C105.574 41.2863 106.711 37.2499 105.625 37.3911C103.856 37.623 102.524 37.3373 101.667 36.5441C101.499 36.3895 101.391 36.2484 101.327 36.1038C101.125 35.6468 101.341 35.099 101.522 34.7293C101.663 34.4335 101.828 34.1411 101.986 33.8588C102.265 33.358 102.555 32.8405 102.746 32.2859C103.099 31.2608 103.002 30.256 102.491 29.6039C102.232 29.2746 100.645 27.7891 99.814 27.4967C99.4744 27.3791 99.1179 27.295 98.7749 27.2144C98.3277 27.1102 97.8637 26.9993 97.44 26.8144C96.2698 26.2969 95.3249 25.1138 94.8776 23.625C94.7633 22.079 94.686 20.5195 94.6154 18.9366Z" fill="#E3B172"/>
<path d="M123.335 32.199C122.908 32.0948 122.575 31.8797 122.401 31.5806C122.246 31.3185 122.263 30.932 122.444 30.6463C122.572 30.448 122.754 30.3337 122.949 30.3337C123.157 30.8614 123.282 31.51 123.335 32.199Z" fill="#E3B172"/>
<path d="M102.023 42.5065C104.448 42.1469 106.986 42.0629 109.478 42.0293C108.903 42.7653 108.113 43.3468 107.239 43.6761C105.423 44.3651 103.271 43.861 102.023 42.5065Z" fill="#E3B172"/>
<path d="M107.541 26.6302C107.454 26.6571 107.367 26.684 107.279 26.7109C107.246 26.721 107.205 26.7344 107.158 26.7479C106.993 26.8016 106.489 26.963 106.405 26.8689C106.388 26.8487 106.391 26.7848 106.452 26.6672C106.516 26.5462 106.647 26.4521 106.815 26.4051C106.882 26.3883 106.95 26.3782 107.017 26.3782C107.131 26.3782 107.235 26.4051 107.316 26.4555C107.407 26.5092 107.481 26.5697 107.541 26.6302Z" fill="#E3B172"/>
<path d="M107.067 35.0555C107.067 35.2 107.057 35.3176 107.024 35.405C106.977 35.5327 106.903 35.6067 106.808 35.6167C106.718 35.6302 106.617 35.5798 106.553 35.489C106.479 35.3848 106.469 35.2571 106.523 35.1328C106.711 34.9647 106.916 34.9916 107.067 35.0555Z" fill="#E3B172"/>
<path d="M97.0095 34.4305C96.8078 33.466 96.5253 32.4577 96.2496 31.4864C95.8696 30.1354 95.4728 28.7406 95.2845 27.403C95.1365 26.3712 95.0256 25.3293 94.9348 24.274C95.4493 25.5243 96.3235 26.4989 97.376 26.9627C97.8132 27.1576 98.284 27.2685 98.7413 27.3727C99.0809 27.4534 100.285 25.7662 100.618 25.8839C101.344 26.1359 103.657 26.63 103.869 26.8989C104.347 27.5072 102.924 31.2545 102.591 32.2258C102.407 32.7669 102.121 33.2778 101.845 33.7718C101.687 34.0575 101.522 34.3532 101.378 34.6523C101.183 35.0557 100.951 35.6472 101.179 36.1681C101.253 36.3361 101.374 36.4941 101.556 36.6655C102.45 37.4956 103.826 37.7948 105.648 37.5561C106.795 37.4049 107.518 37.005 107.797 36.3664C108.012 35.8757 107.726 35.2909 107.329 35.0086C107.299 34.9851 107.266 34.9649 107.232 34.9481C107.225 34.7767 107.205 34.5818 107.185 34.3566C107.128 33.7718 107.057 33.0425 107.151 32.1989C107.292 30.9319 107.484 29.8631 107.74 28.9389C107.76 28.8582 107.783 28.7776 107.81 28.6969C107.995 28.0583 108.217 27.2921 107.834 26.714C108.621 26.4418 109.384 26.0889 110.124 25.7461L110.504 25.568C110.837 25.4134 111.18 25.2419 111.509 25.0739C112.225 24.7109 112.965 24.3345 113.715 24.1093C114.499 23.8741 115.565 23.9514 116.126 24.6471L110.732 26.0855C110.171 26.2368 109.535 26.4048 109.044 26.8115C108.577 27.2013 108.244 27.9138 108.516 28.5221C108.762 29.07 109.337 28.9221 109.895 28.7809C110.097 28.7305 109.915 28.7977 109.471 28.9019C109.451 28.9053 109.431 28.9221 109.418 28.9389C109.408 28.9591 109.401 28.9792 109.408 29.0027C109.502 29.4027 110.252 30.3135 108.244 29.3758C108.224 29.3657 108.197 29.3657 108.177 29.3758C108.157 29.3859 108.136 29.4027 108.13 29.4262C107.373 31.6209 107.34 36.6151 110.416 40.796C109.054 40.5372 107.635 40.5809 106.294 40.9271L106.129 40.9708C105.847 41.0447 105.557 41.1254 105.268 41.1287C105.093 41.1254 104.922 41.1086 104.737 41.0817C104.639 41.0682 104.538 41.0548 104.441 41.0447C103.395 40.9472 102.306 41.3673 101.596 42.1437C101.569 42.174 101.566 42.2176 101.589 42.2513C101.626 42.3017 101.663 42.3521 101.7 42.3991C101.216 42.4764 100.735 42.5638 100.261 42.6646C98.7884 39.5995 97.292 35.7883 97.0095 34.4305Z" fill="#E3B172"/>
<path d="M101.505 45.4444C101.516 45.4377 101.522 45.4309 101.532 45.4242C101.102 44.7151 100.631 43.8211 100.157 42.8464C98.1932 43.2766 96.3371 43.9387 94.6827 44.9571C94.7802 45.0948 94.8743 45.236 94.9584 45.3772C96.3035 44.2177 99.8039 44.0059 101.112 45.031C101.28 45.1621 101.408 45.3032 101.505 45.4444Z" fill="#DEA259"/>
<path d="M119.6 41.4514C117.337 43.8713 113.52 47.101 108.2 48.7378C107.79 48.8655 107.373 48.926 106.949 48.926C105.527 48.926 104.044 48.2101 102.531 46.7818C102.252 46.5196 101.916 46.0525 101.549 45.4509C101.542 45.4576 101.532 45.4643 101.526 45.4677C101.983 46.1634 101.727 46.9834 101.458 47.8472C101.253 48.5059 101.041 49.1848 101.082 49.904C101.196 51.8499 102.38 53.7018 104.101 54.6227C106.068 55.6746 108.355 55.4393 109.932 55.0562C115.148 53.7858 119.489 49.215 120.484 43.9418C120.571 43.4814 120.639 43.0042 120.703 42.5404C120.871 41.3573 121.046 40.1441 121.557 39.082C120.921 39.9895 120.222 40.786 119.6 41.4514Z" fill="#E3B172"/>
<path d="M42.3161 80.2495C41.1964 78.5287 41.5629 76.2568 42.0673 74.6537C45.3761 64.1577 55.9482 58.34 65.2795 53.208C66.8331 52.3543 68.2992 51.5444 69.7283 50.721C71.1137 49.9211 72.2469 48.7448 73.3465 47.6088C74.4393 46.4762 75.5692 45.3066 76.9411 44.5168C77.079 44.4362 77.2236 44.3589 77.3648 44.2816C77.9634 43.9589 78.5787 43.6262 78.9688 43.0616C79.0596 42.9305 79.1369 42.786 79.2109 42.6482C79.3454 42.3995 79.4698 42.1676 79.6682 41.9928C79.944 41.7508 80.3071 41.6702 80.6905 41.5828C80.8821 41.5391 81.0805 41.4954 81.2655 41.4282C81.7228 41.2669 82.1162 40.9711 82.4962 40.6888C82.7282 40.514 82.9703 40.3359 83.2192 40.1914C84.8736 39.2336 87.1265 39.5596 89.9175 41.1593C93.186 43.0347 95.0556 45.068 95.634 47.3736C95.6508 47.4374 95.6642 47.5013 95.6811 47.5651C95.718 47.7264 95.7584 47.8911 95.8088 48.0491C95.8458 48.2339 95.9097 48.402 95.977 48.5364C96.2359 49.0674 96.2964 50.768 95.8794 51.8569C95.8223 52.0082 95.7046 52.1258 95.5566 52.1829C95.4154 52.2367 95.2641 52.23 95.1329 52.1628C93.8787 51.5209 93.2297 49.8673 92.685 48.3213C92.6782 46.3115 91.8712 44.0463 89.9242 42.9036C89.8906 42.8834 89.8469 42.8902 89.82 42.9204C89.7931 42.9507 89.7931 42.9944 89.8166 43.028C90.7884 44.3085 91.5618 45.72 92.12 47.229C92.2142 47.4845 92.3083 47.7567 92.4058 48.0323C92.4428 48.1398 92.4798 48.244 92.5168 48.3549C92.5168 48.6406 92.5 48.9196 92.4664 49.1884C92.1604 51.7393 90.7279 53.9407 89.514 55.5774C89.2887 55.8833 88.6801 56.1521 88.3068 56.1017C88.1824 56.0883 88.095 56.0379 88.0479 55.9538C88.9625 53.8667 89.3391 51.6418 89.1945 49.5144C89.2147 49.1884 89.2282 48.8624 89.2315 48.5364C89.2483 46.9232 88.9289 44.7991 87.3115 43.8514C87.2778 43.8312 87.2341 43.8379 87.2072 43.8648C87.1803 43.8917 87.177 43.9354 87.1971 43.969C88.2698 45.5889 88.8852 47.5046 89.023 49.5111C88.8818 51.6183 88.3539 53.7189 87.4796 55.6413C87.4426 55.7253 87.3653 55.7791 87.2711 55.7892C87.1837 55.7992 87.0929 55.7623 87.0391 55.6917C86.7163 55.2615 86.6995 54.5591 86.6827 53.8802C86.6759 53.6382 86.6692 53.4097 86.6524 53.1946C86.6423 53.0971 86.6356 52.9996 86.6221 52.9055C87.0425 50.1463 86.2354 47.1685 84.4028 45.0714C84.3759 45.0411 84.3322 45.0344 84.2952 45.0546C84.2616 45.0747 84.2448 45.1184 84.2582 45.1554C85.1897 47.6458 86.1547 50.2168 86.4506 52.9022C86.3632 53.4634 86.2253 54.0146 86.0303 54.549C85.4587 54.6095 85.2468 54.0818 84.8769 53.003C84.3793 51.5545 83.6328 49.3699 80.9696 47.6626C81.0469 47.1349 80.8552 46.7417 80.7375 46.5569C80.5122 46.204 80.1659 45.9788 79.8969 46.0225C79.8565 46.0292 79.8263 46.0595 79.8263 46.0998C79.8094 46.4359 80.5829 47.4609 80.7846 47.7264C80.7409 47.9348 80.6535 48.1634 80.4954 48.4121C80.25 48.7952 79.8969 49.2153 79.4866 49.6455C79.3891 49.6757 79.2882 49.706 79.1874 49.743C77.7011 50.2673 76.4435 51.3192 75.9727 51.746C75.7608 51.9376 74.7083 52.9123 74.9235 53.1979C74.9437 53.2248 74.9807 53.2517 75.0547 53.2517C75.5288 53.2349 77.9802 51.4436 79.5774 49.7867C81.0637 49.3531 82.012 49.7833 82.5803 50.3042C83.0813 50.7613 84.8568 53.1206 84.1573 53.9474C83.9253 54.223 83.589 54.4146 83.1855 54.5053C82.4256 54.6767 81.7262 54.8111 81.0536 54.9389C77.3816 55.6413 74.7285 56.1488 69.4021 61.4925C68.3025 62.5983 66.9978 64.3257 65.6763 66.2582C62.8383 68.0832 58.7594 74.778 58.023 77.3659C57.8481 77.9809 57.8784 78.3237 58.1171 78.4077C58.2617 78.4649 58.4097 78.2599 60.2961 75.1242C61.7555 72.701 63.8067 69.2931 65.8075 66.3624C66.3085 66.0499 66.7658 65.902 67.1424 65.9826C67.7511 66.1137 68.1848 66.7019 68.5245 67.2598C68.9381 67.942 69.2811 71.4474 67.6401 74.3747C66.0059 77.2852 62.8719 78.8312 58.5677 78.8413C58.5442 78.8413 58.524 78.8514 58.5072 78.8648H58.1508C58.1239 78.8547 58.0936 78.8413 58.0667 78.8312C58.0364 78.6598 57.9625 78.4682 57.8784 78.2565C57.5522 77.4398 56.3955 77.0231 55.3766 76.6534C55.8944 76.4013 56.3484 76.0955 56.577 75.6854C57.0007 74.9259 57.0041 73.7731 56.5871 73.064C56.2643 72.5161 55.9415 72.2002 55.5212 71.8171C55.3968 71.7028 55.2421 71.5314 55.0975 71.3432C55.427 70.9466 55.5918 70.5534 55.5044 70.2946C55.4674 70.1871 55.3564 70.0157 55.0033 70.0325C54.7478 70.0459 54.5864 70.14 54.5258 70.3114C54.4283 70.5837 54.6368 70.9903 54.8856 71.3365C54.6906 71.5516 54.4418 71.77 54.1459 71.9717C53.4229 72.4624 52.9353 73.3765 52.932 74.247C52.932 74.8116 53.127 75.6216 54.0652 76.2635C54.2736 76.408 54.5864 76.5391 54.9361 76.6702C54.6873 76.7744 54.4283 76.8718 54.1795 76.9659C53.1909 77.339 52.3368 77.6616 52.33 78.2867C52.3267 78.9791 52.7033 79.1673 53.1774 79.4025C53.2447 79.4362 53.3153 79.4698 53.3859 79.5101C53.4364 79.7252 53.4801 79.9403 53.5204 80.1554C51.5499 80.4679 49.9762 81.0191 48.2344 81.7753C48.2344 81.7753 48.2344 81.7753 48.231 81.7787C48.231 81.7787 48.231 81.7787 48.2276 81.7787C46.3916 82.6996 43.2341 81.6644 42.3161 80.2495Z" fill="#E3B172"/>
<path d="M92.4934 47.7829C92.4194 47.5712 92.3488 47.3662 92.2749 47.1713C91.7671 45.7967 91.0778 44.496 90.227 43.3063C91.6763 44.3582 92.369 46.1126 92.4934 47.7829Z" fill="#E3B172"/>
<path d="M87.5574 44.2235C88.8284 45.2318 89.0537 47.1643 89.0604 48.3742C88.8251 46.8887 88.3207 45.4771 87.5574 44.2235Z" fill="#E3B172"/>
<path d="M80.8252 47.4904C80.499 47.0569 80.0921 46.4553 80.0148 46.1931C80.1863 46.22 80.425 46.3712 80.6033 46.6502C80.6974 46.7947 80.842 47.0905 80.8252 47.4904Z" fill="#E3B172"/>
<path d="M79.2482 49.9001C77.6576 51.4865 75.4248 53.0829 75.0684 53.0862C75.0785 52.8174 76.3059 51.4697 77.93 50.5286C78.4075 50.2497 78.8446 50.0447 79.2482 49.9001Z" fill="#E3B172"/>
<path d="M65.4312 66.634C63.5044 69.484 61.5574 72.7172 60.1586 75.0429C59.1901 76.6494 58.3495 78.0475 58.1511 78.2391C58.0502 78.1584 58.0637 77.8559 58.1915 77.4157C58.8774 75.0127 62.694 68.701 65.4312 66.634Z" fill="#E3B172"/>
<path d="M55.4171 71.9512C55.8274 72.3276 56.1401 72.6334 56.4528 73.1611C56.8362 73.8164 56.8328 74.9154 56.4428 75.6179C56.2141 76.0279 55.7231 76.3337 55.165 76.5858C54.7614 76.4379 54.3949 76.2934 54.1696 76.1388C53.292 75.5372 53.1104 74.7844 53.1104 74.2601C53.1137 73.4434 53.5711 72.583 54.2503 72.1226C54.5395 71.9276 54.7917 71.7058 54.9968 71.484C55.1515 71.6857 55.3129 71.8571 55.4171 71.9512Z" fill="#E3B172"/>
<path d="M54.6941 70.3748C54.7075 70.3379 54.7479 70.2236 55.0236 70.2068C55.0404 70.2068 55.0539 70.2068 55.0707 70.2068C55.2254 70.2068 55.3229 70.2572 55.3565 70.358C55.4204 70.5429 55.2926 70.8655 55.0068 71.215C54.7882 70.9025 54.6234 70.5664 54.6941 70.3748Z" fill="#DC9947"/>
<path d="M41.0822 85.7678C41.6707 86.5105 43.046 88.2481 42.851 89.3639C42.7972 89.6664 42.6358 89.8983 42.3567 90.0697C41.1394 90.8225 38.8965 90.967 37.4035 90.7217C36.842 90.6309 35.9811 90.1369 35.9139 89.3672C35.8534 88.6783 36.4351 87.2801 41.0083 85.6703L41.0822 85.7678Z" fill="#DC9947"/>
<path d="M37.4102 80.131C36.9831 79.8151 36.7007 79.3008 36.6368 78.7161C36.5729 78.1313 36.741 77.5666 37.0941 77.1701C37.4472 76.7735 37.9886 76.5416 38.577 76.5315C38.5871 76.5315 38.5972 76.5315 38.6073 76.5315C39.1857 76.5315 39.7203 76.75 40.0768 77.1297C40.4399 77.5162 40.6215 78.0775 40.5744 78.6656C40.5274 79.2538 40.2583 79.7747 39.838 80.1007C39.5925 80.2889 39.263 80.4435 38.9234 80.5881C38.8393 80.5746 38.7586 80.5612 38.6779 80.5477C38.2206 80.4772 37.7902 80.4099 37.4102 80.131Z" fill="#DC9947"/>
<path d="M63.0033 103.429C63.084 103.042 63.2555 102.686 63.464 102.353C63.6758 102.014 63.928 101.701 64.1768 101.389C64.4257 101.07 64.6779 100.75 64.8796 100.401C64.9805 100.226 65.0679 100.048 65.1385 99.8596C65.2058 99.6815 65.2596 99.4933 65.2731 99.3051C65.3 98.9253 65.2058 98.5455 65.0948 98.1826C64.9738 97.786 64.8225 97.3961 64.6947 97.0029C64.5803 96.6534 64.4761 96.287 64.4795 95.9173C64.4795 95.7594 64.5064 95.6048 64.5635 95.4569C64.6207 95.3191 65.1083 95.3124 65.2159 95.2116C65.3638 95.0704 66.0532 94.8553 66.2415 94.7814H22.4029L22.8232 103.778H62.852C62.8553 103.765 62.8957 103.751 62.9596 103.738C62.9697 103.631 62.9831 103.53 63.0033 103.429Z" fill="#E3B172"/>
<path d="M73.626 94.7747C73.626 94.4957 70.186 94.6974 67.9734 94.7982C68.2458 94.8889 68.5114 95.0099 68.7367 95.1813C68.8881 95.2956 69.0293 95.4368 69.1134 95.6082C69.1974 95.7796 69.2075 95.9678 69.1604 96.1526C69.11 96.3543 69.0091 96.5425 68.9217 96.7307C68.8712 96.8416 68.8208 96.9525 68.7805 97.0668C68.7367 97.1911 68.7098 97.3188 68.6897 97.4499C68.5955 97.9977 68.5955 98.5724 68.7334 99.1135C68.8309 99.5034 69.0057 99.8563 69.2344 100.186C69.4631 100.515 69.7287 100.817 69.9977 101.113C70.2701 101.412 70.5492 101.708 70.8081 102.021C71.0502 102.316 71.2789 102.632 71.4369 102.982C71.5244 103.173 71.5882 103.372 71.6286 103.577C73.4915 103.58 75.0148 103.59 75.388 103.587C76.3464 103.587 73.626 95.2922 73.626 94.7747Z" fill="#E3B172"/>
<path d="M71.5881 103.52C71.5074 103.154 71.3359 102.814 71.1274 102.505C70.9055 102.176 70.6432 101.873 70.3775 101.581C70.1085 101.282 69.8294 100.992 69.5705 100.683C69.3284 100.394 69.0997 100.088 68.9282 99.749C68.7231 99.339 68.6222 98.8819 68.5987 98.4248C68.5852 98.1492 68.5987 97.8736 68.6323 97.6014C68.6491 97.4703 68.6727 97.3392 68.7029 97.2082C68.7298 97.0939 68.7769 96.9796 68.824 96.8721C68.9114 96.6704 69.019 96.4755 69.093 96.2671C69.1569 96.0823 69.1872 95.8873 69.1165 95.6991C68.9921 95.3664 68.0439 94.8556 67.8825 94.8051C66.6854 94.8589 65.8783 94.8824 66.2348 94.7749C66.2348 94.7749 64.6779 95.2152 64.5736 95.5076C64.4593 95.8302 64.5064 96.1865 64.5837 96.5091C64.6745 96.9023 64.8191 97.2787 64.9536 97.6585C65.0848 98.0316 65.2159 98.4113 65.2764 98.8079C65.3033 98.9827 65.3168 99.1575 65.3 99.3322C65.2831 99.5171 65.2293 99.6986 65.1621 99.8733C65.0242 100.243 64.8157 100.579 64.5871 100.898C64.3551 101.221 64.0961 101.53 63.8574 101.846C63.6186 102.159 63.3934 102.485 63.232 102.844C63.1042 103.123 63.0235 103.701 62.9932 104.004C63.8372 103.866 68.2523 103.577 71.5982 103.584C71.5948 103.564 71.5948 103.543 71.5881 103.52Z" fill="#DC9947"/>
<path d="M66.8097 94.6067H66.7155C66.3725 94.5126 66.0228 94.4118 65.7168 94.2269C65.2629 93.9513 64.9401 93.4606 64.8325 92.8826C64.7215 92.2978 64.8459 91.7197 65.1721 91.2929C65.4949 90.8728 66.0161 90.5972 66.6012 90.5434C67.1897 90.4896 67.7613 90.661 68.1581 91.0206C68.5515 91.3769 68.7903 91.9146 68.8037 92.5028C68.8205 93.0943 68.6121 93.6522 68.2321 94.032C68.0371 94.2269 67.4419 94.4185 66.8097 94.6067Z" fill="#DC9947"/>
<path d="M71.3359 104.35C71.0097 104.803 70.1489 105.58 68.0372 105.687C66.6417 105.761 63.3093 105.435 63.0369 104.642C62.9596 104.42 63.1378 104.158 63.5615 103.862C64.0525 103.516 65.1117 103.345 66.7257 103.345C67.9666 103.345 69.5369 103.446 71.4267 103.654L71.6217 103.674C71.615 103.788 71.5545 104.047 71.3359 104.35Z" fill="#DC9947"/>
<path d="M124.459 99.2818L124.439 103.52C122.374 103.52 82.6445 103.51 72.4255 103.51C72.1867 103.51 71.9648 103.51 71.7597 103.51C71.5176 102.717 70.9795 102.196 70.4112 101.641C69.6378 100.888 68.8375 100.112 68.6862 98.5525C68.5988 97.6518 68.888 97.0805 69.1166 96.6234C69.2612 96.3343 69.3856 96.0856 69.3924 95.8201C69.4058 95.2421 68.3163 94.9665 67.4353 94.7749H124.479L124.459 99.2818Z" fill="#E3B172"/>
<path d="M53.2619 79.2646C53.3393 79.3049 53.4233 79.3452 53.5108 79.3923C53.5309 79.4024 53.5477 79.4226 53.5545 79.4461C53.6083 79.678 53.6587 79.9099 53.7024 80.1418C54.5767 80.0107 55.5283 79.9233 56.6111 79.8864C56.6346 79.799 56.6615 79.7116 56.6884 79.6276C54.8255 79.6007 54.7348 79.3822 54.7011 79.2982C54.6843 79.2612 54.6709 79.1873 54.7516 79.1066C55.0508 78.8075 56.8095 78.5151 57.899 78.7907C57.8654 78.6563 57.8048 78.5017 57.7376 78.3336C57.4383 77.5875 56.3186 77.1808 55.3299 76.8246C55.2761 76.8044 55.2257 76.7876 55.1753 76.7675C54.8726 76.9019 54.5532 77.0229 54.2505 77.1371C53.3594 77.4732 52.5154 77.7925 52.5121 78.3034C52.502 78.8848 52.7878 79.0293 53.2619 79.2646Z" fill="#E3B172"/>
<path d="M119.64 79.5333L119.203 80.4172C119.189 80.7364 119.035 85.2232 119.768 87.6632C119.872 88.0093 120.154 88.4563 120.481 88.9773C121.163 90.0595 122.098 91.5416 122.011 93.1548C121.97 93.9177 120.262 94.0656 118.665 94.0656C118.379 94.0656 118.1 94.0623 117.831 94.0555C117.713 94.0522 117.622 94.0488 117.565 94.0488C116.079 94.0421 114.862 93.985 113.739 93.864C113.063 93.79 112.444 93.6993 111.842 93.5817C111.748 93.5648 111.66 93.548 111.583 93.538C111.274 93.4875 111.052 93.4506 110.924 93.2725C110.833 93.1481 110.8 92.9633 110.816 92.6809C110.89 91.4778 111.506 90.5266 112.104 89.6091C112.474 89.0411 112.858 88.453 113.106 87.8111C113.406 87.0414 113.705 80.891 113.729 80.4239L113.137 79.5366C112.605 79.5366 98.4353 79.5265 94.4573 79.5366C94.4539 79.9029 94.4203 80.239 94.3598 80.5449C94.5178 80.8272 94.7028 81.1095 94.9213 81.3985C94.9987 81.5027 95.1029 81.617 95.2206 81.7514C95.6645 82.2488 96.2697 82.9311 96.4177 83.8889C96.495 84.3729 96.1621 84.8401 95.6813 84.9274C94.7767 85.0921 93.8688 85.1392 92.9407 85.1392C92.3321 85.1392 91.7167 85.119 91.0879 85.0988C90.4827 85.0787 89.8606 85.0585 89.225 85.0552C88.6937 85.0518 87.5942 84.7325 87.3319 83.973C87.1738 83.5159 87.3554 83.0117 87.8665 82.4707C87.3823 82.6286 86.7468 82.6757 86.0238 82.5916C84.8839 82.4606 83.8246 82.0371 83.559 81.6103C83.3068 81.2036 83.4077 80.686 83.5859 80.3365C83.744 80.0273 83.976 79.7652 84.2013 79.5131C83.6195 79.2946 83.0176 79.0527 82.4224 78.7939C82.3821 81.1061 82.4998 83.4352 82.7923 85.724C82.8898 86.5003 83.0075 87.2532 83.3539 87.9253C83.5052 88.2177 83.8347 88.6042 84.1811 89.0176C85.1529 90.167 86.3634 91.5954 85.3311 92.6204C84.9444 93.0069 84.3795 93.1481 83.8818 93.2355C83.2328 93.3498 82.5704 93.4069 81.9046 93.4069C80.4889 93.4069 79.0699 93.1515 77.7484 92.6507C76.8136 92.6238 76.0704 92.5734 75.8082 92.5331C75.5728 92.4961 75.3475 92.4524 75.176 92.2978C74.9238 92.0693 74.8666 91.6525 75.0247 91.1786C75.2499 90.4997 75.7039 89.9318 76.141 89.3806C76.3731 89.0882 76.6118 88.7891 76.8169 88.4731C77.8795 86.8263 77.9737 84.7863 78.0678 82.8135C78.1048 82.0304 78.1418 81.2238 78.2393 80.4474C78.2561 80.3197 78.273 80.1953 78.2898 80.0676C78.3637 79.5433 78.4377 79.0022 78.3806 78.4746C78.3032 77.7453 77.9602 77.147 77.4626 76.8715C77.2373 76.7471 76.9817 76.29 76.9346 76.0581C76.9178 75.9775 76.9279 75.917 76.9615 75.8733C76.9716 75.8632 76.9783 75.8531 76.9884 75.8464C76.9851 75.843 76.9817 75.8363 76.9783 75.833C76.9783 75.8296 76.975 75.8296 76.975 75.8262C76.8943 75.6918 76.9279 75.5641 77.0052 75.4464C77.5332 71.5075 75.3643 69.3734 74.4194 68.4491C74.2378 68.271 74.1033 68.1399 74.036 68.0425C73.9654 67.945 73.9049 67.8341 73.8444 67.7299C73.6897 67.461 73.5451 67.209 73.303 67.1082L73.1685 68.3752C73.1651 68.4155 73.1315 68.4458 73.0945 68.4491C73.0542 68.4525 73.0172 68.429 73.0071 68.392C72.8692 67.9585 72.5363 67.5888 72.1227 67.3972C72.2807 68.8155 71.4031 70.059 70.855 70.6841C70.5759 71.0034 70.2598 71.2823 69.9572 71.5479C69.2578 72.1663 68.5953 72.7477 68.5415 73.7223C68.518 74.1357 68.6693 74.3911 68.8004 74.5323C68.945 74.6869 69.1165 74.7608 69.214 74.7642C69.9807 74.781 70.0782 74.4718 70.1757 74.1693C70.2531 73.9273 70.3405 73.645 70.8046 73.7055C71.5645 73.7963 72.005 73.5913 72.3278 73.44C72.58 73.3224 72.7986 73.2182 73.0508 73.3291C73.3232 73.4501 73.4577 73.7895 73.3534 74.0853C73.1685 74.5928 72.6876 75.0499 72.2202 75.4901C71.5578 76.1186 70.9323 76.7101 71.1879 77.3722C71.2518 77.5403 71.3661 77.6814 71.4838 77.8327C71.5477 77.9133 71.6082 77.9906 71.6654 78.0746C71.8369 78.3267 71.8537 78.5821 71.7797 78.851C75.3206 79.1736 76.7228 80.6121 77.2743 81.7649C77.5029 82.2455 77.4962 82.7933 77.2574 83.2705C77.0187 83.7444 76.5883 84.0738 76.0738 84.1746C75.4114 84.3057 74.7926 84.3561 74.2176 84.3561C72.506 84.3561 71.198 83.8889 70.4044 83.6066C70.0211 83.4722 69.7823 83.1025 69.8059 82.6925C69.8765 81.5229 70.4952 80.6255 70.9929 79.903C71.2249 79.5669 71.4233 79.2778 71.541 79.009L58.1443 79.0594C58.1375 79.0594 58.1342 79.0527 58.1274 79.0527C58.1207 79.0527 58.1174 79.056 58.1106 79.0527C58.1039 79.0493 58.0972 79.0459 58.0871 79.0426C58.0837 79.1434 58.0602 79.2341 58.003 79.3148C57.8416 79.5501 57.4549 79.6509 56.7353 79.6408C56.7252 79.6408 56.7185 79.6408 56.7118 79.6408C56.6815 79.7282 56.658 79.8156 56.6344 79.903C56.6681 79.903 56.695 79.9298 56.7051 79.9634C56.732 79.9803 56.7488 80.0071 56.7454 80.0407C56.3049 83.1395 57.0211 86.8667 58.4839 89.105C58.6487 89.357 58.8403 89.5923 59.0286 89.8175C59.3985 90.2645 59.7785 90.7283 59.9534 91.35C60.0307 91.6256 60.0004 91.8609 59.8659 92.0558C59.6507 92.3617 59.2203 92.486 58.8807 92.5364C58.5175 92.9028 58.0064 93.1817 57.7071 93.2523C57.2128 93.3632 56.5403 93.4271 55.8072 93.4271C53.9376 93.4271 51.6611 93.0137 50.8137 91.9214C50.3665 91.3433 51.0827 90.3687 51.5132 89.7839C51.5737 89.6999 51.6275 89.6259 51.6746 89.5621C53.5408 86.8801 54.173 83.7814 53.561 80.3466C51.604 80.6591 50.0437 81.2036 48.3119 81.9564L41.1294 85.5021C41.1193 85.5089 41.1058 85.5089 41.0924 85.5122C41.0991 85.5223 41.1025 85.5324 41.1058 85.5458L41.2134 85.6836C41.8153 86.4432 43.2243 88.2211 43.0158 89.4142C42.9553 89.7637 42.7636 90.0393 42.4442 90.2342C41.5531 90.7854 40.1374 91.0207 38.8428 91.0207C38.3182 91.0207 37.8138 90.9803 37.3733 90.9098C36.7411 90.8056 35.8164 90.2712 35.7424 89.4041C35.6651 88.5034 36.5024 87.1053 40.9175 85.5425C39.8919 83.3848 40.5006 82.8605 40.9074 82.5177C41.1361 82.3228 41.2639 82.2152 41.0924 81.8959C40.8671 81.4691 40.2954 81.1364 39.3438 80.8709C39.2093 80.8339 39.0748 80.807 38.9403 80.7835C38.8495 80.8205 38.7587 80.8574 38.6679 80.8944C37.8205 81.2372 37.0169 81.5632 37.0034 82.269C37.0001 82.474 37.1211 82.5211 37.3498 82.5984C37.5448 82.6622 37.7869 82.7429 37.8945 83.005C38.5368 84.5745 37.4036 87.3943 35.84 88.1203L22.6753 94.6269H66.1339C65.959 94.563 65.7875 94.4891 65.6261 94.3916C65.1318 94.0925 64.7821 93.5615 64.6644 92.9364C64.5467 92.3045 64.6812 91.6761 65.0343 91.2123C65.384 90.7518 65.9489 90.4561 66.5811 90.3989C67.22 90.3418 67.832 90.53 68.2658 90.9198C68.6962 91.3063 68.9518 91.8878 68.9686 92.5196C68.9854 93.1582 68.7601 93.7598 68.3465 94.1732C68.1851 94.3345 67.8219 94.4824 67.3747 94.6269H124.523L137.617 79.8223L119.64 79.5333Z" fill="#DC9947"/>
<path d="M58.3493 89.1789C58.5208 89.441 58.7158 89.6763 58.9041 89.9082C59.2774 90.3619 59.6305 90.7921 59.7952 91.3802C59.8591 91.6054 59.8356 91.7936 59.7313 91.9449C59.6137 92.1129 59.3783 92.244 59.0622 92.3179C59.1799 92.1633 59.2639 92.002 59.2976 91.8373C59.3413 91.6189 59.3077 91.2996 58.9109 91.0206C58.1408 90.4795 53.8535 90.4762 52.7741 90.6207C52.532 90.6543 52.2999 90.6913 52.0948 90.8123C51.8494 90.9568 51.7048 91.2021 51.7216 91.4407C51.7451 91.7634 52.0377 92.0121 52.5622 92.16C54.6571 92.738 56.8866 92.6775 58.6049 92.5566C58.2921 92.8221 57.9122 93.0237 57.6701 93.0775C55.9484 93.464 52.0881 93.2758 50.9448 91.8104C50.5749 91.3332 51.2441 90.4224 51.6476 89.8779C51.7081 89.7939 51.7653 89.72 51.809 89.6528C53.7022 86.9338 54.3411 83.7948 53.7223 80.3163C54.5798 80.1852 55.5146 80.1012 56.5738 80.0642C56.1468 83.1764 56.8731 86.9204 58.3493 89.1789Z" fill="#E3B172"/>
<path d="M58.8067 92.3612C58.7529 92.368 58.6957 92.3747 58.6385 92.3781C56.927 92.499 54.6942 92.5663 52.6093 91.9882C52.2932 91.9008 51.9133 91.7328 51.8897 91.4202C51.8763 91.2219 52.0242 91.0404 52.1789 90.9497C52.3571 90.8455 52.5723 90.8119 52.7943 90.7816C53.1642 90.7312 53.8468 90.7043 54.6235 90.7043C56.2746 90.7043 58.3561 90.8321 58.8134 91.1547C59.0723 91.3362 59.1799 91.5546 59.1295 91.8C59.0958 91.9916 58.9714 92.1831 58.8067 92.3612Z" fill="#E3B172"/>
<path d="M57.9225 78.9685C57.9292 79.0592 57.9124 79.1399 57.8687 79.2037C57.7476 79.3819 57.3811 79.4659 56.7422 79.4592C54.9768 79.439 54.8524 79.2407 54.849 79.2407C54.849 79.2407 54.8625 79.2037 54.9936 79.1432C55.5014 78.908 57.0078 78.703 57.9225 78.9685Z" fill="#E3B172"/>
<path d="M137.721 85.3776L124.61 103.338L124.647 94.7242L137.862 79.7852L137.721 85.3776Z" fill="#E3B172"/>
<path d="M137.892 85.304L138.02 80.1989C138.4 81.1634 139.594 84.0638 142.755 84.9914C140.993 84.9982 139.274 85.0654 137.892 85.304Z" fill="#E3B172"/>
<path d="M138.03 79.7046C138.02 79.6643 137.987 79.634 137.939 79.6408C137.909 79.6441 137.892 79.6643 137.879 79.6878C137.866 79.6609 137.839 79.6408 137.805 79.6408L119.721 79.3685L119.98 78.8476L121.247 76.3606C121.459 75.6649 122.051 74.9188 122.677 74.8683C124.244 74.986 125.804 74.791 127.401 74.5625C131.043 74.0416 137.011 72.7342 142.281 71.5814C144.096 71.1848 145.879 70.795 147.436 70.4656C147.617 70.6942 147.916 70.7916 148.185 70.8588C149.652 71.2151 151.242 71.0907 152.658 70.5093C152.883 70.4152 153.021 70.1967 153.007 69.9514C152.994 69.7061 152.833 69.5078 152.601 69.4406C152.231 69.3364 150.301 69.6926 147.513 70.2774C147.399 70.069 147.399 69.7968 147.419 69.5279C147.462 68.9196 147.61 68.2911 147.842 67.6627C150.489 65.2798 155.758 60.0133 156.747 58.6724C156.888 58.7967 157.033 58.9211 157.174 59.0454C160.203 61.7207 162.54 64.006 164.528 66.2343C164.814 66.5536 165.103 66.8729 165.395 67.1955C167.154 69.128 168.97 71.1311 169.955 73.5509C170.409 74.66 170.792 76.2597 170.063 77.5671C169.545 78.488 168.563 79.0694 167.682 79.5399C161.868 82.6487 155.311 84.998 148.717 85.0585C147.876 85.0652 146.904 85.0484 145.879 85.0316C145.085 85.0181 144.261 85.0013 143.437 84.998C138.911 84.0065 138.04 79.7382 138.03 79.7046Z" fill="#E3B172"/>
<path d="M147.624 70.4252C150.26 69.8706 152.217 69.5076 152.55 69.6017C152.749 69.6589 152.826 69.8236 152.833 69.958C152.839 70.0958 152.782 70.2706 152.587 70.3512C151.205 70.9226 149.652 71.0436 148.219 70.694C148.001 70.6403 147.779 70.5697 147.624 70.4252Z" fill="#E3B172"/>
<path d="M77.066 75.7686C77.8999 70.818 74.5407 68.5763 74.1237 67.9815C73.8614 67.605 73.6966 67.0841 73.2494 66.9833L73.1015 68.3511C72.94 67.847 72.5332 67.4269 72.0321 67.2488C72.2305 68.4856 71.6084 69.6955 70.8048 70.613C69.87 71.6784 68.5484 72.2699 68.4711 73.7016C68.4274 74.4881 68.9789 74.8242 69.2243 74.8309C70.7073 74.8712 69.9103 73.6613 70.8081 73.7722C72.1835 73.9403 72.5264 73.1673 73.0275 73.3891C73.2696 73.4966 73.3738 73.7924 73.283 74.0377C72.8493 75.2342 70.6535 76.1752 71.1175 77.3851C71.2217 77.6574 71.4437 77.8624 71.6051 78.1044C72.3247 79.1698 70.0347 80.383 69.9002 82.6785C69.88 83.0448 70.0953 83.3843 70.4416 83.5086C71.595 83.9186 73.5083 84.574 76.0673 84.0732C77.0996 83.8716 77.6645 82.7323 77.2072 81.7845C76.6322 80.5847 75.1997 79.2034 71.6723 78.9076" stroke="#121638" stroke-width="1.3" stroke-miterlimit="10" stroke-linecap="round" stroke-linejoin="round"/>
<path d="M56.6818 80.0099C56.2682 82.9305 56.8667 86.7316 58.4337 89.1313C58.9314 89.8942 59.6342 90.442 59.8897 91.3528C60.115 92.1561 59.3013 92.4115 58.6556 92.4586C56.628 92.6031 54.5566 92.6098 52.5996 92.0687C52.2532 91.9712 51.8463 91.783 51.8194 91.4268C51.8026 91.2016 51.9573 90.9932 52.1523 90.8789C52.3474 90.7647 52.576 90.7277 52.7979 90.6975C53.9715 90.5395 58.1681 90.5866 58.8776 91.084C59.957 91.8435 58.3597 93.003 57.7074 93.1509C55.8613 93.5676 52.0346 93.3156 50.8981 91.8536C50.4273 91.2486 51.4125 90.0959 51.7589 89.5951C53.7933 86.6745 54.3683 83.2397 53.4839 79.4655C52.8854 79.1462 52.4314 79.0454 52.4348 78.2992C52.4415 77.1767 55.7671 77.0154 56.5271 75.6576C56.9239 74.9451 56.9508 73.8192 56.5372 73.1202C56.2312 72.6026 55.9285 72.2967 55.488 71.8934C55.0475 71.4901 54.0388 70.1861 55.0307 70.129C55.8613 70.0819 55.4611 71.2078 54.2136 72.0548C53.0333 72.8546 52.3339 74.9754 54.1329 76.2088C54.9467 76.7667 57.3509 77.1196 57.8251 78.3026C58.1412 79.0857 58.2622 79.5629 56.7591 79.5461C52.2969 79.4957 56.5641 78.3093 58.1613 78.9613" stroke="#121638" stroke-width="1.3" stroke-miterlimit="10" stroke-linecap="round" stroke-linejoin="round"/>
<path d="M111.005 93.2217C110.928 93.1175 110.897 92.9528 110.914 92.684C111.029 90.7649 112.542 89.5315 113.201 87.8376C113.52 87.0209 113.83 80.3933 113.83 80.3933L112.407 78.2625L112.33 74.7672H113.803V76.6695H115.541V74.7672H117.307V76.6695H118.978V74.7672H120.437V77.7718L119.139 80.3933C119.139 80.3933 118.938 85.122 119.708 87.6864C120.037 88.7887 122.075 90.8052 121.95 93.1478C121.897 94.1728 118.181 93.9644 117.586 93.9611C116.311 93.9577 115.034 93.914 113.766 93.7762C113.134 93.709 112.501 93.6183 111.876 93.4973C111.436 93.4133 111.143 93.4099 111.005 93.2217Z" stroke="#121638" stroke-width="1.3" stroke-miterlimit="10" stroke-linecap="round" stroke-linejoin="round"/>
<path d="M76.9985 90.7514C76.6522 90.9799 76.437 91.2723 76.5042 91.6319C76.5715 91.9882 76.9346 92.1965 77.2642 92.3444C79.3255 93.2519 81.6591 93.5342 83.8784 93.1443C84.3862 93.0536 84.9175 92.9158 85.284 92.5528C86.6324 91.2118 83.8482 89.044 83.29 87.9585C82.9369 87.2729 82.8159 86.4932 82.7183 85.7302C82.3989 83.1962 82.2778 80.6385 82.3585 78.0876C82.3686 77.728 82.3989 77.3382 82.641 77.0727C82.8797 76.8139 83.2665 76.7433 83.522 76.5047C83.8515 76.1988 83.8784 75.6208 83.5792 75.2847C83.3236 75.0024 82.9067 74.9049 82.6612 74.6125C82.3148 74.1958 82.4561 73.5774 82.6107 73.0564C82.8596 72.2397 83.1084 71.4264 83.3539 70.6097C83.4279 70.3644 83.5018 70.0989 83.411 69.8603C83.2093 69.3427 82.483 69.383 81.955 69.2116C81.2287 68.973 80.7747 68.1126 80.99 67.3799L82.3686 67.6354L82.372 65.9482L81.0101 66.2641L81.1682 64.7249L79.4902 64.7181L79.7592 66.2843L78.3402 66.0087L78.3335 67.7093L79.7727 67.4572C79.9644 68.1496 79.544 68.9528 78.8681 69.1948C78.2461 69.4166 77.4457 69.2318 77.0859 69.9208C76.9548 70.1728 76.9346 70.4719 76.9952 70.7509C77.1767 71.6045 77.7114 72.3271 77.9401 73.1606C78.1284 73.853 78.0443 74.7033 77.4659 75.1334C77.244 75.2981 76.9212 75.5267 77.0624 75.7653C77.1061 75.8359 77.1801 75.8796 77.2541 75.9165C78.1048 76.3568 79.0497 76.6122 80.0081 76.6626C80.2771 76.6761 80.5629 76.6727 80.8016 76.545C81.0404 76.4173 81.2152 76.1316 81.1345 75.8762C81.0471 75.6006 80.7344 75.4763 80.4519 75.4158C79.4431 75.1973 78.3604 75.3385 77.4424 75.809C77.2238 75.9199 76.9817 75.7821 77.0288 76.0241C77.0725 76.2425 77.318 76.6761 77.513 76.7803C78.0981 77.1029 78.4075 77.7852 78.4747 78.4473C78.542 79.1093 78.4142 79.7782 78.3301 80.4402C77.9871 83.1793 78.394 86.1806 76.8976 88.4996C76.3125 89.407 75.4551 90.1599 75.1154 91.1849C74.9978 91.5344 74.9709 91.9714 75.2432 92.2167C75.4013 92.3579 75.6198 92.3982 75.8317 92.4318C76.8237 92.5864 85.163 92.9494 84.282 91.0942C84.1306 90.7749 83.7977 90.5833 83.4716 90.4422C82.2543 89.9212 80.8454 89.8103 79.5407 89.975C79.0564 90.0456 77.7349 90.264 76.9985 90.7514Z" stroke="#121638" stroke-width="1.3" stroke-miterlimit="10" stroke-linecap="round" stroke-linejoin="round"/>
<path d="M56.645 79.9663C52.9427 80.0907 50.7705 80.7864 48.2888 81.8618" stroke="#121638" stroke-width="1.3" stroke-miterlimit="10" stroke-linecap="round" stroke-linejoin="round"/>
<path d="M48.2918 81.8625C46.3818 82.8069 43.1873 81.7213 42.2626 80.2963C41.1967 78.6562 41.4186 76.4918 42.0071 74.6266C45.8674 62.3863 59.5062 56.5283 69.705 50.6468C72.4624 49.0571 74.1571 46.029 76.9145 44.446C77.6341 44.0327 78.4479 43.6966 78.9186 43.0177C79.1641 42.6614 79.3053 42.2212 79.6315 41.9355C80.0686 41.5523 80.7075 41.549 81.2557 41.3574C81.982 41.102 82.5335 40.5105 83.1959 40.1273C85.2673 38.9241 87.9002 39.9022 89.9783 41.0953C92.5104 42.5472 95.0256 44.5334 95.7351 47.3633C95.8696 47.901 95.9436 48.4791 96.4884 48.8252C97.0499 49.1815 97.9007 49.0101 98.3008 48.4791C99.4038 47.0238 96.6262 45.3131 95.9436 47.3565C95.8158 47.7397 95.8932 48.1463 96.068 48.5093C96.3539 49.0941 96.3875 50.8149 95.9705 51.8971C95.836 52.2432 95.4359 52.4146 95.1063 52.2466C93.4956 51.4232 92.8668 48.9765 92.2111 47.2053C91.6529 45.6929 90.8694 44.2679 89.8942 42.9841C91.9522 44.1973 92.8466 46.8323 92.5608 49.205C92.275 51.5778 91.014 53.7153 89.5916 55.6343C89.2688 56.0713 88.1759 56.4645 87.9675 55.9637C89.6622 52.1222 89.6017 47.4305 87.2781 43.9318C88.7812 44.8124 89.1747 46.802 89.1578 48.5429C89.1343 50.9997 88.5862 53.4498 87.5707 55.6848C87.4664 55.9167 87.1403 55.957 86.9889 55.752C86.5316 55.147 86.656 54.0379 86.5821 53.2145C86.3299 50.425 85.3379 47.7599 84.356 45.1384C86.5787 47.6859 87.2781 51.4669 86.1113 54.6395C84.4031 54.9084 85.4724 50.6099 80.8959 47.7162C80.8959 47.7162 79.9173 46.4558 79.9341 46.1198C80.4352 46.0492 81.4541 47.128 80.5899 48.4724C79.3692 50.3746 75.2399 53.4632 75.0146 53.1607C74.6985 52.7373 79.8904 47.7229 82.6612 50.257C83.1051 50.6636 85.0218 53.0969 84.245 54.0144C83.9861 54.3202 83.6196 54.5118 83.2295 54.6026C78.3167 55.7116 75.7645 55.2647 69.4831 61.5696C65.3807 65.6867 58.4772 78.4579 58.1645 78.347C56.8766 77.8866 64.2105 65.2867 67.1831 65.9186C67.8287 66.0564 68.2759 66.6714 68.6189 67.236C69.362 68.456 70.0312 78.9184 58.5915 78.9419" stroke="#121638" stroke-width="1.3" stroke-miterlimit="10" stroke-linecap="round" stroke-linejoin="round"/>
<path d="M94.3903 79.4492C94.3903 85.0147 87.4061 83.9628 87.5574 83.583C88.7276 80.6456 89.7498 83.1091 90.1164 74.6801C90.1399 74.1188 90.1567 73.161 90.1668 72.5191C90.1702 72.1695 89.9348 71.8738 89.6019 71.773C89.0101 71.5982 88.1829 70.9899 88.694 70.3211C89.1378 69.7363 90.0962 69.3263 90.002 68.4491C90.0054 67.0476 89.9348 66.2578 89.3598 65.5856C89.2555 65.4646 89.1412 65.347 89.0941 65.1991C89.0471 65.0479 89.0941 64.8529 89.2387 64.7958C89.4068 64.7286 89.5884 64.8731 89.77 64.8832C90.0827 64.9 90.3013 64.537 90.614 64.5202C90.8931 64.5034 91.1319 64.7723 91.411 64.7588C91.6632 64.7454 91.8414 64.5135 91.9524 64.2917C92.0364 64.1203 92.107 63.9321 92.1003 63.7405C92.0936 63.4649 91.9086 63.1792 91.5757 63.2095C91.4143 63.2263 91.2664 63.3204 91.1823 63.4582C90.9906 63.764 91.1016 64.1505 91.3235 64.4093C91.4278 64.5303 91.5623 64.6345 91.7203 64.6614C92.0062 64.7118 92.2953 64.5068 92.5778 64.5639C92.8031 64.611 92.978 64.8126 93.2066 64.8462C93.516 64.8899 93.8724 64.6177 94.1179 64.8227C94.2188 64.9067 94.2558 65.0479 94.2322 65.1756C94.1919 65.4041 94.0271 65.5621 93.8859 65.7301C93.1528 66.614 92.6686 68.8053 93.7446 69.5716C94.1213 69.8405 94.7299 70.1429 94.7837 70.6639C94.8509 71.2823 93.5093 71.7562 93.3647 72.0721C93.3647 72.0721 93.3109 73.2887 93.3445 74.0247C93.4891 76.9857 93.0688 79.0862 94.8644 81.4455C95.2444 81.9429 96.159 82.7092 96.3473 83.8989C96.4179 84.3426 96.1187 84.7593 95.6782 84.84C93.6101 85.213 91.5152 84.9744 89.2387 84.9677C88.2905 84.9643 86.0039 83.983 88.5124 82.0068C87.4431 83.0755 84.1275 82.3429 83.6433 81.5598C83.4247 81.2069 83.4819 80.7364 83.6736 80.3667C83.8619 79.997 84.1611 79.6979 84.4369 79.3853C85.3582 78.3367 86.2729 76.4143 84.9312 74.1491C84.531 73.4736 85.5096 73.077 86.1552 72.6333C86.9824 72.062 88.5157 71.3058 87.554 70.1261C87.2211 69.7161 86.6495 69.5649 86.1518 69.743C85.4087 70.0152 85.0825 70.6202 85.328 71.373C85.6508 72.3645 88.4586 73.1476 88.4552 73.7021C88.4519 74.2667 87.4027 76.2261 88.5191 78.4409C88.6267 78.6526 89.3598 79.5668 89.306 79.8021C89.1849 80.3196 88.7209 80.3936 88.3106 80.4272C86.1888 80.5986 79.2315 77.4831 77.2577 75.9236" stroke="#121638" stroke-width="1.3" stroke-miterlimit="10" stroke-linecap="round" stroke-linejoin="round"/>
<path d="M41.0489 85.5693C33.4224 88.2412 36.0251 90.577 37.4038 90.8022C39.0212 91.0677 41.2405 90.866 42.4141 90.1401C44.0113 89.1554 41.7046 86.4062 41.0489 85.5693Z" stroke="#121638" stroke-width="1.3" stroke-miterlimit="10" stroke-linecap="round" stroke-linejoin="round"/>
<path d="M22.3326 94.6908H124.58L124.54 103.604C124.54 103.604 80.8491 103.594 71.7128 103.594C70.7376 103.493 64.964 102.784 63.5282 103.792C61.2079 105.419 66.531 105.849 68.0576 105.772C71.3496 105.604 71.7834 103.842 71.7128 103.597C71.1781 101.705 68.8848 101.332 68.6192 98.5659C68.478 97.0871 69.3119 96.4821 69.3253 95.8234C69.3388 95.1512 67.4658 94.8958 66.7866 94.7143C66.4066 94.6135 66.0232 94.5093 65.687 94.3043C64.6883 93.696 64.4092 92.1769 65.1187 91.2459C65.8282 90.3183 67.3582 90.1805 68.2291 90.9636C69.1 91.7433 69.1337 93.2692 68.3065 94.0959C67.7483 94.6538 64.4226 95.0975 64.4193 95.8167C64.4125 96.8552 65.3406 97.3358 65.3104 98.5793C65.2902 99.5035 65.1557 100.539 64.5101 101.228C63.0137 102.824 62.9397 103.863 62.9397 103.863H22.7596L22.3326 94.6908Z" stroke="#121638" stroke-width="1.3" stroke-miterlimit="10" stroke-linecap="round" stroke-linejoin="round"/>
<path d="M41.0489 85.5694C39.3945 82.1716 41.7416 82.8875 41.1834 81.8355C40.9682 81.4322 40.4504 81.0659 39.3811 80.7701C38.6716 80.5752 37.9688 80.6357 37.3769 80.1988C36.4388 79.5098 36.274 77.984 37.0474 77.1135C37.8208 76.2431 39.3575 76.2229 40.1511 77.0732C40.9481 77.9235 40.8236 79.4527 39.9023 80.1652C38.9708 80.8844 36.96 81.0693 36.9331 82.2456C36.923 82.7665 37.6325 82.5312 37.8309 83.0152C38.4631 84.5545 37.3299 87.3238 35.8167 88.0229" stroke="#121638" stroke-width="1.3" stroke-miterlimit="10" stroke-linecap="round" stroke-linejoin="round"/>
<path d="M100.682 79.2775C102.071 76.5317 103.654 73.591 106.455 72.3172C108.998 71.1577 111.984 71.6551 114.643 72.5121C117.303 73.3691 119.903 74.569 122.69 74.7841C124.264 74.9051 125.841 74.7034 127.405 74.4782C134.698 73.433 151.484 69.2084 152.591 69.521C153.028 69.6453 153.058 70.257 152.641 70.4284C151.252 70.9997 149.682 71.1308 148.223 70.7746C147.957 70.7107 147.681 70.62 147.513 70.4049C147.325 70.1629 147.328 69.8268 147.348 69.521C147.658 65.3031 152.977 60.1206 156.841 58.3898C156.572 59.1494 149.285 66.4054 146.968 68.3245C144.652 70.2402 141.83 71.682 138.831 71.84C138.515 71.8568 138.179 71.8534 137.903 71.6954C137.435 71.4266 136.507 57.6874 138.33 57.6874C140.405 57.6874 138.168 71.2585 137.745 71.6215C137.405 71.9139 136.955 72.0416 136.521 72.1559C131.732 73.4162 127.593 74.411 122.694 74.7841C121.987 74.8378 121.392 75.6613 121.184 76.3368L119.593 79.4489L137.822 79.7212L124.58 94.6904L124.54 103.603L137.819 85.4044" stroke="#121638" stroke-width="1.3" stroke-miterlimit="10" stroke-linecap="round" stroke-linejoin="round"/>
<path d="M100.682 79.2778C100.467 79.3854 107.764 77.7453 113.164 79.4492C113.164 79.4492 98.355 79.4392 94.3871 79.4492" stroke="#121638" stroke-width="1.3" stroke-miterlimit="10" stroke-linecap="round" stroke-linejoin="round"/>
<path d="M95.8528 47.1142C95.8058 47.0671 95.7587 47.0201 95.7116 46.973" stroke="#121638" stroke-width="1.3" stroke-miterlimit="10" stroke-linecap="round" stroke-linejoin="round"/>
<path d="M71.6823 78.9048C67.3176 78.9216 62.5259 78.9384 58.1612 78.9585" stroke="#121638" stroke-width="1.3" stroke-miterlimit="10" stroke-linecap="round" stroke-linejoin="round"/>
<path d="M173.889 85.0785H143.441C138.8 84.0669 137.966 79.7213 137.966 79.7213L137.822 85.4045C140.855 84.8567 145.65 85.1726 148.734 85.1424C155.334 85.0785 161.918 82.7259 167.739 79.6138C168.674 79.113 169.636 78.535 170.154 77.6074C170.843 76.3773 170.584 74.8246 170.053 73.5205C168.896 70.684 166.613 68.4288 164.609 66.1804C162.332 63.6262 159.813 61.25 157.248 58.9848C153.905 56.0306 150.364 53.2983 146.662 50.8112C143.148 48.4485 139.389 45.696 135.334 44.3752C131.645 43.172 126.248 41.8881 122.367 41.9251C122.367 41.9251 122.525 40.0766 122.092 38.376C120.958 39.9624 120.952 42.0528 120.592 43.9685C119.583 49.3022 115.255 53.8629 109.976 55.1467C108.019 55.624 105.86 55.6542 104.088 54.7065C102.343 53.7721 101.142 51.8934 101.025 49.9206C100.91 47.9948 102.605 46.2976 101.085 45.1078C99.7536 44.0626 96.4212 44.2306 95.1905 45.3935C94.8878 45.3901 94.9417 45.1515 94.8912 44.8524C99.2088 42.157 104.586 42.0158 109.673 41.9553C109.078 42.772 108.241 43.4106 107.296 43.7668C105.342 44.5062 102.904 43.8912 101.68 42.2007C102.373 41.4411 103.432 41.0345 104.455 41.1286C104.734 41.1555 105.009 41.216 105.292 41.2126C105.648 41.2092 110.652 35.6605 107.128 35.7781C106.523 35.7983 106.243 35.5798 106.479 35.0925C107.084 34.5278 108.076 35.5798 107.747 36.3393C107.417 37.0989 106.486 37.3711 105.665 37.4787C104.26 37.6635 102.679 37.5761 101.64 36.6082C101.495 36.4738 101.361 36.3225 101.28 36.1411C101.078 35.6806 101.257 35.1462 101.475 34.6959C101.872 33.8792 102.471 33.1398 102.696 32.2593C103.614 28.6463 100.598 27.8498 99.8175 27.5776C99.0373 27.3054 98.1933 27.2247 97.4367 26.892C96.058 26.2837 95.1501 24.8889 94.7668 23.4303C94.3868 21.9717 94.4574 20.4391 94.5617 18.9335C94.6087 18.2546 94.6962 17.5017 95.214 17.0615C96.058 16.3422 97.7663 16.5069 98.7952 16.5607C99.8309 16.6145 100.86 16.759 101.896 16.8228C103.345 16.9136 104.744 16.0834 106.176 15.8684C110.255 15.2533 115.198 16.5472 118.46 19.0813C120.588 20.7349 122.172 23.2219 122.3 25.914C122.155 23.2589 124.486 20.7248 127.142 20.6408C127.865 20.6172 128.578 20.7954 128.924 21.4911C129.16 21.9616 129.187 22.5061 129.207 23.0303C129.325 26.4786 128.652 32.2929 123.998 32.3534C123.369 32.3601 122.67 32.1685 122.35 31.6241C122.031 31.083 122.404 30.1957 123.03 30.2495C123.749 31.9971 123.537 35.0353 122.804 36.7763C122.071 38.5172 120.857 40.0128 119.566 41.3941C117.074 44.0592 113.214 47.1176 108.204 48.6569C106.139 49.2921 104.189 48.2032 102.619 46.721C101.048 45.2389 97.4401 36.7561 96.9592 34.4438C96.4817 32.1517 95.5637 29.7252 95.2342 27.4095C94.834 24.6066 94.6895 21.7465 94.565 18.9234C94.3666 14.4433 94.7668 10.296 97.6284 6.65287C100.315 3.23152 104.539 1.58134 108.786 1.28222C114.768 0.858751 121.59 2.49549 125.202 7.71827C127.774 11.4354 128.01 17.0547 126.503 20.708C125.878 22.2204 124.98 23.8437 124.839 25.4737C124.738 26.6601 125 28.2632 124.028 29.221C124.795 29.1236 125.582 28.9824 126.234 28.5657C127.485 27.7591 127.603 25.7493 126.164 25.0334C125.054 24.4822 123.346 25.3796 122.411 25.9745" stroke="#121638" stroke-width="1.3" stroke-miterlimit="10" stroke-linecap="round" stroke-linejoin="round"/>
<path d="M22.3325 103.771L1.21857 103.943" stroke="#121638" stroke-width="1.3" stroke-miterlimit="10" stroke-linecap="round" stroke-linejoin="round"/>
<path d="M22.3326 94.6905C22.3326 94.6905 29.1688 91.3129 35.8235 88.0226" stroke="#121638" stroke-width="1.3" stroke-miterlimit="10" stroke-linecap="round" stroke-linejoin="round"/>
<path d="M41.2272 85.3545C45.2389 83.3716 48.2921 81.8625 48.2921 81.8625" stroke="#121638" stroke-width="1.3" stroke-miterlimit="10" stroke-linecap="round" stroke-linejoin="round"/>
</svg>
