<svg width="24" height="24" viewBox="0 0 24 24" fill="none" xmlns="http://www.w3.org/2000/svg">
<rect width="24" height="24" rx="6" fill="black" fill-opacity="0.25"/>
<rect x="0.5" y="0.5" width="23" height="23" rx="5.5" stroke="#76573D" stroke-opacity="0.7"/>
<path fill-rule="evenodd" clip-rule="evenodd" d="M12.0001 4.30682C11.1577 4.30682 10.4753 4.65842 10.4753 5.09202L11.0821 6.15202C4.66211 11.788 8.79931 17.0064 8.79931 17.0064H15.2013C15.2013 17.0064 18.0213 13.5376 15.5065 9.20242L14.3105 11.1332C14.0425 11.5668 13.5257 11.7292 13.1517 11.4976C12.7777 11.2664 12.6929 10.7308 12.9609 10.2976L14.5157 7.78682C14.0282 7.19986 13.4941 6.65328 12.9185 6.15242L13.5253 5.09242C13.5253 4.65842 12.8425 4.30682 12.0005 4.30682H12.0001Z" fill="#DC9947" stroke="#DC9947" stroke-width="0.2" stroke-linejoin="round"/>
<path opacity="0.15" fill-rule="evenodd" clip-rule="evenodd" d="M12 4.30682C11.6736 4.30682 11.3716 4.36042 11.1236 4.45002C12.8588 4.78922 13.114 4.89802 12.1476 6.19042L13.446 7.61722C11.9832 10.9132 12.8044 10.8136 12.8044 10.8136C12.8044 10.8136 13.0828 9.75442 14.4492 7.70642C13.9793 7.15001 13.4675 6.63036 12.9184 6.15202L13.5248 5.09202C13.5248 4.65842 12.8424 4.30682 12 4.30682ZM15.506 9.20202L15.1024 9.80722C16.5972 13.1724 13.4488 17.006 13.4488 17.006H15.2012C15.2644 17.0196 17.9844 13.4684 15.506 9.20202Z" fill="#DC9947"/>
<path fill-rule="evenodd" clip-rule="evenodd" d="M8.05807 14.6884C7.97007 14.676 6.68887 10.774 10.3597 7.18801C9.43887 7.94601 7.50567 12.4532 8.05807 14.6884ZM11.3169 6.07841L10.7261 5.04081C10.7261 5.04081 10.8229 4.75201 11.4381 4.62161C10.7477 5.16161 11.0433 5.28681 11.3169 6.07841Z" fill="#DC9947"/>
<path fill-rule="evenodd" clip-rule="evenodd" d="M12 16.5828C12 16.5828 8.34804 16.602 7.32364 17.2308C6.63284 17.6548 6.46964 18.6908 6.56364 19.76H17.4364C17.5304 18.6912 17.3676 17.6544 16.6764 17.2304C15.6524 16.6024 12.0004 16.5828 12.0004 16.5828H12Z" fill="#DC9947" stroke="#DC9947" stroke-width="0.2" stroke-linejoin="round"/>
<path d="M12.0001 16.8588L11.9985 16.9588L12.0002 16.9588L12.0001 16.8588ZM12.0001 16.8588L12.0002 16.9588L12.0003 16.9588L12.0008 16.9588L12.0026 16.9588L12.0099 16.9588L12.0387 16.9589C12.0642 16.959 12.1016 16.9592 12.1498 16.9597C12.2461 16.9608 12.385 16.9629 12.5552 16.9674C12.8957 16.9763 13.3609 16.9943 13.8602 17.031C14.3597 17.0676 14.8919 17.1227 15.3667 17.2055C15.8431 17.2886 16.2516 17.3979 16.5122 17.5385C16.5246 17.546 16.5369 17.5541 16.549 17.5627C16.2817 17.4424 15.9235 17.3499 15.5323 17.2774C15.0411 17.1863 14.4848 17.1247 13.9625 17.0828C13.4398 17.041 12.9496 17.0189 12.5901 17.0072C12.4103 17.0014 12.2631 16.9982 12.1607 16.9964C12.1096 16.9956 12.0696 16.995 12.0424 16.9947L12.0114 16.9945L12.0034 16.9944L12.0013 16.9944L12.0008 16.9944L12.0007 16.9944L12.0001 17.0944M12.0001 16.8588L11.9985 16.9588L11.9984 16.9588L11.9979 16.9588L11.9961 16.9587L11.9888 16.9586L11.9598 16.9583C11.9342 16.9581 11.8965 16.9579 11.848 16.9578C11.7509 16.9577 11.6109 16.9584 11.4391 16.9615C11.0955 16.9676 10.6255 16.9832 10.1196 17.0212C9.61329 17.0593 9.07279 17.1197 8.58763 17.2149C8.23165 17.2848 7.91092 17.3724 7.65658 17.481C7.89082 17.3991 8.1699 17.3322 8.46815 17.277C8.95931 17.1861 9.51565 17.1245 10.0379 17.0827C10.5605 17.041 11.0507 17.0189 11.4101 17.0072C11.5899 17.0014 11.7371 16.9982 11.8394 16.9964C11.8906 16.9956 11.9305 16.995 11.9577 16.9947L11.9888 16.9945L11.9968 16.9944L11.9988 16.9944L11.9993 16.9944L11.9995 16.9944L12.0001 17.0944M12.0001 17.0944L12.0006 16.9944L11.9995 16.9944L12.0001 17.0944Z" fill="#DC9947" stroke="#DC9947" stroke-width="0.2"/>
</svg>
