<svg width="14" height="20" viewBox="0 0 14 20" fill="none" xmlns="http://www.w3.org/2000/svg">
<path d="M8.7276 19.2848C8.94506 18.8371 9.1881 18.3766 9.23926 18.2487C9.54626 17.4812 9.69976 16.8288 9.69976 16.2148C9.69976 15.5113 9.45672 14.8333 8.90668 14.0019C8.67644 13.6437 8.49736 13.2984 8.33107 12.9402C8.21595 12.6972 8.08803 12.4413 7.93453 12.1855C7.52521 11.482 7.231 10.6889 7.0903 9.81909C6.59143 10.4587 6.27164 11.1238 6.11814 11.8274C5.91348 12.7867 6.00302 13.7972 6.41235 15.1148C6.46351 15.2938 6.41235 15.4857 6.27164 15.6136C6.13094 15.7415 5.93906 15.7671 5.75998 15.7032C4.90295 15.3322 4.31455 14.7566 3.87964 14.1682C3.76451 14.8078 3.77731 15.4729 3.87964 16.1892C4.03313 17.1102 4.77504 18.7347 5.56811 19.3999C6.47631 19.3999 7.79383 19.3999 8.65086 19.3999C8.68923 19.3487 8.71481 19.3232 8.7276 19.2848Z" fill="#DEA259"/>
<path d="M12.6676 10.7145C12.156 9.83193 11.5804 8.98769 11.0048 8.14346C10.3396 7.15851 9.66165 6.17357 9.16278 5.08629C8.52321 3.67923 8.25459 2.221 8.48483 0.686027C8.51042 0.53253 8.536 0.379032 8.56158 0.199951C8.52321 0.225534 8.49763 0.225534 8.47204 0.238326C7.15452 1.1721 5.9777 2.24659 5.10788 3.62807C3.96944 5.39329 3.56012 7.3248 3.85432 9.40981C3.89269 9.70402 3.94386 9.99822 3.99503 10.3052C3.95665 10.2796 3.94386 10.2668 3.93107 10.2541C3.8799 10.2029 3.82874 10.1389 3.77757 10.0878C3.31708 9.51214 3.15079 8.8214 3.04846 8.11787C2.9845 7.59342 2.94613 7.05618 2.89496 6.51894C2.88217 6.53173 2.86938 6.54452 2.85658 6.55731C1.91002 7.7853 1.07857 9.07723 0.541328 10.5483C0.144792 11.6355 -0.0854545 12.7484 0.0296688 13.9124C0.157584 15.1788 0.682034 16.266 1.51348 17.2126C2.12747 17.9034 2.85658 18.4406 3.63686 18.9139C3.80315 19.0162 3.96944 19.093 4.13573 19.1825C3.52174 18.2743 3.06125 17.1231 2.94613 16.3428C2.74146 15.0892 2.84379 13.938 3.26591 12.8123C3.32987 12.6333 3.49616 12.5181 3.68803 12.5053C3.90549 12.4926 4.05898 12.5949 4.14852 12.7612C4.4811 13.388 4.81368 13.8612 5.19742 14.2066C5.01834 13.26 5.01834 12.4414 5.19742 11.6355C5.45325 10.4587 6.06725 9.4226 7.11615 8.38649C7.21848 8.28416 7.35918 8.233 7.51268 8.24579C7.65339 8.25858 7.7813 8.33533 7.85805 8.46324C7.89643 8.51441 7.9348 8.62953 7.94759 8.69349L7.96038 8.84699C8.01155 9.92147 8.28017 10.8808 8.76625 11.6995C8.93254 11.9809 9.06045 12.2495 9.20116 12.5181C9.35465 12.8379 9.50815 13.1449 9.71282 13.4647C10.3652 14.4624 10.6594 15.3067 10.6594 16.2021C10.6594 16.944 10.4931 17.7115 10.1221 18.5941C10.0966 18.6708 10.007 18.8499 9.8919 19.0802C10.864 18.2103 11.7722 17.1614 12.4758 16.0742C13.0386 15.2043 13.384 14.2706 13.384 13.2217C13.384 12.3263 13.1153 11.482 12.6676 10.7145Z" fill="#DEA259"/>
</svg>
