<svg width="18" height="27" viewBox="0 0 18 27" fill="none" xmlns="http://www.w3.org/2000/svg">
<path d="M11.6368 26.0464C11.9268 25.4495 12.2508 24.8355 12.319 24.6649C12.7284 23.6416 12.933 22.7718 12.933 21.9531C12.933 21.0151 12.609 20.1112 11.8756 19.0026C11.5686 18.525 11.3298 18.0645 11.1081 17.587C10.9546 17.2629 10.7841 16.9218 10.5794 16.5807C10.0336 15.6427 9.64135 14.5852 9.45374 13.4255C8.78859 14.2782 8.3622 15.1651 8.15754 16.1032C7.88465 17.3823 8.00404 18.7297 8.54981 20.4864C8.61803 20.7251 8.54981 20.981 8.3622 21.1515C8.17459 21.3221 7.91877 21.3562 7.67999 21.2709C6.53729 20.7763 5.75274 20.0088 5.17286 19.2243C5.01936 20.077 5.03642 20.9639 5.17286 21.919C5.37753 23.147 6.36673 25.313 7.42416 26.1999C8.63509 26.1999 10.3918 26.1999 11.5345 26.1999C11.5857 26.1317 11.6198 26.0976 11.6368 26.0464Z" fill="#121638"/>
<path d="M16.8902 14.6194C16.208 13.4426 15.4405 12.317 14.673 11.1913C13.7861 9.87806 12.8822 8.5648 12.217 7.1151C11.3643 5.23902 11.0061 3.29471 11.3131 1.24808C11.3472 1.04341 11.3813 0.83875 11.4154 0.599976C11.3643 0.634086 11.3302 0.634086 11.2961 0.651141C9.53936 1.89618 7.97027 3.32882 6.81051 5.1708C5.29259 7.52443 4.74682 10.0998 5.13909 12.8798C5.19026 13.2721 5.25848 13.6643 5.3267 14.0737C5.27554 14.0396 5.25848 14.0225 5.24142 14.0054C5.1732 13.9372 5.10498 13.8519 5.03676 13.7837C4.42277 13.0162 4.20105 12.0952 4.06461 11.1572C3.97933 10.4579 3.92817 9.74162 3.85995 9.02529C3.84289 9.04235 3.82583 9.0594 3.80878 9.07646C2.54669 10.7138 1.43809 12.4364 0.72177 14.3977C0.193056 15.8474 -0.113939 17.3312 0.0395584 18.8833C0.210111 20.5717 0.909379 22.0214 2.01797 23.2835C2.83663 24.2045 3.80878 24.9208 4.84915 25.5519C5.07087 25.6883 5.29259 25.7907 5.51431 25.91C4.69566 24.6991 4.08166 23.1641 3.92817 22.1238C3.65528 20.4523 3.79172 18.9174 4.35455 17.4165C4.43983 17.1777 4.66154 17.0242 4.91737 17.0072C5.20731 16.9901 5.41198 17.1266 5.53136 17.3483C5.9748 18.184 6.41824 18.815 6.9299 19.2755C6.69113 18.0134 6.69113 16.9219 6.9299 15.8474C7.27101 14.2783 8.08966 12.8968 9.4882 11.5154C9.62464 11.3789 9.81225 11.3107 10.0169 11.3278C10.2045 11.3448 10.3751 11.4471 10.4774 11.6177C10.5286 11.6859 10.5797 11.8394 10.5968 11.9247L10.6138 12.1294C10.6821 13.562 11.0402 14.8412 11.6883 15.9327C11.91 16.3079 12.0806 16.6661 12.2682 17.0242C12.4729 17.4506 12.6775 17.8599 12.9504 18.2863C13.8202 19.6166 14.2125 20.7423 14.2125 21.9362C14.2125 22.9254 13.9908 23.9487 13.4962 25.1255C13.4621 25.2278 13.3427 25.4666 13.1892 25.7736C14.4854 24.6138 15.6963 23.2153 16.6344 21.7656C17.3848 20.6058 17.8453 19.3608 17.8453 17.9623C17.8453 16.7684 17.4871 15.6427 16.8902 14.6194Z" fill="#121A44"/>
</svg>
