<svg width="28" height="20" viewBox="0 0 28 20" fill="none" xmlns="http://www.w3.org/2000/svg">
<path d="M27 3C27.5523 3 28 3.44772 28 4L28 16C28 16.5523 27.5523 17 27 17L2.13503 17C1.28719 17 0.824033 16.0111 1.36681 15.3598L5.29983 10.6402C5.60887 10.2693 5.60887 9.73066 5.29983 9.35982L1.36681 4.64018C0.824034 3.98886 1.28719 3 2.13503 3L27 3Z" fill="#DC9947"/>
<path d="M18.957 13.7975V15H13.757V13.7975H15.6615V8.318C15.6615 8.10133 15.668 7.87817 15.681 7.6485L14.329 8.7795C14.251 8.84017 14.173 8.87917 14.095 8.8965C14.0213 8.9095 13.9498 8.9095 13.8805 8.8965C13.8155 8.8835 13.757 8.86183 13.705 8.8315C13.653 8.79683 13.614 8.76 13.588 8.721L13.081 8.0255L15.9475 5.588H17.267V13.7975H18.957Z" fill="#121A42"/>
</svg>
