<svg width="26" height="26" viewBox="0 0 26 26" fill="none" xmlns="http://www.w3.org/2000/svg">
<rect width="24" height="24" rx="6" fill="#C353AB"/>
<rect x="0.5" y="0.5" width="23" height="23" rx="5.5" stroke="black" stroke-opacity="0.05"/>
<path fill-rule="evenodd" clip-rule="evenodd" d="M7.67328 5.86485C7.24928 9.37165 8.11488 10.1356 9.17288 10.1656L7.84648 17.4292H16.1533L14.8273 10.1656C15.8853 10.136 16.7501 9.37165 16.3265 5.86485L14.8833 5.65285L14.4541 7.11045L13.1973 7.07045L12.9885 5.56885H11.0105L10.8025 7.07045L9.54528 7.11045L9.11608 5.65325L7.67328 5.86485Z" fill="#121638"/>
<path opacity="0.18" fill-rule="evenodd" clip-rule="evenodd" d="M9.17272 10.1656C11.9039 10.1656 14.4199 10.3288 15.1519 16.7944L16.0795 16.9488L14.8271 10.3776C14.8143 10.2544 12.3919 9.64839 9.17272 10.1656Z" fill="#121638"/>
<path opacity="0.25" fill-rule="evenodd" clip-rule="evenodd" d="M7.91068 6.08755L8.82148 5.97315C8.05588 6.09795 7.89628 8.09155 7.89628 8.09155C7.80108 8.02075 7.82108 6.13035 7.91068 6.08755ZM12.1103 5.81995C11.4511 5.81995 11.1023 6.91915 11.1023 6.91915L11.2375 5.82755L12.1103 5.81995ZM15.0683 5.92635L15.4419 5.97355C15.1279 6.17355 14.8059 6.76915 14.8059 6.76915L15.0683 5.92635ZM9.38868 10.3855L10.4367 10.2683C9.38868 10.3855 8.47868 15.4895 8.47428 15.5135L9.38868 10.3855Z" fill="#121638"/>
<path opacity="0.18" fill-rule="evenodd" clip-rule="evenodd" d="M15.6051 5.75928C15.7479 8.30448 14.8251 10.0005 12.3887 9.97368L14.2995 10.1989C17.3087 10.3229 16.3399 5.87648 16.3267 5.86488L15.6051 5.75928Z" fill="#121638"/>
<path fill-rule="evenodd" clip-rule="evenodd" d="M12 16.5828C12 16.5828 8.34804 16.602 7.32364 17.2308C6.63284 17.6548 6.46964 18.6908 6.56364 19.76H17.4364C17.5304 18.6912 17.3676 17.6544 16.6764 17.2304C15.6524 16.6024 12.0004 16.5828 12.0004 16.5828H12Z" fill="#121638"/>
<g opacity="0.25">
<path d="M12.0001 16.8584C12.0001 16.8584 8.51527 16.8036 7.35047 17.5248C7.20247 17.6164 7.07047 17.8608 6.96887 18.0808C7.07327 17.9484 7.17007 17.8356 7.32367 17.7412C8.34807 17.1128 12.0001 17.0932 12.0001 17.0932C12.0001 17.0932 15.6529 17.1128 16.6769 17.7412C16.8166 17.8269 16.8957 17.9293 16.9862 18.0466C16.997 18.0606 17.008 18.0748 17.0193 18.0892C17.0293 18.0588 16.8557 17.626 16.5617 17.4508C15.4593 16.854 12.0001 16.8588 12.0001 16.8588V16.8584Z" fill="#121638"/>
<path d="M12.0001 16.8584C12.0001 16.8584 8.51527 16.8036 7.35047 17.5248C7.20247 17.6164 7.07047 17.8608 6.96887 18.0808C7.07327 17.9484 7.17007 17.8356 7.32367 17.7412C8.34807 17.1128 12.0001 17.0932 12.0001 17.0932C12.0001 17.0932 15.6529 17.1128 16.6769 17.7412C16.8166 17.8269 16.8957 17.9293 16.9862 18.0466C16.997 18.0606 17.008 18.0748 17.0193 18.0892C17.0293 18.0588 16.8557 17.626 16.5617 17.4508C15.4593 16.854 12.0001 16.8588 12.0001 16.8588V16.8584Z" stroke="#121638"/>
</g>
<circle cx="22" cy="22" r="3.5" fill="#04C4C4" stroke="#12214F"/>
</svg>
