<svg width="26" height="26" viewBox="0 0 26 26" fill="none" xmlns="http://www.w3.org/2000/svg">
<rect width="24" height="24" rx="6" fill="black" fill-opacity="0.25"/>
<rect x="0.5" y="0.5" width="23" height="23" rx="5.5" stroke="#76573D" stroke-opacity="0.7"/>
<path fill-rule="evenodd" clip-rule="evenodd" d="M12.8768 11.2061C12.8108 13.9929 8.17362 13.2937 8.27042 18.4477L17.4144 18.4949C16.5768 15.9181 21.2904 8.43092 12.642 5.59172C12.642 5.59172 11.6668 4.55172 10.256 4.46252L10.3448 5.87612L8.52162 7.70892C7.46962 8.96692 5.02762 11.0601 5.42122 11.5533C6.66722 13.6749 7.95322 13.3261 7.95322 13.3261C9.65002 11.5085 10.2812 12.4901 12.8772 11.2061H12.8768Z" fill="#DC9947"/>
<path opacity="0.47" fill-rule="evenodd" clip-rule="evenodd" d="M10.5279 7.87768C10.2175 8.22168 10.2519 8.32408 10.2023 8.73768C10.5247 8.78688 10.8051 8.83368 11.1019 8.76408C12.0539 8.25928 11.1319 7.40288 10.5279 7.87768Z" fill="#DC9947"/>
<path opacity="0.3" fill-rule="evenodd" clip-rule="evenodd" d="M6.47671 10.8665C6.13671 11.0297 6.07711 11.2505 6.05391 11.4565C6.34551 11.6241 6.80471 11.4065 6.87031 10.8841L6.47671 10.8665Z" fill="#DC9947"/>
<path fill-rule="evenodd" clip-rule="evenodd" d="M6.07594 12.0599C6.07594 12.0599 6.33714 12.5147 5.63554 11.4035C5.89914 10.6127 8.94074 7.77149 10.6107 5.98989L10.5371 4.75549C10.5371 4.75549 10.9647 5.43149 11.0363 6.14269C9.27994 7.89869 6.14794 10.4759 5.90674 11.4279C5.91594 11.6975 6.00274 11.8391 6.07594 12.0599Z" fill="#DC9947"/>
<g opacity="0.15">
<path d="M8.10394 13.3028C8.60336 12.4818 9.75812 12.1829 10.9027 11.8866C11.6191 11.7011 12.3315 11.5167 12.8767 11.206C12.9584 11.2318 12.9576 11.444 12.9571 11.5824C12.9568 11.663 12.9566 11.7186 12.9727 11.698C12.9941 11.6704 13.0175 11.6411 13.0423 11.6101C13.41 11.1491 14.0911 10.2951 13.3199 8.948C13.4353 10.2651 11.7472 10.8095 10.0671 11.3512C8.70718 11.7897 7.35258 12.2265 6.96394 13.07C6.88394 13.2444 7.83674 13.3872 8.10394 13.3028Z" fill="#DC9947"/>
<path d="M8.10394 13.3028C8.60336 12.4818 9.75812 12.1829 10.9027 11.8866C11.6191 11.7011 12.3315 11.5167 12.8767 11.206C12.9584 11.2318 12.9576 11.444 12.9571 11.5824C12.9568 11.663 12.9566 11.7186 12.9727 11.698C12.9941 11.6704 13.0175 11.6411 13.0423 11.6101C13.41 11.1491 14.0911 10.2951 13.3199 8.948C13.4353 10.2651 11.7472 10.8095 10.0671 11.3512C8.70718 11.7897 7.35258 12.2265 6.96394 13.07C6.88394 13.2444 7.83674 13.3872 8.10394 13.3028Z" stroke="#DC9947"/>
</g>
<path d="M13.12 11.5125C12.9214 12.6519 12.0006 13.2622 11.0451 13.8954C10.0509 14.5543 9.01915 15.2381 8.72481 16.5689C9.23791 15.4086 10.1689 14.8305 11.0426 14.2879C12.0985 13.6323 13.0705 13.0287 13.12 11.5125Z" fill="#DC9947"/>
<path d="M13.12 11.5125C12.9214 12.6519 12.0006 13.2622 11.0451 13.8954C10.0509 14.5543 9.01915 15.2381 8.72481 16.5689C9.23791 15.4086 10.1689 14.8305 11.0426 14.2879C12.0985 13.6323 13.0705 13.0287 13.12 11.5125Z" stroke="#DC9947"/>
<path opacity="0.15" fill-rule="evenodd" clip-rule="evenodd" d="M10.2561 4.46256C10.2561 4.46256 11.4765 4.75776 12.2177 6.05536C20.4177 8.91696 15.2745 17.2302 14.5333 18.4846L17.4145 18.495C16.6201 17.1978 21.2337 8.25616 12.6425 5.59216C11.9321 5.16416 11.5349 4.54816 10.2561 4.46216V4.46256Z" fill="#DC9947"/>
<path fill-rule="evenodd" clip-rule="evenodd" d="M12.8 16.5828C12.8 16.5828 9.14797 16.602 8.12357 17.2308C7.43277 17.6548 7.26957 18.6908 7.36357 19.76H18.2364C18.3304 18.6912 18.1676 17.6544 17.4764 17.2304C16.4524 16.6024 12.8004 16.5828 12.8004 16.5828H12.8Z" fill="#DC9947"/>
<path fill-rule="evenodd" clip-rule="evenodd" d="M12.8 16.8587C12.8 16.8587 9.31515 16.8039 8.15035 17.5251C8.00235 17.6167 7.87035 17.8611 7.76875 18.0811C7.87315 17.9487 7.96995 17.8359 8.12355 17.7415C9.14795 17.1131 12.8 17.0935 12.8 17.0935C12.8 17.0935 16.4528 17.1131 17.4768 17.7415C17.6332 17.8375 17.7136 17.9543 17.8192 18.0895C17.8296 18.0591 17.6556 17.6263 17.3616 17.4511C16.2592 16.8543 12.8 16.8591 12.8 16.8591V16.8587Z" fill="#DC9947"/>
<circle cx="22" cy="22" r="3.5" fill="#04C4C4" stroke="#12214F"/>
</svg>
