<svg width="24" height="24" viewBox="0 0 24 24" fill="none" xmlns="http://www.w3.org/2000/svg">
<rect width="24" height="24" rx="6" fill="black" fill-opacity="0.25"/>
<rect x="0.5" y="0.5" width="23" height="23" rx="5.5" stroke="#76573D" stroke-opacity="0.7"/>
<path fill-rule="evenodd" clip-rule="evenodd" d="M9.87932 5.20001C9.69386 5.19989 9.51024 5.23541 9.33885 5.30452C9.16745 5.37362 9.01166 5.47497 8.88043 5.60279C8.7492 5.7306 8.64507 5.88243 8.57398 6.0495C8.50289 6.21657 8.46625 6.39566 8.46612 6.57655C8.46612 7.20065 8.89912 7.74589 9.51898 7.90538V11.4224L7.78615 9.06091C7.94289 8.83396 8.02719 8.56673 8.02719 8.29345C8.02706 8.11251 7.99039 7.93336 7.91925 7.76625C7.84812 7.59914 7.74395 7.44728 7.61264 7.31946C7.48134 7.19163 7.32554 7.09033 7.15407 7.02126C6.9826 6.95219 6.7988 6.91671 6.61328 6.91691C6.42781 6.91679 6.24412 6.95231 6.07273 7.02142C5.90133 7.09052 5.74562 7.19187 5.61439 7.31969C5.48315 7.4475 5.37903 7.59933 5.30793 7.7664C5.23684 7.93347 5.20012 8.11257 5.2 8.29345C5.221 8.96798 5.82539 9.49625 6.59876 9.6693L8.70748 16.551C8.70748 16.8035 10.103 17.008 11.8252 17.008C13.5474 17.008 14.9433 16.8035 14.9433 16.551L17.0517 9.6693C17.8251 9.49594 18.4297 8.96798 18.4504 8.29345C18.4503 8.11257 18.4136 7.93347 18.3425 7.7664C18.2714 7.59933 18.1673 7.4475 18.0361 7.31969C17.9048 7.19187 17.749 7.09052 17.5777 7.02142C17.4063 6.95231 17.2226 6.91679 17.0372 6.91691C16.8517 6.91675 16.668 6.95225 16.4965 7.02134C16.3251 7.09043 16.1692 7.19179 16.038 7.31961C15.9067 7.44743 15.8026 7.59923 15.7314 7.76632C15.6603 7.93341 15.6237 8.11254 15.6236 8.29345C15.6236 8.56673 15.7076 8.83396 15.8643 9.06091L14.1318 11.4228V7.90507C14.4329 7.82783 14.6993 7.6557 14.8897 7.41542C15.0801 7.17513 15.1837 6.88022 15.1843 6.57655C15.1842 6.39566 15.1476 6.21657 15.0765 6.0495C15.0054 5.88243 14.9013 5.7306 14.77 5.60279C14.6388 5.47497 14.483 5.37362 14.3116 5.30452C14.1402 5.23541 13.9565 5.19989 13.7711 5.20001C13.5856 5.19985 13.4019 5.23535 13.2304 5.30444C13.059 5.37353 12.9032 5.47489 12.7719 5.60271C12.6407 5.73053 12.5365 5.88233 12.4654 6.04942C12.3943 6.21651 12.3577 6.39564 12.3575 6.57655C12.3575 7.02571 12.5843 7.44619 12.9628 7.70276L11.8252 10.9695L10.6876 7.70276C10.8741 7.57655 11.0267 7.4082 11.1321 7.21211C11.2376 7.01601 11.2928 6.79798 11.2932 6.57655C11.2931 6.39564 11.2565 6.21651 11.1854 6.04942C11.1143 5.88233 11.0101 5.73053 10.8788 5.60271C10.7476 5.47489 10.5918 5.37353 10.4203 5.30444C10.2489 5.23535 10.0648 5.19985 9.87932 5.20001Z" fill="#DC9947"/>
<path opacity="0.18" fill-rule="evenodd" clip-rule="evenodd" d="M17.1513 6.80762C17.4586 7.11858 18.2174 8.48483 16.4803 9.56041L14.8021 13.8016C14.8021 13.8016 13.772 16.9661 12.7746 17.7785C12.7746 17.7785 14.2351 17.8165 14.9114 17.3448L15.4188 15.2025L16.8816 10.8956L17.1654 9.56009C17.9385 9.38693 18.5434 8.85896 18.564 8.18434C18.564 7.4243 17.9319 6.80794 17.1513 6.80762Z" fill="#DC9947"/>
<path opacity="0.18" fill-rule="evenodd" clip-rule="evenodd" d="M9.87918 5.20001C9.79342 5.20001 9.70995 5.20885 9.62845 5.22292C10.6078 5.80753 10.4075 7.1142 10.1473 7.54725L11.8251 10.2765L11.5741 9.7089L10.6873 7.70273C10.8726 7.57878 11.0247 7.41129 11.1303 7.21493C11.2359 7.01858 11.2917 6.79934 11.2929 6.57641C11.2929 5.81636 10.6602 5.20001 9.87951 5.20001H9.87918ZM13.7573 5.20001C13.6716 5.20001 13.5881 5.20885 13.5066 5.22292C14.9809 5.63863 14.0807 7.29259 13.718 7.42582L14.118 10.7298V7.90535C14.7373 7.74594 15.1697 7.20062 15.1707 6.57641C15.1707 5.81636 14.538 5.20034 13.7573 5.20001ZM6.5827 6.9021C6.49694 6.9021 6.41347 6.91061 6.33197 6.92501C7.39348 7.3178 7.32082 8.3325 7.10053 9.01988L9.48836 11.4077L7.7555 9.04607C7.91262 8.81891 7.99641 8.55181 7.99641 8.27849C7.99641 7.51812 7.36337 6.9021 6.5827 6.9021Z" fill="#DC9947"/>
<path fill-rule="evenodd" clip-rule="evenodd" d="M5.87104 7.37459C5.87104 7.37459 4.79971 8.22793 5.91065 9.11268C5.83897 8.93266 5.61377 7.88064 5.87104 7.37459ZM9.29682 5.57791C9.17931 5.52718 8.21567 6.29737 8.91974 7.2633C8.95214 7.10684 8.6461 6.03093 9.29682 5.57791ZM13.2718 5.54649C13.1543 5.49575 12.1249 6.25907 12.844 7.2489C12.789 7.06756 12.6087 5.86301 13.2718 5.54649ZM6.80817 9.48649L8.57801 15.253L8.93414 17.2748L9.16392 17.3488V16.2L6.80817 9.48649ZM16.5359 7.28C16.4184 7.22926 15.3991 8.02204 16.113 8.99714C16.0443 8.67505 15.7752 7.57197 16.5359 7.28Z" fill="#DC9947"/>
<path fill-rule="evenodd" clip-rule="evenodd" d="M9.87932 5.20001C9.69386 5.19989 9.51024 5.23541 9.33885 5.30452C9.16745 5.37362 9.01166 5.47497 8.88043 5.60279C8.7492 5.7306 8.64507 5.88243 8.57398 6.0495C8.50289 6.21657 8.46625 6.39566 8.46612 6.57655C8.46612 7.20065 8.89912 7.74589 9.51898 7.90538V11.4224L7.78615 9.06091C7.94289 8.83396 8.02719 8.56673 8.02719 8.29345C8.02706 8.11251 7.99039 7.93336 7.91925 7.76625C7.84812 7.59914 7.74395 7.44728 7.61264 7.31946C7.48134 7.19163 7.32554 7.09033 7.15407 7.02126C6.9826 6.95219 6.7988 6.91671 6.61328 6.91691C6.42781 6.91679 6.24412 6.95231 6.07273 7.02142C5.90133 7.09052 5.74562 7.19187 5.61439 7.31969C5.48315 7.4475 5.37903 7.59933 5.30793 7.7664C5.23684 7.93347 5.20012 8.11257 5.2 8.29345C5.221 8.96798 5.82539 9.49625 6.59876 9.6693L8.70748 16.551C8.70748 16.8035 10.103 17.008 11.8252 17.008C13.5474 17.008 14.9433 16.8035 14.9433 16.551L17.0517 9.6693C17.8251 9.49594 18.4297 8.96798 18.4504 8.29345C18.4503 8.11257 18.4136 7.93347 18.3425 7.7664C18.2714 7.59933 18.1673 7.4475 18.0361 7.31969C17.9048 7.19187 17.749 7.09052 17.5777 7.02142C17.4063 6.95231 17.2226 6.91679 17.0372 6.91691C16.8517 6.91675 16.668 6.95225 16.4965 7.02134C16.3251 7.09043 16.1692 7.19179 16.038 7.31961C15.9067 7.44743 15.8026 7.59923 15.7314 7.76632C15.6603 7.93341 15.6237 8.11254 15.6236 8.29345C15.6236 8.56673 15.7076 8.83396 15.8643 9.06091L14.1318 11.4228V7.90507C14.4329 7.82783 14.6993 7.6557 14.8897 7.41542C15.0801 7.17513 15.1837 6.88022 15.1843 6.57655C15.1842 6.39566 15.1476 6.21657 15.0765 6.0495C15.0054 5.88243 14.9013 5.7306 14.77 5.60279C14.6388 5.47497 14.483 5.37362 14.3116 5.30452C14.1402 5.23541 13.9565 5.19989 13.7711 5.20001C13.5856 5.19985 13.4019 5.23535 13.2304 5.30444C13.059 5.37353 12.9032 5.47489 12.7719 5.60271C12.6407 5.73053 12.5365 5.88233 12.4654 6.04942C12.3943 6.21651 12.3577 6.39564 12.3575 6.57655C12.3575 7.02571 12.5843 7.44619 12.9628 7.70276L11.8252 10.9695L10.6876 7.70276C10.8741 7.57655 11.0267 7.4082 11.1321 7.21211C11.2376 7.01601 11.2928 6.79798 11.2932 6.57655C11.2931 6.39564 11.2565 6.21651 11.1854 6.04942C11.1143 5.88233 11.0101 5.73053 10.8788 5.60271C10.7476 5.47489 10.5918 5.37353 10.4203 5.30444C10.2489 5.23535 10.0648 5.19985 9.87932 5.20001Z" fill="#DC9947"/>
<path fill-rule="evenodd" clip-rule="evenodd" d="M11.8607 15.7809C11.8607 15.7809 8.20871 15.8001 7.18431 16.4289C6.49351 16.8529 6.33031 17.8889 6.42431 18.9581H17.2971C17.3911 17.8893 17.2283 16.8525 16.5371 16.4285C15.5131 15.8001 11.8611 15.7805 11.8611 15.7805L11.8607 15.7809Z" fill="#DC9947" stroke="#DC9947" stroke-width="1.2" stroke-linejoin="round"/>
<path fill-rule="evenodd" clip-rule="evenodd" d="M11.8605 16.0568C11.8605 16.0568 8.37568 16.002 7.21088 16.7232C7.06288 16.8148 6.93088 17.0592 6.82928 17.2792C6.93368 17.1468 7.03008 17.034 7.18408 16.9396C8.20808 16.3112 11.8605 16.2916 11.8605 16.2916C11.8605 16.2916 15.5133 16.3112 16.5373 16.9396C16.6937 17.0356 16.7745 17.1524 16.8797 17.2876C16.8901 17.2572 16.7161 16.8244 16.4221 16.6492C15.3197 16.0524 11.8605 16.0568 11.8605 16.0568Z" fill="#DC9947"/>
</svg>
