<svg width="17" height="16" viewBox="0 0 17 16" fill="none" xmlns="http://www.w3.org/2000/svg">
<path d="M16.0105 7.00437L8.00549 0L0.000488281 7.00437H2.03176L2.01174 15.96H13.9792V7.00437H16.0105ZM5.22375 10.5466C4.69342 10.5466 4.26315 10.1163 4.26315 9.58599C4.26315 9.05566 4.69342 8.62539 5.22375 8.62539C5.75408 8.62539 6.18435 9.05566 6.18435 9.58599C6.18435 10.1163 5.75408 10.5466 5.22375 10.5466ZM8.65589 13.4684C7.98548 13.4684 7.35508 13.2983 6.93482 13.1082L7.34508 12.1976C7.43513 12.2376 9.43638 13.0982 10.387 11.5572L11.2375 12.0775C10.5871 13.1382 9.58648 13.4684 8.65589 13.4684ZM10.7772 9.32582C10.2469 9.32582 9.81662 8.89556 9.81662 8.36522C9.81662 7.83489 10.2469 7.40463 10.7772 7.40463C11.3076 7.40463 11.7378 7.83489 11.7378 8.36522C11.7378 8.89556 11.3076 9.32582 10.7772 9.32582Z" fill="#F8EFE9"/>
</svg>
