<svg width="107" height="67" viewBox="0 0 107 67" fill="none" xmlns="http://www.w3.org/2000/svg">
<path d="M0.195942 68.8737C9.87517 53.352 36.4298 50.3717 36.9927 53.6082C37.3311 55.5529 25.3612 54.7663 24.3138 53.3231C23.4019 52.0711 23.612 43.2242 25.3719 41.0991C26.0951 40.226 27.1318 39.324 28.1471 38.8296C30.4662 37.6967 32.8566 36.6684 34.9336 35.1278C37.0069 33.5872 38.7775 31.7976 39.2691 29.2395C39.3546 28.7957 39.4009 28.3231 39.2441 27.9009C39.0838 27.4607 38.7347 27.1252 38.4248 26.7788C37.3667 25.5918 36.6863 24.062 36.5117 22.4708C36.469 22.092 36.444 21.6807 36.1982 21.392C35.9809 21.1395 35.646 21.0384 35.3397 20.9049C34.0714 20.3529 33.1879 18.9927 33.1879 17.5892C33.1879 16.1856 34.0786 14.8326 35.3504 14.2806C34.2959 11.2787 34.3885 7.87995 35.6104 4.94301C35.988 4.03379 36.4939 3.139 37.2848 2.55811C38.0757 1.97721 39.2014 1.78238 40.0314 2.29833C40.4554 2.56171 40.7653 2.97664 41.0254 3.40599C41.7236 4.56056 42.1226 5.89553 42.1796 7.24855C42.2473 8.85773 41.5348 10.7916 39.8711 10.9323C39.237 10.9865 38.6065 10.7375 38.1327 10.3009C37.21 9.44945 36.9855 8.14334 37.1494 6.94186C37.5235 4.19976 39.7785 2.02051 42.3186 0.999435C44.9868 -0.0685421 48.2572 -0.10823 50.7188 1.38189C55.0686 4.01575 53.9607 11.1091 53.4869 13.7502C54.6411 14.3203 55.4391 15.5615 55.4926 16.8603C55.546 18.1592 54.8477 19.4617 53.7434 20.1256C53.437 20.3096 53.0914 20.4576 52.8777 20.7498C52.6355 21.0781 52.5891 21.5147 52.5785 21.926C52.4609 26.8618 49.8639 25.9201 49.7997 28.9328C49.7427 31.5811 50.6761 33.7207 52.7708 34.9835C56.1124 36.9968 57.8117 37.289 59.2581 38.8621C60.5156 40.226 61.6627 51.4758 60.0917 52.9695C59.9029 53.1499 59.5858 53.2257 59.3792 53.0633C58.6703 52.5077 57.9079 41.3805 59.6143 38.5013C60.9859 36.185 62.9916 35.1458 65.1504 33.9191C67.5337 32.5661 68.5205 30.8379 68.7129 28.0849C68.7129 28.0849 65.8807 27.2262 66.0018 23.5172C64.274 22.8497 63.6862 20.9374 64.5198 19.2669C64.8155 18.6752 65.5957 17.9716 65.5957 17.9716C65.5957 17.9716 63.7076 10.5715 69.6676 8.26601C72.653 7.11144 76.39 8.40312 77.9682 11.2354C78.1178 11.506 78.2318 11.8055 78.2389 12.1158C78.2638 13.2271 77.106 13.6492 76.1406 13.8549C74.8795 14.1218 73.54 14.3383 72.3252 13.8981C71.7908 13.7033 71.2957 13.3389 70.943 12.8807C70.2162 11.9426 70.8361 10.521 72.0046 10.42C74.9222 10.1638 79.2364 12.5415 78.9265 18.5164C78.9265 18.5164 79.7672 18.5814 80.2553 19.3643C80.7789 20.2014 80.8039 22.8569 79.1366 23.3909C79.1366 23.3909 79.3005 26.9231 76.3722 27.8215C76.3722 27.8215 76.0302 30.5492 76.8246 32.0502C78.3743 34.9871 83.604 35.936 85.4992 36.8452C88.3955 38.2343 88.3207 40.6661 88.7981 43.8484C89.2469 46.8575 89.7457 52.1144 86.2616 53.7344C85.7379 53.9798 85.1358 54.0519 84.5837 53.886C80.3621 52.6015 91.99 42.0011 93.7784 40.6734C96.2401 38.8477 106.368 30.5095 114.954 32.0574" stroke="#121A44" stroke-width="1.3" stroke-miterlimit="10"/>
</svg>
