<svg width="113" height="62" viewBox="0 0 113 62" fill="none" xmlns="http://www.w3.org/2000/svg">
<path d="M0.253223 63.7903C27.7531 29.8656 55.5771 25.6122 61.0163 27.151C61.4873 27.2839 61.7912 26.6551 61.3962 26.3637C58.6462 24.3239 54.4123 24.8658 51.2015 28.0967C48.9073 30.4075 46.3751 32.483 44.167 34.8807C43.0477 36.0923 41.9133 37.355 41.0675 38.7813C39.9027 40.7495 40.0344 44.2667 41.6499 45.9742C43.4174 47.8453 45.2761 49.6244 47.2158 51.3114C48.2337 52.1958 49.3884 53.1007 50.7305 53.116C51.7991 53.1313 52.7816 52.5741 53.678 51.9862C58.4537 48.8473 65.1844 42.8404 67.4482 37.5595C68.5168 35.0698 66.2175 32.4115 64.3032 30.4995C62.1457 28.3472 58.9703 29.1192 56.6052 31.0312C53.3437 33.6742 48.1577 38.5155 46.1117 41.2863C44.8203 43.0347 50.1633 47.8657 51.1052 47.0733C57.846 41.4039 65.2654 32.9789 70.9173 26.2052C72.6899 24.0785 75.3031 21.957 76.4224 19.3753C76.6857 18.772 76.7566 18.0512 76.4629 17.4633C76.2299 16.993 75.7893 16.6607 75.3436 16.3846C74.7612 16.0268 74.0725 15.7303 73.4141 15.9092C72.933 16.037 72.5531 16.3949 72.1936 16.7425C70.8717 18.0154 69.5449 19.2935 68.223 20.5664C65.1945 23.4855 62.1609 26.4046 59.2387 29.431C58.1448 30.5608 57.0661 31.7111 56.1292 32.9738C55.6683 33.5975 55.2226 34.3081 55.2631 35.0852C55.2986 35.7958 55.7443 36.4297 56.2659 36.9102C56.8281 37.4317 57.5725 37.7077 58.3322 37.6771C60.9556 37.5595 84.333 14.304 85.9688 11.8705C86.0701 11.7172 86.1714 11.5587 86.217 11.3798C86.5512 10.1068 84.9458 8.91055 84.1659 8.17439C83.1327 7.19796 81.7805 5.58249 80.2663 6.6714C78.9951 7.5916 65.9289 19.0123 66.3796 22.2637C67.1393 27.698 76.0425 29.3186 77.2327 28.3626C85.2395 21.9314 92.5526 15.0555 92.5526 11.5076C92.5526 8.01591 84.6065 -1.3548 80.1802 0.608292C75.7589 2.57139 64.8754 14.4727 64.6222 16.5482C64.1917 20.1268 67.4988 25.0243 70.7198 26.5835C73.9408 28.1428 77.6783 28.8227 81.2285 28.4188C83.2492 28.1888 103.208 26.0416 122.767 7.28998" stroke="#121A44" stroke-width="1.3" stroke-miterlimit="10"/>
</svg>
