<svg width="20" height="20" viewBox="0 0 20 20" fill="none" xmlns="http://www.w3.org/2000/svg">
<path d="M8.98001 8.34371L11.752 11.0557L14.548 8.17571L11.776 5.47571L8.98001 8.34371Z" fill="#DEA259"/>
<path d="M7.88801 9.45961C7.82801 9.51961 7.79201 9.60361 7.79201 9.68761C7.79201 9.77161 7.82801 9.85561 7.88801 9.92761L10.192 12.1716C10.324 12.3036 10.54 12.2916 10.66 12.1716L11.116 11.7036L8.35601 8.97961L7.88801 9.45961Z" fill="#DEA259"/>
<path d="M16.684 3.21971C16.528 3.18371 16.288 3.14771 15.976 3.14771C15.112 3.14771 13.804 3.44771 12.4 4.82771L15.172 7.53971C17.056 5.5477 16.816 3.77171 16.684 3.21971Z" fill="#DEA259"/>
<path d="M15.244 13.013C20.44 7.68502 19.732 2.83702 19.312 1.30102C19.228 0.965025 18.964 0.725025 18.628 0.641025C17.08 0.257025 12.22 -0.330975 7.024 4.99702L0.400002 11.801L4.192 11.249L0.400002 19.601L8.884 15.929L8.932 19.601L15.244 13.013ZM10.42 13.169C10.096 13.169 9.796 13.049 9.556 12.821L7.264 10.577C6.784 10.097 6.772 9.31702 7.24 8.83702L11.668 4.30102C14.02 1.88902 16.288 2.20102 16.936 2.35702C17.236 2.42902 17.464 2.65702 17.548 2.95702C17.716 3.59302 18.088 5.84902 15.736 8.26102L11.308 12.797C11.08 13.037 10.756 13.169 10.42 13.169Z" fill="#DEA259"/>
</svg>
