<svg width="213" height="158" viewBox="0 0 213 158" fill="none" xmlns="http://www.w3.org/2000/svg">
<g clip-path="url(#clip0)">
<path d="M22.7358 135.429H0.0772247V158H22.7358V135.429Z" fill="#E3B172"/>
<path d="M68.0529 135.429H45.3944V158H68.0529V135.429Z" fill="#E3B172"/>
<path d="M113.37 135.429H90.7115V158H113.37V135.429Z" fill="#E3B172"/>
<path d="M158.687 135.429H136.029V158H158.687V135.429Z" fill="#E3B172"/>
<path d="M22.7358 90.2857H0.0772247V112.857H22.7358V90.2857Z" fill="#E3B172"/>
<path d="M68.0529 90.2857H45.3944V112.857H68.0529V90.2857Z" fill="#E3B172"/>
<path d="M113.37 90.2857H90.7115V112.857H113.37V90.2857Z" fill="#E3B172"/>
<path d="M158.687 90.2857H136.029V112.857H158.687V90.2857Z" fill="#E3B172"/>
<path d="M45.3944 112.857H22.7358V135.429H45.3944V112.857Z" fill="#E3B172"/>
<path d="M90.7115 112.857H68.053V135.429H90.7115V112.857Z" fill="#E3B172"/>
<path d="M136.029 112.857H113.37V135.429H136.029V112.857Z" fill="#E3B172"/>
<path d="M22.7358 45.1429H0.0772247V67.7143H22.7358V45.1429Z" fill="#E3B172"/>
<path d="M68.0529 45.1429H45.3944V67.7143H68.0529V45.1429Z" fill="#E3B172"/>
<path d="M113.37 45.1429H90.7115V67.7143H113.37V45.1429Z" fill="#E3B172"/>
<path d="M158.687 45.1429H136.029V67.7143H158.687V45.1429Z" fill="#E3B172"/>
<path d="M45.3944 67.7143H22.7358V90.2857H45.3944V67.7143Z" fill="#E3B172"/>
<path d="M90.7115 67.7143H68.053V90.2857H90.7115V67.7143Z" fill="#E3B172"/>
<path d="M136.029 67.7143H113.37V90.2857H136.029V67.7143Z" fill="#E3B172"/>
<path d="M22.7358 0H0.0772247V22.5714H22.7358V0Z" fill="#E3B172"/>
<path d="M68.0529 0H45.3944V22.5714H68.0529V0Z" fill="#E3B172"/>
<path d="M113.37 0H90.7115V22.5714H113.37V0Z" fill="#E3B172"/>
<path d="M158.687 0H136.029V22.5714H158.687V0Z" fill="#E3B172"/>
<path d="M45.3944 22.5714H22.7358V45.1428H45.3944V22.5714Z" fill="#E3B172"/>
<path d="M90.7115 22.5714H68.053V45.1428H90.7115V22.5714Z" fill="#E3B172"/>
<path d="M136.029 22.5714H113.37V45.1428H136.029V22.5714Z" fill="#E3B172"/>
<path d="M119.428 49.5744H127.101C127.094 50.1989 127.192 52.14 128.415 53.5094C129.186 54.3671 130.251 54.8411 131.588 54.9088C133.408 55.0066 135.409 53.3589 136.202 51.0867C137.033 48.7092 136.323 46.4445 134.307 45.0225C130.983 42.6751 127.924 45.3084 127.396 45.805L121.912 44.4357L123.672 29.373H140.56V35.0911L128.989 35.5275C128.884 35.5275 128.808 35.6177 128.808 35.7156C128.823 37.6492 128.982 40.8769 128.982 40.907C128.982 40.9747 129.027 41.0424 129.095 41.065C129.163 41.0951 129.231 41.0876 129.292 41.0424C131.376 39.4022 134.594 39.169 137.298 40.4556C140.402 41.9302 142.215 45.0676 142.26 49.0553C142.29 51.9369 141.361 56.2179 138.619 58.7836C136.882 60.4162 134.669 61.1385 132.033 60.9504C126.051 60.514 123.317 57.7001 122.079 55.4054C120.825 53.088 120.84 50.8911 120.991 50.6277C121.029 50.5676 121.036 50.4923 121.006 50.4321C120.976 50.3719 120.908 50.3268 120.84 50.3268H119.405C119.412 49.9882 119.42 49.7324 119.428 49.5744Z" fill="#DC9947"/>
<path d="M27.9926 111.676C28.695 108.381 30.5681 104.152 35.4926 102.738C36.331 102.497 37.192 102.384 38.053 102.384C41.4593 102.384 44.911 104.16 46.8898 107.132C47.9624 108.742 48.4911 110.563 48.7327 112.173C46.7161 112.18 44.5787 112.173 42.6074 112.15C42.5847 110.186 41.988 108.87 40.8476 108.245C39.4125 107.463 37.5696 108.027 36.6859 108.599C34.7675 109.84 34.8657 111.842 34.8733 111.924C34.8733 111.954 34.8808 111.985 34.8959 112.007C35.0772 112.316 38.0908 112.459 41.8294 112.511C41.1421 112.759 39.7902 113.128 38.7328 113.414C38.0228 113.61 37.3128 113.798 36.7161 113.971C34.8808 114.505 28.9518 115.935 27.7207 116.228C27.7056 115.536 27.6527 113.279 27.9926 111.676Z" fill="#DC9947"/>
<path d="M48.8308 116.544H34.0876C34.0347 116.544 33.9743 116.566 33.9441 116.611C33.9063 116.657 33.8912 116.709 33.9063 116.769C33.929 116.897 34.571 119.975 37.3731 120.629C41.7311 121.652 44.6994 119.328 45.364 118.741L48.7024 122.089C47.7432 123.067 41.2628 129.199 32.9094 124.76C29.8051 123.112 27.8867 120.087 27.7508 116.642C28.7931 116.393 34.9562 114.911 36.8369 114.362C37.4335 114.189 38.1359 113.993 38.8459 113.805C41.6254 113.053 42.4109 112.804 42.577 112.556C44.5861 112.579 46.7613 112.579 48.793 112.571C49.0347 114.482 48.8912 116.055 48.8308 116.544Z" fill="#DC9947"/>
<path d="M64.9034 95.2139H71.2402V102.429C68.8838 102.986 66.3611 103.663 65.0696 105.1C64.9714 105.206 64.8732 105.326 64.7674 105.439V103.129C64.7674 103.061 64.7297 102.994 64.6617 102.963C64.6013 102.933 64.5182 102.941 64.4653 102.978L53.1738 111.45L64.9034 95.2139Z" fill="#DC9947"/>
<path d="M74.0575 113.662V119.32H71.4291C71.3234 119.32 71.2403 119.403 71.2403 119.508V125.535C70.5228 125.602 67.056 125.557 64.7675 125.505V119.516C64.7675 119.41 64.6844 119.328 64.5787 119.328H52.7207L52.479 112.443L64.3823 103.513V105.875C61.8672 108.734 58.0228 113.316 57.985 113.361C57.9397 113.414 57.9246 113.497 57.9548 113.557C57.985 113.617 58.053 113.662 58.121 113.67C64.4956 113.798 64.6315 113.685 64.6995 113.617C64.7373 113.579 64.7599 113.534 64.7599 113.482V106.01C64.9638 105.777 65.1602 105.559 65.3415 105.348C66.5348 104.017 69.0348 103.332 71.2327 102.813V113.474C71.2327 113.579 71.3158 113.662 71.4215 113.662H74.0575Z" fill="#DC9947"/>
<path d="M115.628 60.8676L111.935 60.6795V58.6707C111.935 58.603 111.897 58.5353 111.829 58.5052C111.769 58.4751 111.686 58.4826 111.633 58.5202C111.588 58.5578 106.829 61.9962 101.119 59.9347C98.6874 59.0544 97.1994 56.9628 97.1466 54.3295C97.0862 51.5682 98.0831 49.3788 100.032 48.0095C102.328 46.3843 105.832 46.0909 108.959 47.2646C110.304 47.7687 111.421 48.6791 112.267 49.913C112.252 50.0409 112.23 50.1688 112.207 50.2967C110.915 50.2892 109.616 50.2892 108.332 50.3193C107.079 50.3418 104.82 50.5675 103.831 51.7939C103.4 52.3281 103.257 52.9902 103.408 53.7652C103.559 54.5326 104.042 55.1119 104.805 55.4355C106.301 56.075 108.71 55.6612 109.934 54.8862C111.527 53.878 112.23 52.1626 112.532 50.6729C112.6 50.6729 114.186 50.6729 114.254 50.6729C115.16 52.3432 115.137 53.2235 115.115 55.6762C115.092 56.8725 115.855 59.5735 115.628 60.8676Z" fill="#DC9947"/>
<path d="M116.98 52.6291C116.95 55.3903 116.882 58.0989 116.761 60.6796H114.125C114.344 59.3855 114.465 58.1365 114.48 56.9402C114.503 54.5101 114.035 52.3733 113.159 50.6729C113.718 50.6804 114.269 50.6804 114.82 50.688C115.56 50.6955 116.301 50.703 117.033 50.7105C117.011 51.3501 116.988 51.9971 116.98 52.6291Z" fill="#DC9947"/>
<path d="M117.056 50.3343C116.316 50.3268 115.568 50.3193 114.828 50.3118C114.208 50.3042 113.582 50.2967 112.955 50.2967C112.856 50.1312 112.758 49.9732 112.66 49.8152C112.698 49.4917 112.721 49.1982 112.728 48.9349C112.872 45.3912 111.089 41.4713 107.947 41.3058C105.334 41.1779 103.695 42.1409 102.932 44.2777H97.5997C98.4381 40.4631 101.527 37.7771 105.915 37.0623C109.473 36.483 112.985 37.9501 115.296 40.9822C117.335 43.6532 117.199 47.0464 117.056 50.3343Z" fill="#DC9947"/>
<path d="M151.353 102.602H158.4L158.74 112.985C158.74 113.06 158.793 113.128 158.861 113.158C158.936 113.188 159.012 113.166 159.065 113.113C160.326 111.781 165.047 110.969 167.841 112.443C168.869 112.985 171.278 114.543 171.444 117.251C171.459 117.462 171.467 117.928 171.474 118.59C170.591 118.432 169.752 118.267 168.982 118.094C159.631 115.972 154.163 112.127 152.267 106.342C151.875 105.16 151.535 103.723 151.353 102.948V102.602Z" fill="#DC9947"/>
<path d="M171.444 134.804H164.624C164.639 133.337 164.73 123.819 164.624 120.103C164.571 118.372 162.532 117.424 161.452 117.402C160.764 117.379 159.662 117.725 158.853 118.492C158.294 119.027 158 119.666 157.985 120.358C157.909 124.835 157.781 133.442 157.758 134.804H151.233L151.346 104.513C151.512 105.138 151.701 105.83 151.905 106.454C153.853 112.368 159.405 116.296 168.899 118.455C169.692 118.635 170.56 118.808 171.474 118.966C171.504 123.18 171.452 133.299 171.444 134.804Z" fill="#DC9947"/>
<path d="M189.057 118.733C187.962 118.53 186.633 117.951 185.455 117.138C186.142 116.845 186.761 116.484 187.282 116.062C188.672 114.934 189.231 113.459 188.831 112.014C188.438 110.6 187.184 109.479 185.787 109.276C185.032 109.17 183.604 109.246 182.501 111.006C181.844 112.052 181.814 113.233 182.403 114.43C182.864 115.37 183.702 116.273 184.684 117.025C183.279 117.507 181.678 117.695 180.281 117.492C178.657 117.259 177.388 116.536 176.618 115.408C175.16 113.271 174.911 110.427 175.976 108.155C177.433 105.062 180.583 103.272 184.85 103.114C191.225 102.873 193.74 105.521 194.745 107.779C196.104 110.841 195.273 114.791 193.672 116.423C192.6 117.492 190.991 118.244 189.057 118.733Z" fill="#DC9947"/>
<path d="M195.334 123.947C196.444 126.761 195.991 129.793 194.171 131.855C191.195 135.218 185.039 136.038 181.157 134.699C175.749 132.833 174.873 129.598 174.835 127.837C174.775 125.211 176.482 122.54 178.808 121.615C179.911 121.179 181.248 120.81 182.592 120.81C183.755 120.81 184.941 121.088 185.998 121.833C184.435 122.397 182.668 123.029 181.791 124.481C181.308 125.279 181.18 126.272 181.436 127.228C181.686 128.153 182.275 128.921 183.045 129.349C183.967 129.853 185.251 129.869 186.474 129.372C187.645 128.905 188.513 128.055 188.816 127.107C189.397 125.241 187.917 123.022 186.776 121.991C186.769 121.984 186.754 121.976 186.746 121.961C186.942 121.886 187.139 121.811 187.328 121.735C188.884 121.088 190.341 120.479 191.761 119.862C193.332 120.659 194.601 122.081 195.334 123.947Z" fill="#DC9947"/>
<path d="M118.023 123.15C126.165 103.099 140.757 98.7275 151.089 102.158L150.968 134.992H157.872C157.872 134.992 158.015 125.234 158.098 120.358C158.128 118.59 160.205 117.56 161.376 117.59C162.365 117.612 164.314 118.515 164.367 120.11C164.488 124.173 164.367 135 164.367 135H171.565C171.565 135 171.663 118.824 171.565 117.244C171.421 114.964 169.722 113.264 167.856 112.278C164.918 110.728 160.137 111.638 158.861 112.985L158.514 102.422H150.976C150.976 102.422 151.444 104.664 152.018 106.402C154.435 113.753 162.192 116.755 168.868 118.274C175.387 119.757 189.208 121.148 193.725 116.551C196.625 113.602 197.547 102.452 184.76 102.926C180.87 103.069 177.373 104.566 175.719 108.072C174.609 110.427 174.911 113.361 176.376 115.506C178.649 118.846 184.488 118.034 187.086 115.912C191.618 112.218 185.409 106.59 182.584 111.097C180.356 114.655 186.263 118.651 189.352 118.967C195.281 119.568 198.189 127.514 194.239 131.968C191.316 135.271 185.168 136.294 181.021 134.864C171.436 131.554 174.186 123.202 178.657 121.427C181.361 120.351 184.344 120.08 186.58 122.112C187.796 123.218 189.095 125.324 188.566 127.032C187.939 129.026 184.85 130.147 183.068 129.169C181.512 128.311 180.938 126.122 181.882 124.564C182.955 122.796 185.417 122.277 187.192 121.547C188.906 120.84 190.568 120.005 192.313 119.38C206.965 114.181 217.728 104.34 209.593 89.383C203.921 78.9474 189.057 75.2984 178.143 74.373C164.933 73.2519 151.414 73.8914 138.287 75.652C115.122 75.652 119.201 49.3789 119.201 49.3789H127.252C127.252 49.3789 126.927 54.4725 131.557 54.7132C135.107 54.8938 138.74 48.3932 134.156 45.1655C130.606 42.6601 127.411 46.0007 127.411 46.0007L121.663 44.5711L123.461 29.1774H140.711V35.2642L128.959 35.7081C128.974 37.6568 129.133 40.892 129.133 40.892C133.408 37.5289 142.305 39.8989 142.411 49.0553C142.471 54.0135 139.858 61.7179 131.98 61.1461C120.674 60.326 120.409 51.0792 120.802 50.53H118.279C114.956 50.5225 111.618 50.4322 108.295 50.4999C106.376 50.5375 103.023 51.0491 103.551 53.7276C104.057 56.2782 108.204 55.7214 109.79 54.7283C111.739 53.5019 112.418 51.1018 112.509 48.9274C112.637 45.7373 111.112 41.6594 107.909 41.4939C104.684 41.3209 103.559 42.9084 103.038 44.4658H97.3354C98.1511 40.26 101.58 37.574 105.855 36.8743C109.601 36.2649 113.151 37.89 115.417 40.8694C117.977 44.2326 117.177 48.6867 117.139 52.6291C117.109 55.3753 117.041 58.1215 116.912 60.8677H111.724V58.6708C111.724 58.6708 106.912 62.2371 101.029 60.1078C98.4985 59.1899 96.9879 57.0155 96.9275 54.3295C96.7764 47.1744 103.589 45.0602 108.997 47.0766C112.849 48.5136 112.781 50.6654 111.656 52.5991C107.335 60.0401 88.2719 41.1252 79.4351 55.6612C76.5046 60.484 78.4759 66.3074 81.5499 70.4305C84.8958 74.9071 87.0937 78.9474 87.2901 84.6053C89.2085 93.9123 81.0967 99.653 74.2689 101.85C71.7765 102.647 67.0484 103.136 65.1828 105.221C62.7282 107.959 58.1058 113.474 58.1058 113.474C58.1058 113.474 64.4125 113.602 64.5484 113.474V103.129L52.2599 112.346L52.5091 119.508H64.5031V125.685C64.5031 125.685 71.1798 125.851 71.3535 125.685V119.508H74.1707V113.474H71.3535V95.0258H64.7297L51.7765 112.173C51.7765 112.173 35.3415 112.511 34.9941 111.932C34.9941 111.932 34.8732 109.968 36.7237 108.772C38.2342 107.794 42.411 106.981 42.3506 112.413C42.3506 112.722 38.8234 113.557 36.701 114.174C34.6315 114.776 27.4714 116.484 27.4714 116.484C27.4714 116.484 27.3128 113.602 27.7358 111.631C28.6648 107.267 31.0666 103.784 35.3717 102.557C39.6768 101.331 44.5107 103.317 46.9805 107.034C49.775 111.24 48.9215 116.732 48.9215 116.732H34.0122C34.0122 116.732 34.624 119.809 37.3355 120.441C42.2373 121.585 45.2886 118.47 45.2886 118.47L48.8838 122.074C48.8838 122.074 41.9956 129.831 32.7433 124.91C29.5862 123.233 28.1059 120.343 27.1769 116.724C27.1769 116.724 15.3793 117.296 5.55302 126.34" stroke="#121638" stroke-width="1.3" stroke-miterlimit="10" stroke-linecap="round" stroke-linejoin="round"/>
</g>
<defs>
<clipPath id="clip0">
<rect width="212.794" height="158" fill="white" transform="translate(0.0772247)"/>
</clipPath>
</defs>
</svg>
