<svg width="20" height="16" viewBox="0 0 20 16" fill="none" xmlns="http://www.w3.org/2000/svg">
<path d="M0.28174 9.32884C0.426991 8.10578 0.971682 7.05925 1.83108 6.21446C2.79942 5.25618 3.96143 4.77705 5.24448 4.70139C7.65322 6.79446 10.7761 7.46273 10.9456 7.48795C10.9698 7.48795 11.0061 7.50056 11.0303 7.50056C11.2482 7.50056 11.4297 7.34925 11.4782 7.12229C11.5266 6.87012 11.3692 6.61794 11.1271 6.5675C11.1029 6.5675 9.14205 6.1388 7.21747 4.96618C6.51543 4.51226 5.84969 3.9953 5.24448 3.39007C4.84504 2.98659 4.49402 2.54528 4.27614 2.0031C4.08247 1.49874 4.25193 1.10787 4.7361 0.931346C4.84504 0.893519 4.96608 0.868302 5.08712 0.843084C5.83759 0.729604 6.56384 0.855693 7.27799 1.04483C8.59735 1.37266 9.83199 1.91484 11.0182 2.58311C11.9623 3.11268 12.858 3.70529 13.6569 4.46182C13.7538 4.55009 13.8506 4.58791 13.9837 4.5753C14.4316 4.52487 14.8916 4.5627 15.3394 4.66357C16.4772 4.91574 17.4698 5.47053 18.305 6.32794C18.9223 6.9836 19.3701 7.74013 19.5396 8.66057C19.818 10.0854 19.1159 11.3967 17.8087 11.9137C17.0461 12.2163 16.2472 12.2415 15.4484 12.1154C15.3999 12.1028 15.3394 12.128 15.2789 12.128C15.291 12.1911 15.291 12.2415 15.3152 12.2919C15.7146 13.0358 15.9446 13.8302 16.0536 14.6624C16.102 14.965 16.1141 15.2802 16.1504 15.5954C14.8189 15.5954 13.5117 15.5954 12.2044 15.5954C11.8655 14.5363 10.994 13.0863 8.70629 12.8089C8.44 12.7837 8.23423 12.9728 8.21002 13.225C8.18581 13.4898 8.35527 13.7167 8.60946 13.7545C10.2314 13.9437 10.9214 14.8515 11.2482 15.6081C9.37203 15.6081 7.49587 15.6081 5.63181 15.6081C4.57875 15.6081 3.57409 15.3307 2.69048 14.7128C0.838535 13.4267 0.0154457 11.6363 0.28174 9.32884ZM16.5862 8.20665C16.9372 8.20665 17.2398 7.90404 17.2398 7.53839C17.2398 7.16012 16.9614 6.87012 16.5983 6.87012C16.2472 6.87012 15.9446 7.17273 15.9446 7.53839C15.9446 7.89143 16.2351 8.19405 16.5862 8.20665Z" fill="#DEA259"/>
</svg>
