<svg width="28" height="20" viewBox="0 0 28 20" fill="none" xmlns="http://www.w3.org/2000/svg">
<path d="M27 3C27.5523 3 28 3.44772 28 4L28 16C28 16.5523 27.5523 17 27 17L2.13504 17C1.2872 17 0.824048 16.0111 1.36682 15.3598L5.29985 10.6402C5.60889 10.2693 5.60888 9.73066 5.29985 9.35982L1.36682 4.64018C0.824049 3.98886 1.2872 3 2.13504 3L27 3Z" fill="#C47A5B"/>
<path d="M12.9315 8.2205C12.9965 7.76983 13.1222 7.3755 13.3085 7.0375C13.4948 6.69517 13.7267 6.41133 14.004 6.186C14.2857 5.95633 14.6063 5.78517 14.966 5.6725C15.33 5.5555 15.72 5.497 16.136 5.497C16.5693 5.497 16.9593 5.55983 17.306 5.6855C17.657 5.80683 17.956 5.978 18.203 6.199C18.45 6.41567 18.6385 6.67133 18.7685 6.966C18.9028 7.26067 18.97 7.57917 18.97 7.9215C18.97 8.2205 18.9353 8.48483 18.866 8.7145C18.801 8.93983 18.7057 9.137 18.58 9.306C18.4543 9.475 18.2983 9.618 18.112 9.735C17.9257 9.852 17.7155 9.9495 17.4815 10.0275C18.0448 10.2052 18.4652 10.476 18.7425 10.84C19.0198 11.204 19.1585 11.6612 19.1585 12.2115C19.1585 12.6795 19.0718 13.0933 18.8985 13.453C18.7252 13.8127 18.4912 14.116 18.1965 14.363C17.9018 14.6057 17.5595 14.7898 17.1695 14.9155C16.7838 15.0412 16.3743 15.104 15.941 15.104C15.4687 15.104 15.057 15.0498 14.706 14.9415C14.355 14.8332 14.0495 14.6728 13.7895 14.4605C13.5295 14.2482 13.3085 13.9882 13.1265 13.6805C12.9445 13.3728 12.7885 13.0175 12.6585 12.6145L13.367 12.322C13.5533 12.244 13.7267 12.2245 13.887 12.2635C14.0517 12.2982 14.1708 12.3848 14.2445 12.5235C14.3225 12.6752 14.407 12.8247 14.498 12.972C14.5933 13.1193 14.706 13.2515 14.836 13.3685C14.966 13.4812 15.1177 13.5743 15.291 13.648C15.4687 13.7173 15.6788 13.752 15.9215 13.752C16.1945 13.752 16.4328 13.7087 16.6365 13.622C16.8402 13.531 17.0092 13.414 17.1435 13.271C17.2822 13.128 17.384 12.9698 17.449 12.7965C17.5183 12.6188 17.553 12.4412 17.553 12.2635C17.553 12.0382 17.5292 11.8345 17.4815 11.6525C17.4338 11.4662 17.3342 11.308 17.1825 11.178C17.0308 11.048 16.812 10.9462 16.526 10.8725C16.2443 10.7988 15.8652 10.762 15.3885 10.762V9.618C15.7828 9.61367 16.11 9.57683 16.37 9.5075C16.63 9.43817 16.8358 9.34283 16.9875 9.2215C17.1435 9.09583 17.2518 8.94633 17.3125 8.773C17.3732 8.59967 17.4035 8.409 17.4035 8.201C17.4035 7.759 17.28 7.42317 17.033 7.1935C16.786 6.96383 16.4567 6.849 16.045 6.849C15.8543 6.849 15.6788 6.87717 15.5185 6.9335C15.3582 6.9855 15.213 7.06133 15.083 7.161C14.9573 7.25633 14.8512 7.369 14.7645 7.499C14.6778 7.629 14.6128 7.772 14.5695 7.928C14.4958 8.12733 14.3983 8.2595 14.277 8.3245C14.16 8.3895 13.9932 8.40467 13.7765 8.37L12.9315 8.2205Z" fill="#121A42"/>
</svg>
