<svg width="28" height="20" viewBox="0 0 28 20" fill="none" xmlns="http://www.w3.org/2000/svg">
<path d="M27 3C27.5523 3 28 3.44772 28 4L28 16C28 16.5523 27.5523 17 27 17L2.13504 17C1.2872 17 0.824048 16.0111 1.36682 15.3598L5.29985 10.6402C5.60889 10.2693 5.60888 9.73066 5.29985 9.35982L1.36682 4.64018C0.824049 3.98886 1.2872 3 2.13504 3L27 3Z" fill="#B5B5B5"/>
<path d="M18.606 13.505C18.7793 13.505 18.9158 13.5548 19.0155 13.6545C19.1195 13.7498 19.1715 13.8777 19.1715 14.038V15H12.7235V14.467C12.7235 14.3587 12.7452 14.246 12.7885 14.129C12.8362 14.0077 12.9098 13.8993 13.0095 13.804L15.863 10.944C16.1013 10.7013 16.3137 10.4695 16.5 10.2485C16.6907 10.0275 16.8488 9.80867 16.9745 9.592C17.1002 9.37533 17.1955 9.1565 17.2605 8.9355C17.3298 8.71017 17.3645 8.474 17.3645 8.227C17.3645 8.00167 17.332 7.8045 17.267 7.6355C17.202 7.46217 17.1088 7.317 16.9875 7.2C16.8705 7.083 16.7275 6.99633 16.5585 6.94C16.3938 6.87933 16.2075 6.849 15.9995 6.849C15.8088 6.849 15.6312 6.87717 15.4665 6.9335C15.3062 6.9855 15.1632 7.06133 15.0375 7.161C14.9118 7.25633 14.8057 7.369 14.719 7.499C14.6323 7.629 14.5673 7.772 14.524 7.928C14.4503 8.12733 14.355 8.2595 14.238 8.3245C14.121 8.3895 13.952 8.40467 13.731 8.37L12.886 8.2205C12.951 7.76983 13.0767 7.3755 13.263 7.0375C13.4493 6.69517 13.6812 6.41133 13.9585 6.186C14.2402 5.95633 14.5608 5.78517 14.9205 5.6725C15.2845 5.5555 15.6745 5.497 16.0905 5.497C16.5238 5.497 16.9203 5.562 17.28 5.692C17.6397 5.81767 17.9473 5.9975 18.203 6.2315C18.4587 6.4655 18.658 6.74717 18.801 7.0765C18.944 7.40583 19.0155 7.772 19.0155 8.175C19.0155 8.52167 18.9635 8.84233 18.8595 9.137C18.7598 9.43167 18.6233 9.71333 18.45 9.982C18.281 10.2507 18.0817 10.5107 17.852 10.762C17.6223 11.0133 17.3818 11.269 17.1305 11.529L15.0115 13.6935C15.2152 13.6328 15.4167 13.5873 15.616 13.557C15.8197 13.5223 16.0125 13.505 16.1945 13.505H18.606Z" fill="#121A42"/>
</svg>
