<svg width="89" height="69" viewBox="0 0 89 69" fill="none" xmlns="http://www.w3.org/2000/svg">
<path d="M0.297508 82.9298C5.03402 63.5133 19.7536 53.1963 30.5913 51.1966C41.4291 49.1968 50.2599 51.2481 61.2724 50.7189C62.7552 50.6486 64.3608 50.4894 65.4422 49.4825C66.212 48.766 66.585 47.7263 66.7739 46.7007C67.8129 41.0294 67.2698 35.4283 67.4162 29.7008C67.5153 25.7716 74.0794 27.1391 74.1125 29.4151C74.1266 30.3096 74.3864 37.4093 74.0133 38.2288C72.5777 41.3572 67.5909 40.2145 66.6039 37.3718C66.0986 35.9153 66.1742 34.3371 66.1836 32.7963C66.2073 29.0639 67.4917 24.0482 64.6867 21.5614C60.6821 18.0115 49.9624 19.0512 49.9577 19.0512C49.6177 19.084 49.9293 17.6931 51.1902 14.8176C52.1488 12.6306 54.51 11.2256 53.6411 9.87686C52.8997 8.7248 51.6672 9.48816 50.0899 10.3639C48.999 10.9727 48.4607 9.90496 47.7098 9.20249C47.2423 8.76695 46.3545 8.68265 45.802 8.99643C45.1645 9.35703 44.9 10.2422 44.2011 10.4529C43.1669 10.7714 42.7892 9.78788 41.9061 9.16034C40.9805 8.50469 39.5449 8.77163 38.8177 9.49284C38.3077 9.99863 38.029 10.6262 37.1554 10.4997C37.6371 8.15345 39.9746 6.48156 42.8458 6.15374C46.1515 5.77908 48.9518 7.79285 49.6885 10.495C49.3768 10.0033 51.0958 6.73913 47.2045 4.84713C45.5895 4.06035 43.8281 4.31325 42.35 3.37193C41.5047 2.83336 41.4291 1.86863 41.9816 1.07717C42.6333 0.145215 43.9556 0.00471969 44.6261 0.796177C45.4809 1.80306 45.2023 3.13777 43.3181 3.54989C42.128 3.80746 40.4327 4.48184 39.3418 5.01572C37.3396 5.99919 36.1543 8.51874 37.1554 10.495C36.159 9.63334 35.0681 9.66612 34.0292 9.97521C33.5523 10.1157 33.4248 10.7339 33.7695 11.0898C34.9076 12.2512 35.5073 13.0661 36.3809 14.7755C37.0232 16.0212 37.5001 19.1589 37.5001 19.1589C38.3029 21.0369 46.9401 22.1515 48.6496 19.5991C49.6602 18.0865 36.0457 19.379 34.2181 19.468C44.6167 18.9622 24.8537 19.2058 22.5964 22.868C20.4383 26.3617 20.5564 33.1195 20.8539 37.3718C20.8775 37.6903 21.0475 37.9947 21.3308 38.1445C22.7192 38.8845 21.0522 32.8151 20.58 30.7404C20.5611 30.6561 20.5375 30.5625 20.5139 30.4594C20.2211 29.2465 19.168 28.3567 17.9118 28.2771C16.6368 28.1975 15.0879 28.3661 14.677 29.5743C13.9498 31.7192 14.0915 36.8707 14.3937 39.1186C14.6298 40.9076 20.868 40.2941 20.868 40.2941C20.868 40.2941 20.868 47.7732 21.6567 49.4263C22.5964 51.3979 27.366 51.7211 31.413 51.0186C34.5203 50.48 35.6206 46.1809 35.6962 42.9776C35.7009 42.8324 35.8473 42.7387 35.9843 42.7996C42.1422 45.5674 49.4807 45.6423 55.6953 43.0057C55.7803 42.9682 55.752 42.8371 55.6575 42.8418C49.4902 43.193 42.9733 43.9985 36.8437 43.1836C33.1225 42.6872 30.8747 37.2875 30.3269 33.8875C30.0152 31.9581 30.5252 29.7195 32.0128 28.3567C35.6206 25.0551 40.3194 29.1294 39.2757 33.3302C38.7374 35.4985 36.7351 36.1729 34.6762 36.112C31.1722 36.009 31.0825 31.4991 33.6325 29.9396C35.5829 28.7454 38.1329 29.1341 40.2438 30.0239C42.35 30.9137 44.4609 31.8129 46.4348 32.9696C48.8951 34.412 52.4227 36.009 55.3553 35.1801C58.2832 34.3512 58.7979 29.6258 56.3376 28.1085C50.0663 24.2308 45.7217 33.157 51.7947 36.1636C53.4853 36.9972 55.4498 37.058 57.2584 36.5288C62.1885 35.0771 64.3136 30.2908 67.5673 26.8674C70.3393 23.9498 90.9382 4.6317 107.991 4.94548" stroke="#121A44" stroke-width="1.3" stroke-miterlimit="10" stroke-linejoin="round"/>
</svg>
