<svg width="24" height="24" viewBox="0 0 24 24" fill="none" xmlns="http://www.w3.org/2000/svg">
<rect width="24" height="24" rx="6" fill="#DD6A3A"/>
<rect x="0.5" y="0.5" width="23" height="23" rx="5.5" stroke="black" stroke-opacity="0.05"/>
<path fill-rule="evenodd" clip-rule="evenodd" d="M11.9992 4.375C11.6326 4.37775 11.3366 4.67445 11.3366 5.03943C11.3366 5.38105 11.5968 5.66686 11.9381 5.70069L11.1866 12.8019C10.8737 12.8167 10.5651 12.8404 10.2635 12.8721L8.07605 6.17972C8.2157 6.14067 8.33875 6.05707 8.42648 5.94167C8.51421 5.82627 8.56181 5.68538 8.56202 5.54045C8.56202 5.17356 8.26314 4.87602 7.89446 4.87602C7.52589 4.87602 7.22701 5.17356 7.22701 5.54045C7.22701 5.90744 7.52589 6.20498 7.89446 6.20498C7.92588 6.20498 7.95728 6.20277 7.98837 6.19843L8.33845 13.2187C8.15878 13.2673 7.98088 13.3223 7.80509 13.3834L4.49692 7.39654C4.61513 7.34477 4.71569 7.25974 4.78636 7.15182C4.85703 7.04389 4.89474 6.91775 4.89489 6.78876C4.89489 6.42167 4.59601 6.12423 4.22733 6.12423C3.85866 6.12423 3.55988 6.42167 3.55978 6.78866C3.55978 7.15565 3.85866 7.45319 4.22733 7.45319C4.27831 7.45319 4.32918 7.44728 4.37878 7.43576L6.17776 15.2057C6.48827 16.2732 7.337 17.2256 8.77438 17.6105H15.2242C16.6615 17.2256 17.5103 16.2733 17.8209 15.2057L19.6199 7.43565C19.6694 7.44728 19.7203 7.45309 19.7712 7.45319C20.1399 7.45319 20.4388 7.15565 20.4388 6.78866C20.4388 6.42167 20.1399 6.12423 19.7712 6.12423C19.4026 6.12423 19.1037 6.42167 19.1037 6.78866C19.1039 6.91767 19.1416 7.04387 19.2122 7.15183C19.2829 7.2598 19.3835 7.34486 19.5017 7.39665L16.1934 13.3834C16.0177 13.3222 15.8398 13.2673 15.6601 13.2187L16.0102 6.19843C16.0413 6.20277 16.0727 6.20498 16.1041 6.20498C16.4727 6.20498 16.7715 5.90744 16.7716 5.54045C16.7716 5.17356 16.4727 4.87602 16.1041 4.87602C15.7354 4.87602 15.4366 5.17356 15.4365 5.54045C15.4367 5.68538 15.4843 5.82627 15.5721 5.94167C15.6598 6.05707 15.7828 6.14067 15.9225 6.17972L13.7351 12.8721C13.4335 12.8404 13.1248 12.8168 12.812 12.8019L12.0605 5.70069C12.4018 5.66686 12.6617 5.38105 12.6617 5.03943C12.6617 4.67445 12.366 4.37775 11.9993 4.375H11.9992Z" fill="#121638" stroke="#121638" stroke-width="1.20004" stroke-linecap="round" stroke-linejoin="round"/>
<path opacity="0.5" fill-rule="evenodd" clip-rule="evenodd" d="M8.60425 13.1946L8.88029 13.2085L8.33055 8.04102L8.60425 13.1946Z" fill="#121638"/>
<path opacity="0.5" fill-rule="evenodd" clip-rule="evenodd" d="M11.4387 12.7962L11.9761 7.78967L11.7106 12.9603L11.4387 12.7962Z" fill="#121638"/>
<path opacity="0.5" fill-rule="evenodd" clip-rule="evenodd" d="M13.9875 12.9484L15.6342 7.92212C15.0017 9.97629 14.7447 11.0111 14.2104 13.1016L13.9875 12.9484Z" fill="#121638"/>
<g opacity="0.5">
<path d="M16.4201 13.4758L18.8543 9.19385L16.583 13.6231L16.4201 13.4758Z" fill="#121638"/>
<path d="M16.4201 13.4758L18.8543 9.19385L16.583 13.6231L16.4201 13.4758Z" stroke="#121638"/>
</g>
<path opacity="0.5" d="M4.07513 6.65905C4.07513 6.69208 4.04492 6.73026 3.99323 6.73026C3.94154 6.73026 3.91134 6.69209 3.91134 6.65905C3.91134 6.62602 3.94154 6.58785 3.99323 6.58785C4.04492 6.58785 4.07513 6.62603 4.07513 6.65905Z" fill="#121638" stroke="#121638" stroke-width="0.264325"/>
<path opacity="0.5" d="M7.63139 5.60691C7.74499 5.60691 7.83708 5.51865 7.83708 5.40978C7.83708 5.30091 7.74499 5.21265 7.63139 5.21265C7.51778 5.21265 7.42569 5.30091 7.42569 5.40978C7.42569 5.51865 7.51778 5.60691 7.63139 5.60691Z" fill="#121638"/>
<path opacity="0.5" d="M11.8299 5.04771C11.94 5.04771 12.0293 4.95188 12.0293 4.83367C12.0293 4.71546 11.94 4.61963 11.8299 4.61963C11.7198 4.61963 11.6306 4.71546 11.6306 4.83367C11.6306 4.95188 11.7198 5.04771 11.8299 5.04771Z" fill="#121638"/>
<path opacity="0.5" d="M15.9123 5.4801C15.9994 5.4801 16.07 5.40599 16.07 5.31457C16.07 5.22315 15.9994 5.14905 15.9123 5.14905C15.8252 5.14905 15.7546 5.22315 15.7546 5.31457C15.7546 5.40599 15.8252 5.4801 15.9123 5.4801Z" fill="#121638"/>
<path opacity="0.5" d="M19.6244 6.73413C19.71 6.73413 19.7793 6.66267 19.7793 6.57452C19.7793 6.48638 19.71 6.41492 19.6244 6.41492C19.5389 6.41492 19.4696 6.48638 19.4696 6.57452C19.4696 6.66267 19.5389 6.73413 19.6244 6.73413Z" fill="#121638"/>
<path opacity="0.2" fill-rule="evenodd" clip-rule="evenodd" d="M19.7719 6.12805C20.7707 7.05485 18.8255 7.01605 19.5023 7.40085C17.8151 11.4597 18.6903 18.1629 10.3875 17.6145H15.2247C16.6623 17.2297 17.5111 16.2773 17.8215 15.2097L19.6203 7.43965C19.7179 7.46275 19.8195 7.46347 19.9175 7.44175C20.0155 7.42003 20.1073 7.37643 20.186 7.31422C20.2648 7.25202 20.3285 7.17281 20.3723 7.08252C20.4161 6.99223 20.4389 6.89321 20.4391 6.79285C20.4391 6.42565 20.1407 6.12805 19.7719 6.12805Z" fill="#121638"/>
<path opacity="0.2" fill-rule="evenodd" clip-rule="evenodd" d="M15.6683 13.2204L14.8119 13.2004L15.8819 9.10684L15.6683 13.2204ZM12.8131 12.7556L12.1451 12.9836L12.3491 8.53324L12.8131 12.7556ZM10.2639 12.872L9.70987 12.9656L8.64507 8.02844L10.2639 12.872ZM7.81067 13.3896L7.41787 13.6592L5.32107 8.98924L7.81067 13.3896Z" fill="#121638"/>
<path opacity="0.2" fill-rule="evenodd" clip-rule="evenodd" d="M16.111 4.90677C16.111 4.90677 17.1874 5.40877 16.1386 6.08277C16.1506 6.07957 16.5214 5.36997 16.111 4.90677ZM12.015 4.48877C12.015 4.48877 13.0918 4.99077 12.043 5.66477C12.0546 5.66157 12.4254 4.95197 12.015 4.48877ZM7.87577 4.89957C7.87577 4.89957 8.95257 5.40157 7.90377 6.07557C7.91577 6.07237 8.28617 5.36277 7.87577 4.89957ZM4.28497 6.22197C4.28497 6.22197 5.36137 6.72397 4.31257 7.39797C4.32457 7.39477 4.69537 6.68517 4.28497 6.22197Z" fill="#121638"/>
<path opacity="0.5" fill-rule="evenodd" clip-rule="evenodd" d="M6.2159 13.8272L6.69389 13.8352L5.07189 9.28882L6.2159 13.8272Z" fill="#121638"/>
<path fill-rule="evenodd" clip-rule="evenodd" d="M8.26682 17.6156L7.75882 17.9308V19.1824L8.26682 19.4976H16.0924L16.6004 19.1824V17.9304L16.0924 17.6156H12.1796H8.26682Z" fill="#121638" stroke="#121638" stroke-width="1.2" stroke-linejoin="round"/>
<path opacity="0.5" fill-rule="evenodd" clip-rule="evenodd" d="M16.3787 18.0755L7.98112 18.0791L8.33473 17.8623L16.0335 17.8563L16.3787 18.0755Z" fill="#121638"/>
<path opacity="0.2" fill-rule="evenodd" clip-rule="evenodd" d="M16.3789 18.0757L16.3757 19.0373L16.0293 19.2465L12.6533 19.2425C12.6533 19.2425 13.8333 18.9913 13.4293 18.0849C13.4289 18.0833 15.5401 18.0769 16.3789 18.0757Z" fill="#121638"/>
<path fill-rule="evenodd" clip-rule="evenodd" d="M8.2668 19.4956V20.2796H16.0924V19.4956H8.2668Z" fill="#121638" stroke="#121638" stroke-width="1.2" stroke-linecap="round" stroke-linejoin="round"/>
<path opacity="0.5" d="M11.5493 19.7476H8.51888V20.0312H11.5493V19.7476Z" fill="#121638"/>
<path opacity="0.5" fill-rule="evenodd" clip-rule="evenodd" d="M11.324 13.156C9.30399 13.162 7.99639 13.7296 7.99639 13.7296C7.32079 13.9672 6.77839 14.2228 6.71599 14.6456C6.65719 15.0424 6.99199 15.418 7.16519 15.6448C7.68159 16.3208 8.09999 16.6088 8.49319 16.7792C9.06919 16.9628 8.88639 16.3756 8.70199 16.0296C7.66599 14.242 11.434 13.5936 13.0852 13.6812C14.3688 13.7816 15.6584 13.988 16.6292 14.2404C15.904 13.7736 13.804 13.3332 11.7224 13.17C11.5916 13.16 11.4584 13.1556 11.324 13.156Z" fill="#121638"/>
</svg>
