<svg width="13" height="18" viewBox="0 0 13 18" fill="none" xmlns="http://www.w3.org/2000/svg">
<path fill-rule="evenodd" clip-rule="evenodd" d="M5.08162 8.80295H8.33472H5.08162ZM3.91741 3.88355C3.91741 4.72833 4.24858 5.53554 4.83185 6.12084L3.13413 7.1451L3.33414 8.80295H5.33698C4.96767 10.5388 4.05555 12.3781 2.9825 13.0059C1.90945 13.6336 0.517325 14.5164 0.729888 17H12.6865C12.899 14.5164 11.5074 13.6336 10.4343 13.0059C9.36126 12.3786 8.44914 10.5388 8.07983 8.80295H10.0827L10.2827 7.14462L8.58496 6.12084C8.87353 5.83198 9.10333 5.48482 9.26049 5.10031C9.41765 4.7158 9.49892 4.30189 9.4994 3.88355C9.4994 2.24131 8.27705 1 6.70864 1C5.13976 1 3.91694 2.24131 3.91741 3.88355Z" fill="#736A63" stroke="black" stroke-width="0.5" stroke-linejoin="round"/>
</svg>
