<svg width="15" height="14" viewBox="0 0 15 14" fill="none" xmlns="http://www.w3.org/2000/svg">
<path d="M3.63333 0.626709L11.5667 8.56004L12.98 7.14671L13.92 8.08671L12.2733 9.73338L14.3933 11.8534C14.6533 12.1134 14.6533 12.5334 14.3933 12.7934L13.92 13.2667C13.8583 13.3285 13.7851 13.3775 13.7044 13.411C13.6238 13.4445 13.5373 13.4617 13.45 13.4617C13.3627 13.4617 13.2762 13.4445 13.1956 13.411C13.1149 13.3775 13.0417 13.3285 12.98 13.2667L10.8333 11.1534L9.20666 12.8L8.26666 11.86L9.67999 10.4467L1.74666 2.51338V0.626709H3.63333ZM10.0933 5.66671L13.2533 2.50671V0.626709H11.3667L8.20666 3.78671L10.0933 5.66671ZM6.79333 9.00004L4.90666 7.08671L3.43333 8.56004L2.01999 7.14671L1.07999 8.08671L2.72666 9.73338L0.60666 11.86C0.544858 11.9217 0.495826 11.995 0.462372 12.0756C0.428917 12.1563 0.411697 12.2427 0.411697 12.33C0.411697 12.4174 0.428917 12.5038 0.462372 12.5845C0.495826 12.6651 0.544858 12.7384 0.60666 12.8L1.07999 13.2734C1.33999 13.5334 1.75999 13.5334 2.01999 13.2734L4.16666 11.1534L5.79333 12.8L6.73333 11.86L5.31999 10.4467L6.79333 9.00004Z" fill="#F8EFE9"/>
</svg>
