<svg width="22" height="15" viewBox="0 0 22 15" fill="none" xmlns="http://www.w3.org/2000/svg">
<path d="M18.0906 14.8745H18.5773C19.3534 14.8745 19.9849 14.2431 19.9849 13.467V11.5858H16.6961V13.4801C16.683 14.2431 17.3144 14.8745 18.0906 14.8745Z" fill="#DEA259"/>
<path d="M7.8561 14.8758C8.76379 14.8758 9.50046 14.1392 9.50046 13.2315V11.5871L6.21175 9.28503V13.2315C6.21175 14.1392 6.94842 14.8758 7.8561 14.8758Z" fill="#DEA259"/>
<path d="M2.81781 3.43127C3.52817 3.43127 4.25168 3.68122 4.76472 4.16795C5.00151 4.39158 5.19883 4.66783 5.31723 4.98355C5.5277 5.53605 5.39616 6.18064 5.51455 6.75945C5.63294 7.2988 5.86973 7.82499 6.30384 8.18017C8.55332 10.1139 12.092 11.3636 16.0779 11.3636C17.7091 11.3636 19.2614 11.1532 20.6821 10.7848C20.7084 10.7848 20.7478 10.7717 20.7742 10.7717C21.0241 10.7717 21.2214 10.969 21.2214 11.2189C21.2214 11.3768 21.1162 11.5083 20.9846 11.5873C19.7086 12.1398 18.2747 12.6002 16.683 12.7844C14.1178 13.1001 11.7368 12.7844 10.0924 12.2845C8.5007 11.7978 6.96158 11.14 5.54086 10.2718C4.96205 9.91661 4.40954 9.53512 3.90966 9.08785C3.68603 8.89053 3.47555 8.69321 3.29138 8.46958C3.1993 8.36434 3.12037 8.27225 3.04144 8.15386C2.92305 8.00916 2.88358 7.93023 2.68626 7.91707C2.50209 7.90392 2.31792 7.89076 2.13376 7.83814C1.77858 7.75922 1.4234 7.60136 1.13399 7.39088C0.581486 6.99624 0.199997 6.3648 0.199997 5.6676C0.199997 4.4442 1.37078 3.43127 2.81781 3.43127ZM2.33108 5.78599C2.6468 5.78599 2.89674 5.53605 2.89674 5.22033C2.89674 4.90462 2.6468 4.65467 2.33108 4.65467C2.01536 4.65467 1.76542 4.90462 1.76542 5.22033C1.76542 5.53605 2.02852 5.78599 2.33108 5.78599Z" fill="#DEA259"/>
<path d="M6.56694 5.99621C6.56694 5.78573 6.60641 5.57525 6.65903 5.37793C6.77742 5.06222 6.89581 4.7465 7.04052 4.45709C8.19814 2.28655 10.4608 0.800049 13.0917 0.800049C16.8935 0.800049 19.9717 3.87828 19.9717 7.68003C19.9717 8.48247 19.8139 9.24545 19.5508 9.95581C18.4194 10.2058 17.2224 10.3505 15.9726 10.3505C12.7234 10.3505 9.80303 9.45593 7.65879 8.0089C7.0142 7.54848 6.56694 6.86443 6.56694 5.99621Z" fill="#DEA259"/>
</svg>
