<svg width="20" height="20" viewBox="0 0 20 20" fill="none" xmlns="http://www.w3.org/2000/svg">
<path d="M2.45102 16.5055C2.35961 16.4027 3.85636 13.6149 3.85636 13.6149L4.39336 14.1404C4.40478 14.1519 2.54242 16.6084 2.45102 16.5055Z" fill="#F8EFE9"/>
<path d="M3.43362 17.5681C3.34221 17.4653 5.82155 15.4658 5.82155 15.4658L6.35855 15.9914C6.35855 15.9914 3.51359 17.6709 3.43362 17.5681Z" fill="#F8EFE9"/>
<path d="M0.999978 19.0191C0.908574 18.9162 4.85038 14.5631 4.85038 14.5631L5.38738 15.0887C5.3988 15.1001 1.09138 19.1333 0.999978 19.0191Z" fill="#F8EFE9"/>
<path d="M16.5044 3.49183C16.7329 4.33732 17.0642 7.01089 14.1964 9.94725L9.74049 5.537C12.5969 2.61207 15.2704 2.93198 16.1274 3.13764C16.3216 3.17192 16.4587 3.30902 16.5044 3.49183Z" fill="#F8EFE9"/>
<path d="M9.22636 15.1001L13.6366 10.5871L9.15781 6.1311L4.75898 10.6442L9.22636 15.1001Z" fill="#F8EFE9"/>
<path d="M4.16485 11.2498L3.91349 11.5011C3.52502 11.9124 3.52502 12.5751 3.93634 12.9636L6.97553 15.9228C7.38685 16.3227 8.0381 16.3113 8.43799 15.8999L8.64365 15.6943L4.16485 11.2498Z" fill="#F8EFE9"/>
</svg>
