<svg width="20" height="20" viewBox="0 0 20 20" fill="none" xmlns="http://www.w3.org/2000/svg">
<path d="M12.923 4.55104C12.7734 3.83912 11.676 3.57215 11.0375 3.71058C10.7781 3.76991 10.5487 3.91822 10.3691 4.10609L10.2594 3.26563L10.9577 3.41395V2.58338L10.2594 2.75147L10.4689 2H10.2993H9.64084H9.47125L9.68074 2.76136L8.98241 2.59326V3.42383L9.68074 3.27552L9.57101 4.06654C9.40141 3.90833 9.19191 3.76991 8.96246 3.72047C8.32399 3.57215 7.22661 3.83912 7.07696 4.55104C6.95725 5.09486 7.30642 5.68813 7.52589 6.17263C7.62565 6.39016 7.73539 6.5978 7.84513 6.80544C7.86508 6.82522 7.96484 7.05263 8.00475 7.05263H10.01H12.0052C12.0351 7.05263 12.1449 6.82522 12.1548 6.80544C12.2745 6.5978 12.3843 6.39016 12.4741 6.17263C12.6935 5.68813 13.0427 5.09486 12.923 4.55104Z" fill="#F8EFE9"/>
<path d="M16.24 13.6651L15.33 15.505L12.05 7.89478H8.06L6.92 11.2857L5.7 9.29159L2 18H18L16.24 13.6651Z" fill="#F8EFE9"/>
</svg>
