<svg width="20" height="20" viewBox="0 0 20 20" fill="none" xmlns="http://www.w3.org/2000/svg">
<path d="M15.9088 15.7288H16.3144C16.9612 15.7288 17.4874 15.2026 17.4874 14.5558V12.9882H14.7468V14.5667C14.7358 15.2026 15.262 15.7288 15.9088 15.7288Z" fill="#F8EFE9"/>
<path d="M7.38009 15.7298C8.13649 15.7298 8.75039 15.1159 8.75039 14.3595V12.9892L6.0098 11.0708V14.3595C6.0098 15.1159 6.62369 15.7298 7.38009 15.7298Z" fill="#F8EFE9"/>
<path d="M3.18151 6.19275C3.77348 6.19275 4.37641 6.40103 4.80394 6.80664C5.00126 6.993 5.1657 7.22321 5.26436 7.48631C5.43976 7.94673 5.33013 8.48388 5.42879 8.96623C5.52746 9.41568 5.72478 9.85418 6.08654 10.1502C7.9611 11.7616 10.91 12.8031 14.2316 12.8031C15.5909 12.8031 16.8845 12.6277 18.0684 12.3207C18.0903 12.3207 18.1232 12.3097 18.1451 12.3097C18.3534 12.3097 18.5179 12.4742 18.5179 12.6825C18.5179 12.814 18.4302 12.9236 18.3205 12.9894C17.2572 13.4498 16.0623 13.8335 14.7358 13.987C12.5982 14.2501 10.614 13.987 9.2437 13.5704C7.91725 13.1648 6.63465 12.6167 5.45072 11.8932C4.96837 11.5972 4.50796 11.2793 4.09139 10.9066C3.90503 10.7421 3.72963 10.5777 3.57615 10.3913C3.49942 10.3036 3.43364 10.2269 3.36787 10.1282C3.26921 10.0077 3.23632 9.94188 3.07189 9.93091C2.91841 9.91995 2.76494 9.90899 2.61147 9.86514C2.31548 9.79937 2.0195 9.66782 1.77833 9.49242C1.31791 9.16355 1 8.63736 1 8.05635C1 7.03685 1.97565 6.19275 3.18151 6.19275ZM2.7759 8.15501C3.039 8.15501 3.24728 7.94673 3.24728 7.68363C3.24728 7.42053 3.039 7.21225 2.7759 7.21225C2.51281 7.21225 2.30452 7.42053 2.30452 7.68363C2.30452 7.94673 2.52377 8.15501 2.7759 8.15501Z" fill="#F8EFE9"/>
<path d="M6.30578 8.33013C6.30578 8.15474 6.33867 7.97934 6.38252 7.8149C6.48118 7.55181 6.57984 7.28871 6.70042 7.04754C7.66511 5.23875 9.55064 4 11.7431 4C14.9112 4 17.4764 6.56519 17.4764 9.73332C17.4764 10.402 17.3449 11.0378 17.1256 11.6298C16.1829 11.8381 15.1853 11.9587 14.1439 11.9587C11.4362 11.9587 9.00252 11.2132 7.21565 10.0074C6.6785 9.62369 6.30578 9.05365 6.30578 8.33013Z" fill="#F8EFE9"/>
</svg>
