<svg width="13" height="18" viewBox="0 0 13 18" fill="none" xmlns="http://www.w3.org/2000/svg">
<path fill-rule="evenodd" clip-rule="evenodd" d="M5.08164 8.80295H8.33474H5.08164ZM3.91742 3.88355C3.91742 4.72833 4.24859 5.53554 4.83186 6.12084L3.13415 7.1451L3.33415 8.80295H5.33699C4.96768 10.5388 4.05557 12.3781 2.98252 13.0059C1.90947 13.6336 0.51734 14.5164 0.729904 17H12.6865C12.899 14.5164 11.5074 13.6336 10.4343 13.0059C9.36128 12.3786 8.44916 10.5388 8.07985 8.80295H10.0827L10.2827 7.14462L8.58498 6.12084C8.87355 5.83198 9.10334 5.48482 9.2605 5.10031C9.41766 4.7158 9.49894 4.30189 9.49942 3.88355C9.49942 2.24131 8.27706 1 6.70865 1C5.13978 1 3.91696 2.24131 3.91742 3.88355Z" fill="white" stroke="black" stroke-width="0.5" stroke-linejoin="round"/>
</svg>
