<svg width="20" height="20" viewBox="0 0 20 20" fill="none" xmlns="http://www.w3.org/2000/svg">
<path d="M9.15 8.61974L11.46 10.8797L13.79 8.47974L11.48 6.22974L9.15 8.61974Z" fill="#F8EFE9"/>
<path d="M8.24 9.54978C8.19 9.59978 8.16 9.66978 8.16 9.73978C8.16 9.80978 8.19 9.87978 8.24 9.93978L10.16 11.8098C10.27 11.9198 10.45 11.9098 10.55 11.8098L10.93 11.4198L8.63 9.14978L8.24 9.54978Z" fill="#F8EFE9"/>
<path d="M15.57 4.34979C15.44 4.31979 15.24 4.28979 14.98 4.28979C14.26 4.28979 13.17 4.5398 12 5.6898L14.31 7.9498C15.88 6.28979 15.68 4.80979 15.57 4.34979Z" fill="#F8EFE9"/>
<path d="M14.37 12.5109C18.7 8.07087 18.11 4.03087 17.76 2.75087C17.69 2.47087 17.47 2.27087 17.19 2.20087C15.9 1.88087 11.85 1.39087 7.52 5.83087L2 11.5009L5.16 11.0409L2 18.0009L9.07 14.9409L9.11 18.0009L14.37 12.5109ZM10.35 12.6409C10.08 12.6409 9.83 12.5409 9.63 12.3509L7.72 10.4809C7.32 10.0809 7.31 9.43087 7.7 9.03087L11.39 5.25087C13.35 3.24087 15.24 3.50087 15.78 3.63087C16.03 3.69087 16.22 3.88087 16.29 4.13087C16.43 4.66087 16.74 6.54087 14.78 8.55087L11.09 12.3309C10.9 12.5309 10.63 12.6409 10.35 12.6409Z" fill="#F8EFE9"/>
</svg>
