<svg width="16" height="16" viewBox="0 0 16 16" fill="none" xmlns="http://www.w3.org/2000/svg">
<g opacity="0.8">
<path fill-rule="evenodd" clip-rule="evenodd" d="M6.30346 2.56C6.15509 2.5599 6.0082 2.58831 5.87108 2.6436C5.73396 2.69889 5.60933 2.77996 5.50434 2.88222C5.39936 2.98447 5.31606 3.10593 5.25918 3.23959C5.20231 3.37324 5.173 3.51652 5.1729 3.66123C5.1729 4.16051 5.5193 4.5967 6.01518 4.72429V7.53794L4.62892 5.64871C4.75431 5.46716 4.82175 5.25337 4.82175 5.03475C4.82165 4.89 4.79231 4.74667 4.7354 4.61298C4.6785 4.4793 4.59516 4.35781 4.49011 4.25555C4.38507 4.15329 4.26043 4.07225 4.12325 4.017C3.98608 3.96174 3.83904 3.93335 3.69062 3.93352C3.54225 3.93342 3.3953 3.96184 3.25818 4.01712C3.12106 4.07241 2.9965 4.15348 2.89151 4.25574C2.78652 4.35799 2.70322 4.47945 2.64635 4.61311C2.58947 4.74676 2.5601 4.89004 2.56 5.03475C2.5768 5.57437 3.06031 5.99699 3.67901 6.13543L5.36598 11.6408C5.36598 11.8428 6.48237 12.0064 7.86015 12.0064C9.23793 12.0064 10.3546 11.8428 10.3546 11.6408L12.0414 6.13543C12.6601 5.99674 13.1438 5.57437 13.1603 5.03475C13.1602 4.89004 13.1309 4.74676 13.074 4.61311C13.0171 4.47945 12.9338 4.35799 12.8289 4.25574C12.7239 4.15348 12.5992 4.07241 12.4621 4.01712C12.325 3.96184 12.1781 3.93342 12.0297 3.93352C11.8813 3.93339 11.7344 3.96179 11.5972 4.01706C11.4601 4.07233 11.3354 4.15342 11.2304 4.25568C11.1254 4.35793 11.042 4.47937 10.9851 4.61305C10.9283 4.74672 10.899 4.89002 10.8989 5.03475C10.8989 5.25337 10.9661 5.46716 11.0914 5.64871L9.70543 7.53819V4.72404C9.94632 4.66225 10.1595 4.52455 10.3118 4.33232C10.4641 4.14009 10.5469 3.90416 10.5475 3.66123C10.5474 3.51652 10.5181 3.37324 10.4612 3.23959C10.4043 3.10593 10.321 2.98447 10.216 2.88222C10.111 2.77996 9.9864 2.69889 9.84929 2.6436C9.71217 2.58831 9.56522 2.5599 9.41684 2.56C9.26845 2.55987 9.12148 2.58827 8.98434 2.64354C8.84719 2.69881 8.72255 2.7799 8.61754 2.88215C8.51253 2.98441 8.4292 3.10585 8.37231 3.23953C8.31542 3.3732 8.28613 3.5165 8.28603 3.66123C8.28603 4.02056 8.46747 4.35694 8.77023 4.5622L7.86015 7.17559L6.95007 4.5622C7.09931 4.46123 7.22133 4.32655 7.30569 4.16967C7.39006 4.0128 7.43426 3.83837 7.43459 3.66123C7.43449 3.5165 7.40519 3.3732 7.3483 3.23953C7.29141 3.10585 7.20809 2.98441 7.10308 2.88215C6.99806 2.7799 6.87343 2.69881 6.73628 2.64354C6.59913 2.58827 6.45185 2.55987 6.30346 2.56Z" fill="#F8EFE9"/>
<path opacity="0.18" fill-rule="evenodd" clip-rule="evenodd" d="M12.121 3.84607C12.3669 4.09484 12.9739 5.18784 11.5842 6.04831L10.2417 9.44122C10.2417 9.44122 9.41759 11.9729 8.61971 12.6228C8.61971 12.6228 9.78812 12.6532 10.3291 12.2758L10.735 10.562L11.9053 7.11643L12.1323 6.04804C12.7508 5.90952 13.2347 5.48714 13.2512 4.94745C13.2512 4.33941 12.7456 3.84633 12.121 3.84607Z" fill="#F8EFE9"/>
<path opacity="0.18" fill-rule="evenodd" clip-rule="evenodd" d="M6.30333 2.56C6.23472 2.56 6.16795 2.56707 6.10274 2.57833C6.88623 3.04601 6.72597 4.09135 6.51779 4.43779L7.86008 6.62117L7.65924 6.16711L6.94986 4.56217C7.0981 4.46301 7.21977 4.32902 7.30422 4.17194C7.38867 4.01485 7.43334 3.83946 7.4343 3.66112C7.4343 3.05308 6.92812 2.56 6.30359 2.56H6.30333ZM9.40584 2.56C9.33723 2.56 9.27045 2.56707 9.20525 2.57833C10.3847 2.91089 9.66455 4.23406 9.37441 4.34064L9.69441 6.98385V4.72426C10.1898 4.59674 10.5358 4.16048 10.5365 3.66112C10.5365 3.05308 10.0304 2.56026 9.40584 2.56ZM3.66614 3.92167C3.59754 3.92167 3.53076 3.92847 3.46556 3.94C4.31477 4.25423 4.25664 5.06599 4.08041 5.6159L5.99067 7.52616L4.60439 5.63684C4.73008 5.45511 4.79711 5.24144 4.79711 5.02278C4.79711 4.41448 4.29068 3.92167 3.66614 3.92167Z" fill="#F8EFE9"/>
<path fill-rule="evenodd" clip-rule="evenodd" d="M3.09679 4.29966C3.09679 4.29966 2.23973 4.98233 3.12848 5.69013C3.07113 5.54611 2.89097 4.7045 3.09679 4.29966ZM5.83741 2.86232C5.7434 2.82173 4.97249 3.43788 5.53575 4.21063C5.56167 4.08546 5.31683 3.22473 5.83741 2.86232ZM9.01743 2.83718C8.92342 2.79659 8.09987 3.40725 8.67518 4.19911C8.63119 4.05404 8.4869 3.0904 9.01743 2.83718ZM3.84649 5.98918L5.26237 10.6024L5.54727 12.2199L5.73109 12.279V11.36L3.84649 5.98918ZM11.6287 4.22398C11.5347 4.1834 10.7193 4.81762 11.2904 5.5977C11.2354 5.34003 11.0201 4.45756 11.6287 4.22398Z" fill="#F8EFE9"/>
<path fill-rule="evenodd" clip-rule="evenodd" d="M6.30346 2.56C6.15509 2.5599 6.0082 2.58831 5.87108 2.6436C5.73396 2.69889 5.60933 2.77996 5.50434 2.88222C5.39936 2.98447 5.31606 3.10593 5.25918 3.23959C5.20231 3.37324 5.173 3.51652 5.1729 3.66123C5.1729 4.16051 5.5193 4.5967 6.01518 4.72429V7.53794L4.62892 5.64871C4.75431 5.46716 4.82175 5.25337 4.82175 5.03475C4.82165 4.89 4.79231 4.74667 4.7354 4.61298C4.6785 4.4793 4.59516 4.35781 4.49011 4.25555C4.38507 4.15329 4.26043 4.07225 4.12325 4.017C3.98608 3.96174 3.83904 3.93335 3.69062 3.93352C3.54225 3.93342 3.3953 3.96184 3.25818 4.01712C3.12106 4.07241 2.9965 4.15348 2.89151 4.25574C2.78652 4.35799 2.70322 4.47945 2.64635 4.61311C2.58947 4.74676 2.5601 4.89004 2.56 5.03475C2.5768 5.57437 3.06031 5.99699 3.67901 6.13543L5.36598 11.6408C5.36598 11.8428 6.48237 12.0064 7.86015 12.0064C9.23793 12.0064 10.3546 11.8428 10.3546 11.6408L12.0414 6.13543C12.6601 5.99674 13.1438 5.57437 13.1603 5.03475C13.1602 4.89004 13.1309 4.74676 13.074 4.61311C13.0171 4.47945 12.9338 4.35799 12.8289 4.25574C12.7239 4.15348 12.5992 4.07241 12.4621 4.01712C12.325 3.96184 12.1781 3.93342 12.0297 3.93352C11.8813 3.93339 11.7344 3.96179 11.5972 4.01706C11.4601 4.07233 11.3354 4.15342 11.2304 4.25568C11.1254 4.35793 11.042 4.47937 10.9851 4.61305C10.9283 4.74672 10.899 4.89002 10.8989 5.03475C10.8989 5.25337 10.9661 5.46716 11.0914 5.64871L9.70543 7.53819V4.72404C9.94632 4.66225 10.1595 4.52455 10.3118 4.33232C10.4641 4.14009 10.5469 3.90416 10.5475 3.66123C10.5474 3.51652 10.5181 3.37324 10.4612 3.23959C10.4043 3.10593 10.321 2.98447 10.216 2.88222C10.111 2.77996 9.9864 2.69889 9.84929 2.6436C9.71217 2.58831 9.56522 2.5599 9.41684 2.56C9.26845 2.55987 9.12148 2.58827 8.98434 2.64354C8.84719 2.69881 8.72255 2.7799 8.61754 2.88215C8.51253 2.98441 8.4292 3.10585 8.37231 3.23953C8.31542 3.3732 8.28613 3.5165 8.28603 3.66123C8.28603 4.02056 8.46747 4.35694 8.77023 4.5622L7.86015 7.17559L6.95007 4.5622C7.09931 4.46123 7.22133 4.32655 7.30569 4.16967C7.39006 4.0128 7.43426 3.83837 7.43459 3.66123C7.43449 3.5165 7.40519 3.3732 7.3483 3.23953C7.29141 3.10585 7.20809 2.98441 7.10308 2.88215C6.99806 2.7799 6.87343 2.69881 6.73628 2.64354C6.59913 2.58827 6.45185 2.55987 6.30346 2.56Z" fill="#F8EFE9"/>
<path fill-rule="evenodd" clip-rule="evenodd" d="M7.88857 11.0247C7.88857 11.0247 4.96697 11.0401 4.14745 11.5431C3.59481 11.8823 3.46425 12.7111 3.53945 13.5665H12.2377C12.3129 12.7114 12.1826 11.882 11.6297 11.5428C10.8105 11.0401 7.88889 11.0244 7.88889 11.0244L7.88857 11.0247Z" fill="#F8EFE9" stroke="#F8EFE9" stroke-width="1.2" stroke-linejoin="round"/>
<path fill-rule="evenodd" clip-rule="evenodd" d="M7.88839 11.2455C7.88839 11.2455 5.10055 11.2016 4.16871 11.7786C4.05031 11.8519 3.94471 12.0474 3.86343 12.2234C3.94695 12.1175 4.02407 12.0272 4.14727 11.9517C4.96647 11.449 7.88839 11.4333 7.88839 11.4333C7.88839 11.4333 10.8106 11.449 11.6298 11.9517C11.755 12.0285 11.8196 12.1219 11.9038 12.2301C11.9121 12.2058 11.7729 11.8595 11.5377 11.7194C10.6558 11.2419 7.88839 11.2455 7.88839 11.2455Z" fill="#F8EFE9"/>
</g>
</svg>
