<svg width="20" height="20" viewBox="0 0 20 20" fill="none" xmlns="http://www.w3.org/2000/svg">
<path d="M1.90145 11.1073C2.02249 10.0881 2.4764 9.216 3.19257 8.51201C3.99952 7.71344 4.96786 7.31416 6.03707 7.25112C8.04435 8.99534 10.6468 9.55224 10.788 9.57325C10.8082 9.57325 10.8384 9.58376 10.8586 9.58376C11.0402 9.58376 11.1915 9.45767 11.2318 9.26854C11.2722 9.05839 11.141 8.84824 10.9393 8.80621C10.9191 8.80621 9.28504 8.44896 7.68123 7.47177C7.09619 7.09351 6.54141 6.66271 6.03707 6.15835C5.7042 5.82212 5.41168 5.45436 5.23012 5.00254C5.06873 4.58225 5.20994 4.25652 5.61342 4.10941C5.7042 4.07789 5.80507 4.05688 5.90594 4.03586C6.53132 3.9413 7.13653 4.04637 7.73166 4.20398C8.83113 4.47717 9.85999 4.92899 10.8485 5.48588C11.6353 5.92719 12.3817 6.42104 13.0474 7.05148C13.1281 7.12503 13.2088 7.15655 13.3198 7.14605C13.693 7.10402 14.0763 7.13554 14.4495 7.2196C15.3977 7.42975 16.2248 7.89207 16.9208 8.60657C17.4352 9.15296 17.8084 9.7834 17.9497 10.5504C18.1817 11.7378 17.5966 12.8305 16.5072 13.2613C15.8718 13.5135 15.206 13.5345 14.5403 13.4295C14.4999 13.419 14.4495 13.44 14.3991 13.44C14.4092 13.4925 14.4092 13.5345 14.4293 13.5766C14.7622 14.1965 14.9539 14.8585 15.0446 15.5519C15.085 15.8041 15.0951 16.0668 15.1253 16.3295C14.0158 16.3295 12.9264 16.3295 11.837 16.3295C11.5546 15.4469 10.8283 14.2385 8.92191 14.0074C8.7 13.9863 8.52852 14.144 8.50835 14.3541C8.48818 14.5748 8.62939 14.7639 8.84122 14.7954C10.1929 14.953 10.7678 15.7096 11.0402 16.34C9.47669 16.34 7.91322 16.34 6.35985 16.34C5.48229 16.34 4.64508 16.1088 3.90874 15.594C2.36545 14.5222 1.67954 13.0302 1.90145 11.1073ZM15.4885 10.1722C15.781 10.1722 16.0332 9.91999 16.0332 9.61528C16.0332 9.30006 15.8012 9.05839 15.4986 9.05839C15.206 9.05839 14.9539 9.31057 14.9539 9.61528C14.9539 9.90949 15.1959 10.1617 15.4885 10.1722Z" fill="#F8EFE9"/>
</svg>
