<svg width="20" height="20" viewBox="0 0 20 20" fill="none" xmlns="http://www.w3.org/2000/svg">
<path d="M12.273 16.9041C12.4542 16.531 12.6567 16.1472 12.6994 16.0406C12.9552 15.4011 13.0831 14.8574 13.0831 14.3458C13.0831 13.7595 12.8806 13.1945 12.4222 12.5017C12.2304 12.2032 12.0811 11.9154 11.9425 11.6169C11.8466 11.4144 11.74 11.2012 11.6121 10.988C11.271 10.4017 11.0258 9.74084 10.9086 9.01599C10.4928 9.54897 10.2264 10.1033 10.0984 10.6895C9.92789 11.489 10.0025 12.3311 10.3436 13.429C10.3863 13.5783 10.3436 13.7382 10.2264 13.8448C10.1091 13.9514 9.94921 13.9727 9.79998 13.9194C9.08579 13.6103 8.59545 13.1306 8.23302 12.6402C8.13709 13.1732 8.14775 13.7275 8.23302 14.3245C8.36094 15.0919 8.97919 16.4457 9.64008 17C10.3969 17 11.4948 17 12.209 17C12.241 16.9574 12.2623 16.936 12.273 16.9041Z" fill="#F8EFE9"/>
<path d="M15.5564 9.76216C15.13 9.02665 14.6503 8.32312 14.1706 7.61959C13.6163 6.7988 13.0514 5.97801 12.6357 5.07195C12.1027 3.8994 11.8788 2.68421 12.0707 1.40506C12.092 1.27715 12.1133 1.14923 12.1347 1C12.1027 1.02132 12.0814 1.02132 12.06 1.03198C10.9621 1.81013 9.98142 2.70553 9.25657 3.85676C8.30787 5.32778 7.96676 6.93738 8.21193 8.67488C8.24391 8.92005 8.28655 9.16522 8.32919 9.42105C8.29721 9.39973 8.28655 9.38907 8.27589 9.37842C8.23325 9.33578 8.19061 9.28248 8.14798 9.23984C7.76423 8.76016 7.62566 8.18454 7.54038 7.59827C7.48708 7.16123 7.4551 6.71352 7.41247 6.26582C7.40181 6.27648 7.39115 6.28714 7.38049 6.2978C6.59168 7.32112 5.89881 8.39774 5.45111 9.62358C5.12066 10.5296 4.92879 11.457 5.02472 12.427C5.13132 13.4823 5.56836 14.3884 6.26123 15.1772C6.77289 15.7528 7.38049 16.2005 8.03072 16.5949C8.16929 16.6802 8.30787 16.7442 8.44644 16.8188C7.93478 16.062 7.55104 15.1026 7.4551 14.4524C7.28455 13.4077 7.36983 12.4484 7.72159 11.5103C7.77489 11.3611 7.91347 11.2652 8.07336 11.2545C8.25457 11.2438 8.38249 11.3291 8.4571 11.4677C8.73425 11.99 9.0114 12.3844 9.33119 12.6722C9.18195 11.8834 9.18195 11.2012 9.33119 10.5296C9.54438 9.54897 10.056 8.68554 10.9301 7.82212C11.0154 7.73684 11.1327 7.6942 11.2606 7.70486C11.3778 7.71552 11.4844 7.77948 11.5484 7.88608C11.5804 7.92871 11.6123 8.02465 11.623 8.07795L11.6337 8.20586C11.6763 9.10127 11.9001 9.90073 12.3052 10.5829C12.4438 10.8175 12.5504 11.0413 12.6676 11.2652C12.7955 11.5316 12.9235 11.7875 13.094 12.054C13.6376 12.8854 13.8828 13.5889 13.8828 14.3351C13.8828 14.9534 13.7442 15.5929 13.4351 16.3284C13.4138 16.3924 13.3392 16.5416 13.2432 16.7335C14.0534 16.0087 14.8102 15.1346 15.3965 14.2285C15.8655 13.5037 16.1533 12.7255 16.1533 11.8514C16.1533 11.1053 15.9295 10.4017 15.5564 9.76216Z" fill="#F8EFE9"/>
</svg>
