<svg width="25" height="24" viewBox="0 0 25 24" fill="none" xmlns="http://www.w3.org/2000/svg">
<rect x="0.708191" width="24" height="24" rx="6" fill="black" fill-opacity="0.25"/>
<rect x="1.20819" y="0.5" width="23" height="23" rx="5.5" stroke="#76573D" stroke-opacity="0.7"/>
<path fill-rule="evenodd" clip-rule="evenodd" d="M11.3095 13.0376H14.1071H11.3095ZM10.3083 9.00323C10.3083 9.69603 10.5931 10.358 11.0947 10.838L9.63473 11.678L9.80673 13.0376H11.5291C11.2115 14.4612 10.4271 15.9696 9.50433 16.4844C8.58153 16.9992 7.38433 17.7232 7.56713 19.76H17.8495C18.0323 17.7232 16.8355 16.9992 15.9127 16.4844C14.9899 15.97 14.2055 14.4612 13.8879 13.0376H15.6103L15.7823 11.6776L14.3223 10.838C14.5705 10.6011 14.7681 10.3164 14.9033 10.0011C15.0384 9.68576 15.1083 9.34631 15.1087 9.00323C15.1087 7.65643 14.0575 6.63843 12.7087 6.63843C11.3595 6.63843 10.3079 7.65643 10.3083 9.00323Z" fill="#DC9947" stroke="#DC9947" stroke-width="0.2" stroke-linejoin="round"/>
</svg>
